<?xml version="1.0" standalone="no"?>
<!DOCTYPE svg PUBLIC "-//W3C//DTD SVG 1.1//EN" "http://www.w3.org/Graphics/SVG/1.1/DTD/svg11.dtd" >
<svg>
<metadata>
Created by FontForge 20090914 at Wed Feb  7 18:55:57 2018
 By www-data
Copyright &#194;&#169; 2012 Natanael Gama (info@ndiscovered.com), with Reserved Font Name 'Cinzel'
</metadata>
<defs>
<font id="Cinzel-Regular" horiz-adv-x="577" >
  <font-face 
    font-family="Cinzel"
    font-weight="400"
    font-stretch="normal"
    units-per-em="1000"
    panose-1="0 0 5 0 0 0 0 0 0 0"
    ascent="800"
    descent="-200"
    x-height="600"
    cap-height="699.999"
    bbox="-11.001 -239.003 1328 914"
    underline-thickness="50"
    underline-position="-50"
    unicode-range="U+0020-U+FB02"
  />
<missing-glyph horiz-adv-x="250" 
 />
    <glyph glyph-name=".notdef" horiz-adv-x="250" 
 />
    <glyph glyph-name="space" unicode=" " horiz-adv-x="250" 
 />
    <glyph glyph-name="exclam" unicode="!" horiz-adv-x="230" 
d="M140 403l-21 -233h-10l-20 233l-12 299h75zM115 -4c-12.667 0 -23.334 4.33301 -32.001 13s-13 19.334 -13 32.001s4.33301 23.334 13 32.001s19.334 13 32.001 13s23.334 -4.33301 32.001 -13s13 -19.334 13 -32.001s-4.33301 -23.334 -13 -32.001
s-19.334 -13 -32.001 -13z" />
    <glyph glyph-name="quotedbl" unicode="&#x22;" horiz-adv-x="315" 
d="M50 505c12 56.667 17.999 98.166 17.999 124.499s-0.666992 49.833 -2 70.5l70 14v-21c0 -10.667 -1.83301 -28.167 -5.5 -52.5s-11.667 -51.166 -24 -80.499s-28.166 -49.333 -47.499 -60zM179.999 504.999c12 56.667 17.999 98.166 17.999 124.499
s-0.666992 49.833 -2 70.5l70 14v-21c0 -10.667 -1.83301 -28.167 -5.5 -52.5s-11.667 -51.166 -24 -80.499s-28.166 -49.333 -47.499 -60z" />
    <glyph glyph-name="numbersign" unicode="#" horiz-adv-x="536" 
d="M516 467h-113l-38 -220h107v-30h-113l-38 -217h-32l38 217h-168l-38 -217h-32l38 217h-107v30h113l38 220h-107v30h113l35 203h32l-35 -203h168l35 203h32l-35 -203h107v-30zM333 247l38 220h-168l-38 -220h168z" />
    <glyph glyph-name="dollar" unicode="$" horiz-adv-x="469" 
d="M59 41c-2.66699 9.33301 -3.99902 27.332 -3.99902 53.999s5 55 15 85h9c-0.666992 -7.33301 -1 -14.333 -1 -21c0 -36 9.33301 -67 28 -93s46.667 -42 84 -48l25 321l-89 82c-36 33.333 -54 75 -54 125c0 30.667 7.33301 58.834 22 84.501s35.167 46 61.5 61
s55.5 22.5 87.5 22.5l6 74l30 -1l-5 -74c21.333 -2 41.666 -5 60.999 -9h38v-123h-9c0 37.333 -14.667 65.333 -44 84c-14 8.66699 -30.333 14.334 -49 17.001l-21 -280l115 -107c33.333 -30.667 50 -68.334 50 -113.001s-7.66699 -81 -23 -109
c-32 -57.333 -90 -86.333 -174 -87l-7 -88l-30 3l7 88c-59.333 6.66699 -102.333 24 -129 52zM161.001 647.499c-22 -22.333 -33 -50.168 -33 -83.501s13.667 -62.333 41 -87l52 -49l20 255c-31.333 -1.33301 -58 -13.166 -80 -35.499zM318.501 55.4971
c25.667 25 38.5 56.5 38.5 94.5s-13 69 -39 93l-75 70l-23 -297h3c38 1.33301 69.833 14.5 95.5 39.5z" />
    <glyph glyph-name="percent" unicode="%" horiz-adv-x="684" 
d="M311 660c10.667 -20.667 16.002 -42 16.002 -64c0 -80 -22 -142.667 -66 -188c-30.667 -31.333 -66.334 -47 -107.001 -47s-70.667 15.667 -90 47c-13.333 21.333 -20 44 -20 68c0 81.333 21.667 144.333 65 189c30 31.333 66 47.666 108 48.999
c12 0 24.167 -1.66699 36.5 -5s31.5 -12.666 57.5 -27.999c29.333 -16 52.833 -24 70.5 -24s34 2.5 49 7.5s33 13.5 54 25.5s32.5 18.333 34.5 19l22 -9l-373 -711l-25 11l356 676l-14.5 -7.5l-15.5 -8l-16.5 -8c-7.66699 -3.66699 -13.334 -6 -17.001 -7l-18 -5
c-8.33301 -2.33301 -15 -3.16602 -20 -2.49902s-12.167 0.666992 -21.5 0c-18 1.33301 -39.667 8.66602 -65 21.999zM269.002 537c4 22.667 5.99902 43.668 5.99902 63.001s-2.66699 36.666 -8 51.999c-10 28 -28 42 -54 42c-35.333 0 -64 -24.333 -86 -73
c-20.667 -44.667 -31 -92.667 -31 -144c0 -21.333 2.66699 -39.333 8 -54c10 -28 28 -42 54 -42s48.833 14 68.5 42s33.834 66 42.501 114zM531.001 339.001c40.667 0 70.667 -16 90 -48c13.333 -21.333 20 -43.666 20 -66.999c0 -82 -21.667 -145.333 -65 -190
c-31.333 -32 -67.333 -48 -108 -48s-70.667 16 -90 48c-13.333 21.333 -20 43.666 -20 66.999c0 82 21.667 145.333 65 190c31.333 32 67.333 48 108 48zM583.001 162.001c4 22.667 6 43.833 6 63.5s-2.66699 36.834 -8 51.501c-10 28 -28 42 -54 42s-48.833 -14 -68.5 -42
s-33.834 -66.333 -42.501 -115c-4 -22 -6 -42.833 -6 -62.5s2.66699 -36.834 8 -51.501c10 -28 28 -42 54 -42s48.833 14 68.5 42s33.834 66 42.501 114z" />
    <glyph glyph-name="ampersand" unicode="&#x26;" horiz-adv-x="646" 
d="M627 375c-14 0 -23.834 -3.50586 -29.501 -10.5059s-8.5 -13.667 -8.5 -20s1.5 -16.833 4.5 -31.5s4.5 -34 4.5 -58c0 -52.667 -12.333 -100.667 -37 -144c24 -20.667 43 -36.5 57 -47.5s32.333 -22.333 55 -34s43.667 -18.167 63 -19.5v-10h-16.5h-22
c-4.33301 0 -12.333 0.333008 -24 1s-21.167 1.83398 -28.5 3.50098l-29 6.5c-12 2.66699 -22.667 6.33398 -32 11.001c-24 10.667 -45 23 -63 37c-47.333 -46 -109 -69 -185 -69c-97.333 0 -172.666 20.333 -225.999 61s-80 98.334 -80 173.001
c0 82.667 40.333 144.334 121 185.001c-25.333 40.667 -38 85.334 -38 134.001c0 49.333 18 90 54 122c37.333 32.667 86.333 49 147 49c34 0 66.333 -6.5 97 -19.5s55 -30.167 73 -51.5l-18 -113h-10c0 48 -13 85.667 -39 113s-59.167 41 -99.5 41s-73 -13.333 -98 -40
s-37.5 -60 -37.5 -100s12.333 -77.667 37 -113s73 -85 145 -149l158 -138c14 30.667 21 62.334 21 95.001s-7.16699 63.5 -21.5 92.5s-35.5 43.5 -63.5 43.5h-15v10h199v-10h-15zM486.999 87.9941c-170.667 140.667 -277.332 239.666 -319.999 296.999
c-42.667 -40 -64 -92.167 -64 -156.5s20.5 -115.166 61.5 -152.499s98.167 -56 171.5 -56c61.333 0 111.666 22.667 150.999 68z" />
    <glyph glyph-name="quotesingle" unicode="'" horiz-adv-x="170" 
d="M35 505c12 56.667 17.999 98.166 17.999 124.499s-0.666992 49.833 -2 70.5l70 14v-21c0 -10.667 -1.83301 -28.167 -5.5 -52.5s-11.667 -51.166 -24 -80.499s-28.166 -49.333 -47.499 -60z" />
    <glyph glyph-name="parenleft" unicode="(" horiz-adv-x="338" 
d="M204.5 73.5c29.667 -83 63.833 -137.834 102.5 -164.501l-6 -9c-57.333 30 -106.666 86 -147.999 168c-42 84 -63 173.167 -63 267.5s20.667 178.833 62 253.5s91.666 122.334 150.999 143.001l6 -8c-42 -20 -77.333 -66 -106 -138s-43 -154.667 -43 -248
s14.833 -181.5 44.5 -264.5z" />
    <glyph glyph-name="parenright" unicode=")" horiz-adv-x="338" 
d="M135.5 586c-29 72 -64.167 118.001 -105.5 138.001l6 8c59.333 -20.667 109.666 -68.334 150.999 -143.001s62 -157.667 62 -249c0 -97.333 -21 -187.5 -63 -270.5s-91.333 -139.5 -148 -169.5l-6 9c38.667 26.667 72.334 80.667 101.001 162
c30.667 84.667 46 173.667 46 267s-14.5 176 -43.5 248z" />
    <glyph glyph-name="asterisk" unicode="*" horiz-adv-x="386" 
d="M348 623l-100 -19l-48 1l39 -26l71 -74l-19 -31l-35 -8l-49 89l-13 46l-14 -46l-48 -89l-35 8l-19 30l70 75l39 26l-47 -1l-101 19l-3 35l24 27l92 -43l38 -29l-16 45l-14 101l33 14l33 -14l-12 -101l-16 -45l37 29l92 44l24 -27z" />
    <glyph glyph-name="plus" unicode="+" horiz-adv-x="481" 
d="M442 332v-45h-179v-178h-45v178h-178v45h178v179h45v-179h179z" />
    <glyph glyph-name="comma" unicode="," horiz-adv-x="185" 
d="M45 -81c18 6 30.167 14.3311 36.5 24.998s9.5 18.667 9.5 24c0 16.667 -6.66699 32.334 -20 47.001c-10 12 -15.667 20.333 -17 25c-2 9.33301 -1.33301 18 2 26c6 13.333 17 20 33 20c20 0 33.667 -9.16699 41 -27.5s11 -33.166 11 -44.499
c0 -34.667 -12.333 -61.667 -37 -81c-16.667 -14 -35.667 -21.333 -57 -22z" />
    <glyph glyph-name="hyphen" unicode="-" horiz-adv-x="380" 
d="M34 292l6 22h300l6 -22l-6 -23h-300z" />
    <glyph glyph-name="period" unicode="." horiz-adv-x="179" 
d="M90 -4c-12.667 0 -23.334 4.33301 -32.001 13s-13 19.334 -13 32.001s4.33301 23.334 13 32.001s19.334 13 32.001 13s23.334 -4.33301 32.001 -13s13 -19.334 13 -32.001s-4.33301 -23.334 -13 -32.001s-19.334 -13 -32.001 -13z" />
    <glyph glyph-name="slash" unicode="/" horiz-adv-x="406" 
d="M7 5l361 709l31 -18l-361 -710z" />
    <glyph glyph-name="zero" unicode="0" horiz-adv-x="596" 
d="M298 714c72.667 0 130 -32.5 172 -97.5s63 -153.833 63 -266.5s-21 -201.5 -63 -266.5s-99.333 -97.5 -172 -97.5s-130 32.5 -172 97.5s-63 153.833 -63 266.5s21 201.5 63 266.5s99.333 97.5 172 97.5zM298 684c-51.333 0 -91.666 -29.833 -120.999 -89.5
s-44 -141.167 -44 -244.5s14.667 -184.833 44 -244.5s69.666 -89.5 120.999 -89.5s91.666 29.833 120.999 89.5s44 141.167 44 244.5s-14.667 184.833 -44 244.5s-69.666 89.5 -120.999 89.5z" />
    <glyph glyph-name="one" unicode="1" horiz-adv-x="344" 
d="M263 10l21.001 -0.00195312v-10h-217l1 10h21c14.667 0 27.5 5.33301 38.5 16s16.5 23.334 16.5 38.001v527c0 32.667 -15.333 49 -46 49h-38v10c31.333 4 57.666 10.333 78.999 19s41 23.667 59 45h10v-650c0 -15.333 5.33301 -28.166 16 -38.499s23.667 -15.5 39 -15.5
z" />
    <glyph glyph-name="two" unicode="2" horiz-adv-x="553" 
d="M253 714c66.667 0 119.832 -17.666 159.499 -52.999s59.5 -83.666 59.5 -144.999c0 -38 -9.33301 -76.667 -28 -116c-20.667 -42.667 -41.334 -77 -62.001 -103l-51 -63c-13.333 -16 -28.666 -33.167 -45.999 -51.5l-44.5 -46.5l-43 -43.5l-36.5 -36.5h230
c28.667 0 50.834 6 66.501 18s32.5 34.333 50.5 67h10l-48 -141h-410v10c70.667 65.333 141 142.666 211 231.999c36.667 47.333 66.834 95.166 90.501 143.499s35.5 90.5 35.5 126.5c0 54 -12.667 96.167 -38 126.5s-59.666 45.5 -102.999 45.5
c-48.667 0 -86.834 -13 -114.501 -39s-40.834 -62.333 -39.501 -109l-10 -1l-18 114c26 26 63.667 45 113 57c22.667 5.33301 44.667 8 66 8z" />
    <glyph glyph-name="three" unicode="3" horiz-adv-x="503" 
d="M61 641c42 47.333 99.3311 70.9961 171.998 70.9961c52 0 95.167 -13.667 129.5 -41s51.5 -62.333 51.5 -105s-14.333 -80.667 -43 -114s-60 -51.666 -94 -54.999c42.667 -7.33301 79.334 -26.833 110.001 -58.5s46 -69.667 46 -114s-10 -83.5 -30 -117.5
c-42 -71.333 -108.667 -117 -200 -137c-25.333 -5.33301 -49.833 -8 -73.5 -8s-46.834 2 -69.501 6l2 10h10c48.667 0 94.834 9.66699 138.501 29s79.167 47.833 106.5 85.5s41 81.834 41 132.501s-18.667 89.834 -56 117.501s-87 41.5 -149 41.5l2 10h1
c46.667 0 88.667 14.667 126 44c18 14 31.833 31.5 41.5 52.5s14.5 42.833 14.5 65.5c0 36.667 -10.667 66.834 -32 90.501s-52.166 35.5 -92.499 35.5s-71.333 -11.833 -93 -35.5s-32.5 -53.167 -32.5 -88.5v-10h-10z" />
    <glyph glyph-name="four" unicode="4" horiz-adv-x="583" 
d="M416 249v-186c0 -14.667 5.33301 -27.167 16 -37.5s23.667 -15.5 39 -15.5h11v-10h-198l1 10h10c15.333 0 28.333 5 39 15s16.334 22.333 17.001 37v187h-311v10l366 455h10v-410h43c17.333 0 29.166 1.33301 35.499 4s12.833 8 19.5 16h10l-21 -75h-87zM351 304v292
l-236 -292h236z" />
    <glyph glyph-name="five" unicode="5" horiz-adv-x="498" 
d="M108 451c37.333 8 71.1699 12.001 101.503 12.001s58.5 -4.66699 84.5 -14c86 -30.667 129 -92 129 -184c0 -37.333 -6.16699 -71.166 -18.5 -101.499s-27.5 -55.333 -45.5 -75s-38.333 -37.5 -61 -53.5s-45.667 -28.333 -69 -37c-59.333 -20.667 -103 -31 -131 -31
c-16 0 -32 0.666992 -48 2l2 10h12.5c7.66699 0 20.667 2.33301 39 7s38.166 11.5 59.499 20.5s42.5 21.167 63.5 36.5s40.167 32.666 57.5 51.999c42.667 46.667 64 102 64 166c0 37.333 -11.667 69.666 -35 96.999c-28.667 33.333 -72.334 50 -131.001 50
c-34.667 0 -73.334 -6.33301 -116.001 -19l-9 4l78 271l198 15c36 0 62.333 16.667 79 50h10l-33 -105l-235 -15z" />
    <glyph glyph-name="six" unicode="6" horiz-adv-x="560" 
d="M296 367c-48 0 -85.001 -17.333 -111.001 -52l-6 9c20.667 24.667 44.667 44.167 72 58.5s55 21.5 83 21.5s54.333 -6 79 -18s45.667 -32.667 63 -62c19.333 -35.333 29 -78.333 29 -129s-18.667 -98 -56 -142c-38 -45.333 -90.5 -68 -157.5 -68
s-121.5 25.167 -163.5 75.5s-63 118.166 -63 203.499c0 72.667 12.333 143.667 37 213c24 66.667 61 123.667 111 171c50.667 48.667 113.334 77.334 188.001 86.001l4 -7c-46.667 -14.667 -87.167 -37 -121.5 -67s-61.833 -65.667 -82.5 -107
c-40.667 -80 -61 -173.667 -61 -281c0 -78 13.333 -140.333 40 -187s63.667 -70 111 -70s82.333 17.833 105 53.5s34 78.167 34 127.5c0 72.667 -20.667 122.667 -62 150c-20 14 -44 21 -72 21z" />
    <glyph glyph-name="seven" unicode="7" horiz-adv-x="502" 
d="M120 645c-19.333 0 -34.667 -4.83203 -46 -14.499s-21 -24.834 -29 -45.501h-10l28 113h400l-108 -288c-20 -54 -44.5 -123.833 -73.5 -209.5s-49.167 -152.5 -60.5 -200.5h-70l163 414l88 231h-282z" />
    <glyph glyph-name="eight" unicode="8" horiz-adv-x="552" 
d="M433 38.5c-39.333 -35 -91.8359 -52.5 -157.503 -52.5s-118 17.5 -157 52.5s-58.5 79.167 -58.5 132.5c0 46 12.333 84.5 37 115.5s60.334 57.5 107.001 79.5c-72 52 -108 112.333 -108 181c0 48 16.333 87.667 49 119c33.333 32 77 48 131 48s97.5 -15 130.5 -45
s49.5 -71.333 49.5 -124c0 -40 -10.667 -75.167 -32 -105.5s-51.666 -52.5 -90.999 -66.5c60.667 -30 102.334 -60 125.001 -90c22.667 -31.333 34 -67.333 34 -108c0 -56 -19.667 -101.5 -59 -136.5zM170.997 560c0 -65.333 34.335 -117.667 103.002 -157l22 -12
c56.667 42 85 96 85 162c0 40 -9.33301 71.833 -28 95.5s-44.334 35.5 -77.001 35.5s-58.334 -12.167 -77.001 -36.5s-28 -53.5 -28 -87.5zM134.999 167.999c0 -46 12.499 -82.832 37.499 -110.499s60 -41.5 105 -41.5s79.5 14.167 103.5 42.5s36 62.5 36 102.5
c0 24 -2.83301 41.833 -8.5 53.5s-10.667 20.834 -15 27.501s-10 13.167 -17 19.5s-13.167 11.666 -18.5 15.999s-12.5 9 -21.5 14l-21.5 12c-5.33301 3 -13 6.83301 -23 11.5c-23.333 12 -42.666 22.667 -57.999 32c-66 -44.667 -99 -104.334 -99 -179.001z" />
    <glyph glyph-name="nine" unicode="9" horiz-adv-x="560" 
d="M381 612c-26 46.667 -63.0059 69.998 -111.006 69.998s-83.167 -17.333 -105.5 -52s-33.5 -77.834 -33.5 -129.501s11.833 -93 35.5 -124s57.834 -46.5 102.501 -46.5s80.334 17.333 107.001 52l5 -9c-19.333 -24.667 -42.666 -43.834 -69.999 -57.501
s-54.666 -20.5 -81.999 -20.5c-67.333 0 -116.333 27 -147 81c-17.333 31.333 -26 69.666 -26 114.999c0 64.667 19.333 117.334 58 158.001c40 42 93.167 63 159.5 63s119.833 -25.167 160.5 -75.5s61 -121.166 61 -212.499c0 -68 -12 -135.667 -36 -203
c-23.333 -67.333 -60 -125.333 -110 -174c-51.333 -49.333 -114.666 -77.333 -189.999 -84l-3 7c45.333 12.667 85.333 33.834 120 63.501s62.334 65.167 83.001 106.5c40.667 80.667 61 167.834 61 261.501s-13 163.834 -39 210.501z" />
    <glyph glyph-name="colon" unicode=":" horiz-adv-x="170" 
d="M90 379c-12.667 0 -23.334 4.33301 -32.001 13s-13 19.167 -13 31.5s4.33301 23 13 32s19.334 13.5 32.001 13.5s23.334 -4.5 32.001 -13.5s13 -19.667 13 -32s-4.33301 -22.833 -13 -31.5s-19.334 -13 -32.001 -13zM90 -4c-12.667 0 -23.334 4.33301 -32.001 13
s-13 19.334 -13 32.001s4.33301 23.334 13 32.001s19.334 13 32.001 13s23.334 -4.33301 32.001 -13s13 -19.334 13 -32.001s-4.33301 -23.334 -13 -32.001s-19.334 -13 -32.001 -13z" />
    <glyph glyph-name="semicolon" unicode=";" horiz-adv-x="600" 
d="M90 407c-12.667 0 -23.334 4.5 -32.001 13.5s-13 19.667 -13 32s4.33301 22.833 13 31.5s19.334 13 32.001 13s23.334 -4.33301 32.001 -13s13 -19.167 13 -31.5s-4.33301 -23 -13 -32s-19.334 -13.5 -32.001 -13.5zM45 -81c18 6 30.167 14.3311 36.5 24.998
s9.5 18.667 9.5 24c0 16.667 -6.66699 32.334 -20 47.001c-10 12 -15.667 20.333 -17 25c-2 9.33301 -1.33301 18 2 26c6 13.333 17 20 33 20c20 0 33.667 -9.16699 41 -27.5s11 -33.166 11 -44.499c0 -34.667 -12.333 -61.667 -37 -81c-16.667 -14 -35.667 -21.333 -57 -22
z" />
    <glyph glyph-name="less" unicode="&#x3c;" horiz-adv-x="481" 
d="M442 523v-48l-343 -165l343 -166v-48l-402 191v45z" />
    <glyph glyph-name="equal" unicode="=" horiz-adv-x="481" 
d="M40 364v45h402v-45h-402zM40 189v45h402v-45h-402z" />
    <glyph glyph-name="greater" unicode="&#x3e;" horiz-adv-x="481" 
d="M40 523l402 -191v-45l-402 -191v48l342 166l-342 165v48z" />
    <glyph glyph-name="question" unicode="?" horiz-adv-x="413" 
d="M168 714c60.667 0 108.333 -15.0029 143 -45.0029s52 -71.667 52 -125c0 -41.333 -13.333 -78.333 -40 -111c-22 -27.333 -44 -51 -66 -71c-39.333 -36 -63 -67.667 -71 -95c-4.66699 -13.333 -7 -28.166 -7 -44.499s5.66699 -32.166 17 -47.499l-6 -5
c-29.333 27.333 -44 59.333 -44 96c0 30 16.667 64.333 50 103l42 50c33.333 40.667 50 82.334 50 125.001c0 59.333 -18.667 100.333 -56 123c-18 11.333 -39.333 17 -64 17c-40 0 -71.333 -13.5 -94 -40.5s-34 -62.833 -34 -107.5v-6h-10l-10 95
c15.333 28 35.833 49.833 61.5 65.5s54.5 23.5 86.5 23.5zM180.499 -4.00293c-12.333 0 -23 4.33301 -32 13s-13.5 19.334 -13.5 32.001s4.5 23.334 13.5 32.001s19.667 13 32 13s22.833 -4.33301 31.5 -13s13 -19.334 13 -32.001s-4.33301 -23.334 -13 -32.001
s-19.167 -13 -31.5 -13z" />
    <glyph glyph-name="at" unicode="@" horiz-adv-x="977" 
d="M59 240c0 49.333 10.6729 101.001 32.0059 155.001c43.333 102.667 112.333 181 207 235c73.333 42 154 63 242 63c138.667 0 241.667 -43.667 309 -131c45.333 -59.333 68 -127.666 68 -204.999c0 -54.667 -8.33301 -106.167 -25 -154.5s-36.334 -89.833 -59.001 -124.5
s-49 -65.667 -79 -93c-62 -56.667 -140 -91.334 -234 -104.001c-18 -2.66699 -39.667 -4 -65 -4c-79.333 0 -166.333 20 -261 60l-4 10c81.333 -30 156.666 -45 225.999 -45c32.667 0 64 3.33301 94 10c93.333 20.667 170.166 66.5 230.499 137.5s96.833 157.5 109.5 259.5
c2 20 3 39.333 3 58c0 69.333 -16.667 129 -50 179c-52 77.333 -135.333 116 -250 116c-75.333 0 -145.333 -18.667 -210 -56c-82 -48 -144.333 -120 -187 -216c-27.333 -60.667 -41 -117.334 -41 -170.001c0 -30 5 -55 15 -75c13.333 -28 34 -42 62 -42
c40 0 86.667 35.667 140 107c7.33301 9.33301 17.833 23.833 31.5 43.5s22.5 32.167 26.5 37.5l127 173c31.333 38 49.666 63.667 54.999 77h7l41 -404c2 -15.333 6.83301 -27 14.5 -35s16.5 -12 26.5 -12h5l-1 -7h-158l1 7h7c8.66699 0 17.667 3.5 27 10.5
s14 15.833 14 26.5l-6 107h-164c-40 -56 -74.333 -96.667 -103 -122c-28.667 -26 -60.334 -39 -95.001 -39s-64.834 15.5 -90.501 46.5s-38.5 71.167 -38.5 120.5zM538.006 451.001l-136 -194h147z" />
    <glyph glyph-name="A" unicode="A" horiz-adv-x="712" 
d="M715 10h8v-10h-225v10h9c14 0 24.5 4.5 31.5 13.5s10.5 17.5 10.5 25.5s-1.33301 16 -4 24l-64 170h-270l-67 -171c-2.66699 -8 -4 -15.833 -4 -23.5s3.5 -16 10.5 -25s17.5 -13.5 31.5 -13.5h9v-10h-201v10h9c16.667 0 33 5.33301 49 16s29 26.334 39 47.001l226 538
c24.667 54 37 88.333 37 103h9l268 -641c9.33301 -20.667 22 -36.334 38 -47.001s32.667 -16 50 -16zM223 273h246l-120 321z" />
    <glyph glyph-name="B" unicode="B" horiz-adv-x="586" 
d="M304 0h-244l1 10h12c17.333 0 32.166 6 44.499 18s18.833 26.667 19.5 44v556c0 17.333 -6.33301 32 -19 44s-27.667 18 -45 18h-12l-1 10h199c68.667 0 122 -15.167 160 -45.5s57 -70.833 57 -121.5c0 -40 -10.667 -73.167 -32 -99.5s-47.333 -43.833 -78 -52.5
c52.667 -8 94.334 -29.667 125.001 -65s46 -79.833 46 -133.5s-20.5 -97.5 -61.5 -131.5s-98.167 -51 -171.5 -51zM202 36l98 -0.00195312h2c50.667 0 90 13.833 118 41.5s42 66.834 42 117.501c0 28.667 -4.83301 53.834 -14.5 75.501s-21.834 38.834 -36.501 51.501
c-38.667 32 -96.667 48 -174 48h-1v9h9.5c5.66699 0 13.834 0.666992 24.501 2s22.667 3.66602 36 6.99902s25.333 8.66602 36 15.999s20.667 16 30 26c19.333 22 29 54.833 29 98.5s-12.5 77.834 -37.5 102.501s-61.167 37 -108.5 37h-53v-632z" />
    <glyph glyph-name="C" unicode="C" horiz-adv-x="760" 
d="M159.5 87c-66.333 66.667 -99.5 154.499 -99.5 263.499s33.167 196.833 99.5 263.5s154.166 100 263.499 100c89.333 0 168.333 -22.667 237 -68l20 -141h-9c-14.667 57.333 -44.334 101.5 -89.001 132.5s-97.667 46.5 -159 46.5
c-87.333 0 -157.166 -30.333 -209.499 -91s-78.5 -141 -78.5 -241s25.833 -180.5 77.5 -241.5s119.834 -92.5 204.501 -94.5c74.667 0 137 20.333 187 61c54 44 86.667 115.667 98 215h8l-12 -157c-60.667 -99.333 -154.334 -149 -281.001 -149
c-105.333 0.666992 -191.166 34.334 -257.499 101.001z" />
    <glyph glyph-name="D" unicode="D" horiz-adv-x="807" 
d="M658.5 603.5c66.333 -64.333 99.501 -148.832 99.501 -253.499s-33.167 -189.167 -99.5 -253.5s-152.833 -96.5 -259.5 -96.5h-339v10h13c17.333 0 32.166 6.16699 44.499 18.5s18.833 27.166 19.5 44.499v560c0 16 -6.5 29.5 -19.5 40.5s-27.833 16.5 -44.5 16.5h-12
l-1 10h339c106.667 0 193.167 -32.167 259.5 -96.5zM202.001 670.001v-639.999h197c56 0 105.5 13.333 148.5 40s76.333 64.167 100 112.5s35.5 104.166 35.5 167.499c0 96 -26.167 173.333 -78.5 232s-120.833 88 -205.5 88h-197z" />
    <glyph glyph-name="E" unicode="E" 
d="M73 10c17.333 0 32.168 6.16895 44.501 18.502s18.833 27.166 19.5 44.499v560c-2 16 -9 29.5 -21 40.5s-26.333 16.5 -43 16.5h-12l-1 10h293c20.667 0 43.167 2 67.5 6s41.5 8 51.5 12v-126h-10v18c0 16 -5.5 29.667 -16.5 41s-24.167 17.333 -39.5 18h-204v-309h169
c13.333 0.666992 24.666 5.66699 33.999 15s14 21 14 35v14h10v-158h-10v15c0 13.333 -4.5 24.666 -13.5 33.999s-20.167 14.333 -33.5 15h-170v-299h143c49.333 0 87 11 113 33s47.667 54.667 65 98h10l-58 -162h-415v10h13z" />
    <glyph glyph-name="F" unicode="F" horiz-adv-x="541" 
d="M472 689l0.00195312 -83.998h-10v15c0 13.333 -4.66699 24.833 -14 34.5s-21 14.5 -35 14.5h-211v-309h169c13.333 0.666992 24.666 5.66699 33.999 15s14 20.666 14 33.999v15h10v-158h-10v15c0 13.333 -4.5 24.666 -13.5 33.999s-20.167 14.333 -33.5 15h-170v-257
c0 -17.333 6.33301 -32.166 19 -44.499s27.667 -18.5 45 -18.5h13v-10h-219v10h13c17.333 0 32.166 6.16699 44.499 18.5s18.833 27.166 19.5 44.499v560c0 16 -6.5 29.5 -19.5 40.5s-27.833 16.5 -44.5 16.5h-12l-1 10h293c20.667 0 43.167 2 67.5 6s41.5 8 51.5 12v-29z
" />
    <glyph glyph-name="G" unicode="G" horiz-adv-x="798" 
d="M159.5 87c-66.333 66.667 -99.5 154.333 -99.5 263s33.167 196.5 99.5 263.5s152.833 100.5 259.5 100.5c92 0 173 -22.667 243 -68l20 -141h-9c-14.667 57.333 -44.167 101.5 -88.5 132.5s-99.5 46.5 -165.5 46.5c-84.667 0 -153.167 -30.667 -205.5 -92
s-78.5 -142 -78.5 -242s26.167 -180.5 78.5 -241.5s120.833 -91.833 205.5 -92.5c43.333 0 84.5 7.66699 123.5 23s73.167 36.666 102.5 63.999v177c0 14.667 -4.5 25.834 -13.5 33.501s-21.5 11.5 -37.5 11.5h-16v10h196v-10h-15c-16.667 0 -29.334 -3.83301 -38.001 -11.5
s-12.667 -18.834 -12 -33.501v-165c-17.333 -22.667 -38 -43 -62 -61s-56.167 -33.833 -96.5 -47.5s-84.166 -20.5 -131.499 -20.5c-106.667 0.666992 -193.167 34.334 -259.5 101.001z" />
    <glyph glyph-name="H" unicode="H" horiz-adv-x="813" 
d="M547 10c17.333 0 32.167 5.99805 44.5 17.998s18.833 26.667 19.5 44v259h-409v-258c0 -17.333 6.33301 -32.166 19 -44.499s27.667 -18.5 45 -18.5h13v-10h-219v10h13c17.333 0 32.166 6.16699 44.499 18.5s18.833 27.166 19.5 44.499v555
c-0.666992 17.333 -7.16699 32 -19.5 44s-27.166 18 -44.499 18h-13v10h219v-10h-13c-17.333 0 -32.166 -6 -44.499 -18s-18.833 -26.667 -19.5 -44v-267h409v267c-0.666992 24 -11.334 42 -32.001 54c-10 5.33301 -20.667 8 -32 8h-13v10h219v-10h-13
c-17.333 0 -32.166 -6.16699 -44.499 -18.5s-18.833 -27.166 -19.5 -44.499v-554c0.666992 -17.333 7.16699 -32.166 19.5 -44.499s27.166 -18.5 44.499 -18.5h13v-10h-219v10h13z" />
    <glyph glyph-name="I" unicode="I" horiz-adv-x="338" 
d="M73 10c17.333 0 32.165 6.16699 44.498 18.5s18.833 27.166 19.5 44.499v555c-0.666992 17.333 -7.16699 32 -19.5 44s-27.166 18 -44.499 18h-13v10h219v-10h-13c-17.333 0 -32.166 -6 -44.499 -18s-18.833 -26.667 -19.5 -44v-555
c0 -17.333 6.33301 -32.166 19 -44.499s27.667 -18.5 45 -18.5h13v-10h-219v10h13z" />
    <glyph glyph-name="J" unicode="J" horiz-adv-x="324" 
d="M266 690c-24 0 -42.335 -10.333 -55.002 -31c-5.33301 -9.33301 -8.33301 -20 -9 -32v-627c0 -56 -17.5 -103.333 -52.5 -142s-78.167 -58 -129.5 -58v9c32.667 11.333 60.334 35.833 83.001 73.5s34 77.834 34 120.501v624
c-0.666992 17.333 -7.16699 32.166 -19.5 44.499s-27.166 18.5 -44.499 18.5h-13v10h219v-10h-13z" />
    <glyph glyph-name="K" unicode="K" horiz-adv-x="657" 
d="M266 10h12.999v-10h-219v10h13c17.333 0 32.166 6.16699 44.499 18.5s18.833 27.166 19.5 44.499v555c-0.666992 17.333 -7.16699 32 -19.5 44s-27.166 18 -44.499 18h-13v10h219v-10h-13c-17.333 0 -32.166 -6 -44.499 -18s-18.833 -26.667 -19.5 -44v-555
c0 -17.333 6.33301 -32.166 19 -44.499s27.667 -18.5 45 -18.5zM667.999 0l-43.001 0.000976562c-68 0 -118 19 -150 57l-241 291l236 296c5.33301 6.66699 8 12.667 8 18s-1 10 -3 14c-5.33301 10 -15 15 -29 15h-10v9h211v-9h-4c-44 0 -80 -15.667 -108 -47l-235 -272
l273 -321c26.667 -26.667 58.334 -40.334 95.001 -41.001v-10z" />
    <glyph glyph-name="L" unicode="L" horiz-adv-x="562" 
d="M73 10c17.333 0 32.166 6.16895 44.499 18.502s18.833 27.166 19.5 44.499v554c-0.666992 17.333 -7.16699 32.166 -19.5 44.499s-27.166 18.5 -44.499 18.5h-13v10h219v-10h-13c-24 0 -42.333 -10.333 -55 -31c-6 -10 -9 -20.667 -9 -32v-596h143c49.333 0 87 11 113 33
s47.667 54.667 65 98h10l-58 -162h-415v10h13z" />
    <glyph glyph-name="M" unicode="M" horiz-adv-x="931" 
d="M900 10l15.999 0.00195312v-10h-217v9h15c11.333 0 21 4.5 29 13.5s11.333 18.833 10 29.5l-45 503l-210 -467c-18.667 -40.667 -30 -74.667 -34 -102h-10l-256 555l-43 -489c-1.33301 -10.667 2 -20.5 10 -29.5s17.333 -13.5 28 -13.5h16v-9h-194v10h16
c18.667 0 34.834 5.66699 48.501 17s21.834 26.666 24.501 45.999l75 641h10l279 -603l273 603h9l77 -641c3.33301 -26.667 16.666 -45.334 39.999 -56.001c10 -4.66699 21 -7 33 -7z" />
    <glyph glyph-name="N" unicode="N" horiz-adv-x="841" 
d="M778 690c-16.667 0 -31 -5.83203 -43 -17.499s-18.333 -25.834 -19 -42.501v-516c0 -38.667 2.33301 -75.334 7 -110.001l2 -18h-9l-545 582v-498c0.666992 -23.333 11 -40.666 31 -51.999c9.33301 -5.33301 19.333 -8 30 -8h19v-10h-206v10h19
c16.667 0 31 5.83301 43 17.5s18 26.167 18 43.5v519c0 40.667 -2.33301 77 -7 109l-2 16h10l545 -582v496c-0.666992 17.333 -7 31.833 -19 43.5s-26.333 17.5 -43 17.5h-19v10h206v-10h-18z" />
    <glyph glyph-name="O" unicode="O" horiz-adv-x="838" 
d="M429 714c106.667 0 193.334 -33.5 260.001 -100.5s100 -154.833 100 -263.5s-33.333 -196.5 -100 -263.5s-153.334 -100.5 -260.001 -100.5s-193.167 33.5 -259.5 100.5s-99.5 154.833 -99.5 263.5s33.167 196.5 99.5 263.5s152.833 100.5 259.5 100.5zM429.5 16
c85 0 153.334 30.666 205.001 91.999s77.5 142 77.5 242c0 66 -11.667 124.333 -35 175s-56.5 89.834 -99.5 117.501s-92.5 41.5 -148.5 41.5c-84.667 0 -152.834 -30.667 -204.501 -92s-77.5 -142 -77.5 -242s25.833 -180.667 77.5 -242s120 -92 205 -92z" />
    <glyph glyph-name="P" unicode="P" 
d="M527 507c0 -29.333 -5.99902 -56.668 -17.999 -82.001c-22 -47.333 -60.667 -80.333 -116 -99c-19.333 -6.66699 -36 -10 -50 -10c-41.333 0 -77 7.66699 -107 23v10c48.667 -10.667 93.667 -5.33398 135 15.999c36.667 18.667 61.667 49.334 75 92.001
c4 13.333 6 26 6 38v22c-1.33301 46.667 -13.666 83.834 -36.999 111.501s-56 41.5 -98 41.5h-115v-597c0.666992 -17.333 7.16699 -32.166 19.5 -44.499s27.166 -18.5 44.499 -18.5h13v-10h-219v10h13c17.333 0 32.166 6.16699 44.499 18.5s18.833 27.166 19.5 44.499v559
c-2 16.667 -9 30.5 -21 41.5s-26.333 16.5 -43 16.5h-12l-1 10h261c64 0 114.333 -17.167 151 -51.5s55 -81.5 55 -141.5z" />
    <glyph glyph-name="Q" unicode="Q" horiz-adv-x="837" 
d="M1224 -188.5c-30.667 -17 -61.668 -29.6699 -93.001 -38.0029s-59 -12.5 -83 -12.5c-77.333 0 -150.666 15 -219.999 45c-24.667 10.667 -66.334 31 -125.001 61c-131.333 67.333 -229.666 107 -294.999 119c-103.333 2.66699 -187.166 37.334 -251.499 104.001
s-96.5 153.834 -96.5 261.501s33.167 195 99.5 262s152.833 100.5 259.5 100.5s193 -33.5 259 -100.5s99 -154.833 99 -263.5c0 -92.667 -24.667 -170.667 -74 -234s-115.333 -103.666 -198 -120.999c72.667 -22 183 -64.667 331 -128c70.667 -29.333 142.667 -44 216 -44
c41.333 0 83 5 125 15c58.667 15.333 107.667 41.333 147 78l4 -5c-5.33301 -14 -16.333 -29.833 -33 -47.5s-40.334 -35 -71.001 -52zM212.999 591.997c-52 -61.333 -78 -142.001 -78 -242.001s26.167 -180.667 78.5 -242s121 -92 206 -92s153.333 30.667 205 92
s77.5 142 77.5 242c0 66 -11.667 124.333 -35 175s-56.5 89.834 -99.5 117.501s-92.5 41.5 -148.5 41.5c-85.333 0 -154 -30.667 -206 -92z" />
    <glyph glyph-name="R" unicode="R" horiz-adv-x="677" 
d="M266 669l-64.001 0.00292969v-596c0 -17.333 6.16699 -32.166 18.5 -44.499s27.5 -18.5 45.5 -18.5h12l1 -10h-219v10h13c17.333 0 32.166 6 44.499 18s18.833 26.667 19.5 44v555c-0.666992 17.333 -7.16699 32.166 -19.5 44.499s-27.166 18.5 -44.499 18.5h-13v10h270
c60.667 0 108.334 -16.833 143.001 -50.5s52 -77.334 52 -131.001s-16.5 -100 -49.5 -139s-73.167 -58.5 -120.5 -58.5c10 -4.66699 21.833 -13.834 35.5 -27.501s25.834 -27.834 36.501 -42.501c57.333 -82 94.666 -132.5 111.999 -151.5s29.666 -32 36.999 -39
s15.333 -13.833 24 -20.5s17.334 -12 26.001 -16c19.333 -9.33301 40 -14 62 -14v-10h-55c-28.667 0 -55.334 5.16699 -80.001 15.5s-43.167 21 -55.5 32s-23 21.667 -32 32s-33.833 44.833 -74.5 103.5s-64.334 92.167 -71.001 100.5s-13.667 16.5 -21 24.5
c-21.333 22.667 -42.666 34 -63.999 34v10c5.33301 -0.666992 12.333 -1 21 -1s19.334 0.333008 32.001 1c82.667 2 134.667 36.667 156 104c4 13.333 6 25.833 6 37.5v22.5c-1.33301 44.667 -13 80.667 -35 108s-51.667 42 -89 44c-16 0.666992 -36 1 -60 1z" />
    <glyph glyph-name="S" unicode="S" horiz-adv-x="475" 
d="M61 41c-2 9.33301 -3.00098 27.333 -3.00098 54s5 55 15 85h9c-0.666992 -7.33301 -1 -14.666 -1 -21.999c0 -40.667 12.333 -74.5 37 -101.5s57.334 -40.5 98.001 -40.5c42 0 76.5 12.667 103.5 38s40.5 57.166 40.5 95.499s-13 69.5 -39 93.5l-192 178
c-36 33.333 -54 73.666 -54 120.999s15.833 87.833 47.5 121.5s74.5 50.5 128.5 50.5c25.333 0 54 -3.33301 86 -10h39v-123h-9c0 31.333 -10.833 56.333 -32.5 75s-49.5 28 -83.5 28s-62.5 -11.333 -85.5 -34s-34.5 -51 -34.5 -85s13.333 -63.333 40 -88l197 -182
c33.333 -30.667 50 -72.667 50 -126s-17 -97.166 -51 -131.499s-79.333 -51.5 -136 -51.5c-29.333 0 -60.5 4.5 -93.5 13.5s-58.5 22.833 -76.5 41.5z" />
    <glyph glyph-name="T" unicode="T" horiz-adv-x="618" 
d="M589 611c0 16 -5.66895 29.833 -17.002 41.5s-24.666 17.834 -39.999 18.501h-190v-599c0.666992 -17.333 7.16699 -32 19.5 -44s27.166 -18 44.499 -18h13v-10h-219v10h13c17.333 0 32.166 6 44.499 18s18.833 26.333 19.5 43v600h-190
c-16 -0.666992 -29.5 -6.83398 -40.5 -18.501s-16.5 -25.5 -16.5 -41.5v-17l-10 -1v126c10 -4 27.333 -8 52 -12s47.334 -6 68.001 -6h338c32.667 0 59.834 2.5 81.501 7.5s34.834 8.5 39.501 10.5v-126l-10 1v17z" />
    <glyph glyph-name="U" unicode="U" horiz-adv-x="785" 
d="M735 690l-16 0.000976562c-14 0 -26.167 -4.5 -36.5 -13.5s-15.833 -20.167 -16.5 -33.5v-396c0 -78 -24.667 -141 -74 -189s-115 -72 -197 -72s-148.5 23.833 -199.5 71.5s-76.5 110.5 -76.5 188.5v394c0 20 -8.66699 34.667 -26 44c-8 4 -17 6 -27 6h-16v10h203v-10
h-16c-14.667 0 -27 -4.5 -37 -13.5s-15.333 -20.5 -16 -34.5v-382c0 -72.667 19.5 -131.334 58.5 -176.001s91.167 -67 156.5 -67s118.333 21.167 159 63.5s61 97.833 61 166.5v395c-0.666992 14 -6 25.5 -16 34.5s-22.333 13.5 -37 13.5h-16v10h185v-10z" />
    <glyph glyph-name="V" unicode="V" horiz-adv-x="740" 
d="M750 690l-9 0.000976562c-22.667 0 -43.334 -9 -62.001 -27c-10.667 -9.33301 -19 -21 -25 -35l-241 -539c-24.667 -54 -37 -88.333 -37 -103h-9l-281 641c-9.33301 21.333 -22.166 37.166 -38.499 47.499s-32.833 15.5 -49.5 15.5h-8v10h225v-10h-9
c-20 0 -33.333 -9.33301 -40 -28c-1.33301 -4 -2 -8.66699 -2 -14s1.66699 -12 5 -20l209 -524l218 524c2.66699 8 4 15.833 4 23.5s-3.5 16 -10.5 25s-17.5 13.5 -31.5 13.5h-9v10h201v-10z" />
    <glyph glyph-name="W" unicode="W" horiz-adv-x="982" 
d="M992 690l-7.99902 -0.000976562c-24.667 0 -46.334 -9 -65.001 -27c-10.667 -9.33301 -18.334 -21 -23.001 -35l-166 -529c-13.333 -42 -20.666 -79 -21.999 -111h-9l-204 572l-152 -461c-12.667 -41.333 -19.667 -78.333 -21 -111h-9l-227 641
c-8 20 -20.333 35.167 -37 45.5s-33.667 15.5 -51 15.5h-8v10h222v-10h-9c-14 0 -24.5 -4.5 -31.5 -13.5s-10.5 -17.5 -10.5 -25.5s1 -15.333 3 -22l152 -487l186 574l9 -1l197 -553l134 468c2 7.33301 3 14.833 3 22.5s-3.33301 15.834 -10 24.501s-17 13 -31 13h-9v10h197
v-10z" />
    <glyph glyph-name="X" unicode="X" horiz-adv-x="662" 
d="M659 10l14 0.000976562v-10h-244v10h12c14.667 0 26 6.66699 34 20c4.66699 7.33301 7 14.333 7 21s-1.66699 13.334 -5 20.001l-154 243l-154 -242c-4 -6.66699 -6 -13.5 -6 -20.5s2.33301 -13.833 7 -20.5c8.66699 -14 20 -21 34 -21h13v-10h-227v10h14
c20 0 39 5.66699 57 17s33 25.333 45 42l191 285l-175 277c-16 23.333 -36.333 40.333 -61 51c-13.333 5.33301 -26.666 8 -39.999 8h-14v10h242v-10h-12c-14 0 -25.333 -6.66699 -34 -20c-4.66699 -7.33301 -7 -14.333 -7 -21s1.66699 -13.334 5 -20.001l138 -216l136 215
c4 6.66699 6 13.5 6 20.5s-2 13.833 -6 20.5c-8 14 -19.333 21 -34 21h-12v10h225v-10h-14c-20 0 -38.833 -5.66699 -56.5 -17s-32.5 -25.333 -44.5 -42l-175 -258l194 -305c16 -22.667 36.333 -39.334 61 -50.001c13.333 -5.33301 26.666 -8 39.999 -8z" />
    <glyph glyph-name="Y" unicode="Y" horiz-adv-x="661" 
d="M672 690l-13.999 -0.00195312c-20 0 -38.833 -5.5 -56.5 -16.5s-32.5 -24.833 -44.5 -41.5l-197 -320v-239c0 -17.333 6.16699 -32.166 18.5 -44.499s27.5 -18.5 45.5 -18.5h12v-10h-218v10h13c17.333 0 32.166 6 44.499 18s18.833 26.667 19.5 44v241l-191 319
c-10 16 -24.167 29.667 -42.5 41s-37.5 17 -57.5 17h-14v10h246v-10h-13c-14.667 0 -26 -6.66699 -34 -20c-4 -7.33301 -6 -14.5 -6 -21.5s1.66699 -13.833 5 -20.5l150 -280l160 281c3.33301 6.66699 5 13.334 5 20.001s-2.33301 13.667 -7 21c-8 13.333 -19.333 20 -34 20
h-12v10h222v-10z" />
    <glyph glyph-name="Z" unicode="Z" horiz-adv-x="651" 
d="M584 0h-523.999v9l420 662h-337c-16.667 -0.666992 -30.667 -6.66699 -42 -18s-17 -25.333 -17 -42v-18h-10v126c10 -4 27.667 -8 53 -12s43.166 -6 53.499 -6h15.5h278c32.667 0 57.667 1.83301 75 5.5s27.666 6.16699 30.999 7.5v-9l-428 -675h318
c35.333 0 64.333 11.333 87 34s39.334 52.667 50.001 90h10z" />
    <glyph glyph-name="bracketleft" unicode="[" horiz-adv-x="332" 
d="M120 -90v812h169v-10l-104 -20v-752l107 -20v-10h-172z" />
    <glyph glyph-name="backslash" unicode="\" horiz-adv-x="406" 
d="M7 696l31 18l361 -709l-31 -19z" />
    <glyph glyph-name="bracketright" unicode="]" horiz-adv-x="332" 
d="M43 722h169v-812h-172v10l107 20v752l-104 20v10z" />
    <glyph glyph-name="asciicircum" unicode="^" horiz-adv-x="523" 
d="M232 371h60l196 -189h-63l-163 154l-164 -154h-63z" />
    <glyph glyph-name="underscore" unicode="_" horiz-adv-x="500" 
d="M0 -90v30h500v-30h-500z" />
    <glyph glyph-name="grave" unicode="`" horiz-adv-x="439" 
d="M240 753l-7 -6.99902c-54 25.333 -107.667 53.666 -161 84.999c9.33301 18.667 23 36.334 41 53.001c42 -40.667 84.333 -84.334 127 -131.001z" />
    <glyph glyph-name="a" unicode="a" horiz-adv-x="663" 
d="M660 10h8v-10h-205v10h8c12.667 0 22.334 4.33301 29.001 13s10 16.834 10 24.501s-1.33301 15.167 -4 22.5l-55 133h-253l-55 -130c-3.33301 -8.66699 -5 -16.834 -5 -24.501s3.33301 -16 10 -25s16.667 -13.5 30 -13.5h8v-10h-191v10h8c14 0 28.167 4.83301 42.5 14.5
s26.166 24.167 35.499 43.5c146 312 222 475.333 228 490c11.333 28 17.333 46.667 18 56h9l247 -546c19.333 -38.667 45 -58 77 -58zM211 233h228l-112 274z" />
    <glyph glyph-name="b" unicode="b" horiz-adv-x="570" 
d="M452 517c10 -19.333 15.001 -42.665 15.001 -69.998s-11 -52.5 -33 -75.5s-47.667 -38.167 -77 -45.5c48.667 -5.33301 88.834 -23 120.501 -53s47.5 -62.833 47.5 -98.5s-6.83301 -64.834 -20.5 -87.501s-31.834 -40 -54.501 -52c-43.333 -23.333 -92.333 -35 -147 -35
h-248v10h12c16.667 0 30.667 5.16699 42 15.5s17.333 23.166 18 38.499v472c-0.666992 22 -10.667 37.667 -30 47c-8.66699 4.66699 -18.667 7 -30 7h-12v10h204c99.333 0 163.666 -27.667 192.999 -83zM454.001 168.001c0 99.333 -77.667 149 -233 149v10
c117.333 0 176 41 176 123c0 80 -46.333 120 -139 120h-68v-540h112c45.333 0 82 11.5 110 34.5s42 57.5 42 103.5z" />
    <glyph glyph-name="c" unicode="c" horiz-adv-x="705" 
d="M138.5 71c-59 56 -88.499 132.499 -88.499 229.499s29.5 173.5 88.5 229.5s139.5 84 241.5 84c41.333 0 83 -5.33301 125 -16s78.333 -25.334 109 -44.001l22 -142h-9c-28.667 114.667 -111.334 172 -248.001 172c-79.333 0 -142 -25.333 -188 -76s-69 -120 -69 -208
c0 -57.333 10.333 -107.166 31 -149.499s50.667 -75.166 90 -98.499s85 -35 137 -35s97.5 7.83301 136.5 23.5s71.333 41.5 97 77.5s40.167 80.667 43.5 134h9l-11 -137c-26 -40 -63.667 -71.5 -113 -94.5s-103.333 -34.5 -162 -34.5c-102 0.666992 -182.5 29 -241.5 85z
" />
    <glyph glyph-name="d" unicode="d" horiz-adv-x="760" 
d="M710 300c0 -92.667 -28.832 -165.835 -86.499 -219.502s-135.834 -80.5 -234.501 -80.5h-334v10h13c16 0 29.333 5.33301 40 16s16.334 23.334 17.001 38.001v472c-0.666992 16 -6.5 29 -17.5 39s-24.5 15 -40.5 15h-12v10h334c65.333 0 122.166 -12 170.499 -36
s85.5 -58.667 111.5 -104s39 -98.666 39 -159.999zM190.001 569.999v-539.998h199c76.667 0 137.334 24.167 182.001 72.5s67 114.166 67 197.499s-22.333 149.166 -67 197.499s-105.334 72.5 -182.001 72.5h-199z" />
    <glyph glyph-name="e" unicode="e" horiz-adv-x="546" 
d="M69 10c16 0 29.5 5.16504 40.5 15.498s16.833 22.833 17.5 37.5v475c0 14.667 -5.66699 27 -17 37s-25 15 -41 15h-14v10h292c27.333 0 51.333 2 72 6s34 7.33301 40 10v-114l-11 1v15c0 14 -4.66699 26 -14 36s-21.333 15 -36 15h-208v-254h171c13.333 0 23.5 4 30.5 12
s10.5 18 10.5 30v13h11v-140h-11v13c0 18.667 -7 31.334 -21 38.001c-5.33301 2 -11 3.33301 -17 4h-174v-254h157c30.667 0 56.5 5.33301 77.5 16s37 23.334 48 38.001s22.167 34 33.5 58h10l-55 -143h-406v10h14z" />
    <glyph glyph-name="f" unicode="f" horiz-adv-x="523" 
d="M452 518c0 22.667 -9.66406 38.333 -28.9971 47c-6.66699 2.66699 -13.667 4 -21 4h-211v-254h174c13.333 0 23.333 4 30 12s10 18 10 30v13h12v-140h-12v13c0 16 -5.33301 27.667 -16 35c-6 4 -13.333 6.33301 -22 7h-176v-221c0.666992 -18 8.66699 -32.667 24 -44
c10 -6.66699 21.667 -10 35 -10h14v-10h-209v10h14c16 0 29.667 5.16699 41 15.5s17.333 22.833 18 37.5v475c-0.666992 20.667 -10.334 35.667 -29.001 45c-9.33301 4.66699 -19.333 7 -30 7h-14v10h136h159c19.333 0 40.666 1.66699 63.999 5s39.666 7 48.999 11v-114
l-11 1v15z" />
    <glyph glyph-name="g" unicode="g" horiz-adv-x="742" 
d="M139.5 71.5c-59.667 56.333 -89.5 132.669 -89.5 229.002s29.833 172.666 89.5 228.999s136.667 84.5 231 84.5s174.5 -20 240.5 -60l22 -142h-9c-14 58.667 -41.167 102 -81.5 130s-97.333 42 -171 42s-133.667 -25.5 -180 -76.5s-69.5 -120.167 -69.5 -207.5
s23.333 -156.5 70 -207.5s111.167 -76.5 193.5 -76.5s153.166 29 212.499 87l1 133c0.666992 12 -3.16602 21.5 -11.499 28.5s-19.833 10.5 -34.5 10.5h-14v10h183v-10h-14c-30 0 -45 -13.333 -45 -40v-120c-28 -34.667 -66.5 -64.834 -115.5 -90.501
s-105.5 -38.5 -169.5 -38.5c-99.333 0.666992 -178.833 29.167 -238.5 85.5z" />
    <glyph glyph-name="h" unicode="h" horiz-adv-x="746" 
d="M500 10c15.333 0 28.665 5.16504 39.998 15.498s17.333 22.833 18 37.5v218h-369v-218c0.666992 -14.667 6.66699 -27.167 18 -37.5s24.666 -15.5 39.999 -15.5h12v-10h-204v10h12c16 0 29.5 5.33301 40.5 16s16.833 23.334 17.5 38.001v472
c-0.666992 14.667 -6.66699 27.334 -18 38.001s-24.666 16 -39.999 16h-12v10h204v-10h-12c-15.333 0 -28.666 -5.16699 -39.999 -15.5s-17.333 -22.833 -18 -37.5v-226h369v225c0 14.667 -4.33301 26 -13 34c-14 13.333 -29 20 -45 20h-12v10h204v-10h-12
c-15.333 0 -28.666 -5 -39.999 -15s-17.333 -22.333 -18 -37v-475c0.666992 -14.667 5 -25.667 13 -33c14.667 -13.333 29.667 -20 45 -20h12v-10h-204v10h12z" />
    <glyph glyph-name="i" unicode="i" horiz-adv-x="336" 
d="M69 10c18 0 33.667 5.33105 47 15.998s20 23.334 20 38.001v472c0 14.667 -6.66699 27.334 -20 38.001s-29.333 16 -48 16h-13v10h226v-10h-13c-18 0 -33.5 -5 -46.5 -15s-20.167 -22.333 -21.5 -37v-475c0.666992 -14.667 7.66699 -27.167 21 -37.5s29 -15.5 47 -15.5
h13l1 -10h-227v10h14z" />
    <glyph glyph-name="j" unicode="j" horiz-adv-x="309" 
d="M261 590c-24.667 0 -43.3359 -9.00098 -56.0029 -27.001c-5.33301 -8 -8.33301 -17 -9 -27v-536c0 -48.667 -18.167 -90.5 -54.5 -125.5s-79.166 -52.5 -128.499 -52.5v10c32.667 10 60.667 31.333 84 64s35 67.334 35 104.001v540
c-1.33301 14 -8.16602 25.833 -20.499 35.5s-27.166 14.5 -44.499 14.5h-12l-1 10h220v-10h-13z" />
    <glyph glyph-name="k" unicode="k" horiz-adv-x="624" 
d="M629 0l-37.001 0.000976562c-65.333 0 -114.333 19 -147 57l-220 241l215 253c7.33301 9.33301 8.5 18.166 3.5 26.499s-13.5 12.5 -25.5 12.5h-9v10h204v-10h-4c-40.667 0 -73 -12 -97 -36l-218 -233l248 -270c12 -14.667 24.333 -25 37 -31s29.334 -9.33301 50.001 -10
v-10zM248.999 10.001l11 -0.00195312v-10h-205v10h12c16 0 29.667 5.33301 41 16s17.333 23.334 18 38.001v472c-0.666992 14.667 -6.66699 27.334 -18 38.001s-25 16 -41 16h-12v10h205v-10h-12c-21.333 0 -38 -8.66699 -50 -26c-5.33301 -8 -8 -17 -8 -27v-474
c0 -14.667 5.83301 -27.167 17.5 -37.5s25.5 -15.5 41.5 -15.5z" />
    <glyph glyph-name="l" unicode="l" horiz-adv-x="536" 
d="M69 10c16 0 29.501 5.16602 40.501 15.499s16.833 22.833 17.5 37.5v473c-0.666992 14.667 -6.83398 27.334 -18.501 38.001s-25.5 16 -41.5 16h-12v10h207v-10h-12c-16 0 -29.833 -5.33301 -41.5 -16s-17.5 -23.334 -17.5 -38.001v-505h156
c30.667 0 56.667 5.33301 78 16s37.5 23.334 48.5 38.001s21.833 34 32.5 58h10l-55 -143h-406v10h14z" />
    <glyph glyph-name="m" unicode="m" horiz-adv-x="878" 
d="M856 10l14.9971 -0.000976562v-10h-208v9h15c10 0 18.833 3.83301 26.5 11.5s10.834 16.834 9.50098 27.501l-52 412l-189 -372c-18.667 -40.667 -30.334 -74.667 -35.001 -102h-10l-241 465l-45 -403c-1.33301 -10 1.83398 -19 9.50098 -27s16.834 -12 27.501 -12h14v-9
h-185v10h15c24 0 42.667 8.66699 56 26c6.66699 8.66699 10.667 19 12 31l78 547h10l264 -508l255 508h9l81 -549c2.66699 -16.667 10.334 -30 23.001 -40s27.667 -15 45 -15z" />
    <glyph glyph-name="n" unicode="n" horiz-adv-x="779" 
d="M727 590c-14.667 0 -27.3311 -4.83203 -37.998 -14.499s-16.334 -21.5 -17.001 -35.5v-426c0 -38.667 2.33301 -75.334 7 -110.001l2 -18h-9l-520 493v-417c0 -14.667 5.33301 -27 16 -37s23.667 -15 39 -15h17v-10h-189v10h17c15.333 0 28.333 5 39 15s16 22.333 16 37
v428c0 40.667 -2.33301 77 -7 109l-2 16l11 -1l519 -489v415c-1.33301 14 -7.33301 25.833 -18 35.5s-23.334 14.5 -38.001 14.5h-17v10h189v-10h-17z" />
    <glyph glyph-name="o" unicode="o" horiz-adv-x="774" 
d="M387.5 614c61.667 0 118.167 -13.165 169.5 -39.498s92.166 -63.5 122.499 -111.5s45.5 -102.333 45.5 -163s-15.167 -115 -45.5 -163s-71.166 -85.167 -122.499 -111.5s-104 -39.5 -158 -39.5s-101.667 7.66699 -143 23s-77.166 36.666 -107.499 63.999
s-54.333 60.666 -72 99.999s-26.5 85.5 -26.5 138.5s15.167 103.5 45.5 151.5s71.166 85.167 122.499 111.5s107.833 39.5 169.5 39.5zM387 16.002c74.667 0 137.334 26.5 188.001 79.5s76 121.167 76 204.5s-25.333 151.5 -76 204.5s-113.334 79.5 -188.001 79.5
s-137.167 -26.5 -187.5 -79.5s-75.5 -121.167 -75.5 -204.5s25.167 -151.5 75.5 -204.5s112.833 -79.5 187.5 -79.5z" />
    <glyph glyph-name="p" unicode="p" horiz-adv-x="553" 
d="M229 284c15.333 -4 29.3311 -6 41.998 -6s23 0.333008 31 1s19.333 2.83398 34 6.50098s28 9.5 40 17.5c28 17.333 48.667 44.666 62 81.999c4.66699 13.333 7 31.333 7 54c0 40.667 -14 72.667 -42 96s-66.667 35 -116 35h-97v-506
c0.666992 -21.333 10.334 -37 29.001 -47c8.66699 -4.66699 18.334 -7 29.001 -7h14v-10h-207v10h14c16 0 29.5 5.16699 40.5 15.5s16.833 22.833 17.5 37.5v474c-0.666992 15.333 -6.5 28 -17.5 38s-24.5 15 -40.5 15h-14v10h234c70 0 125.5 -15.333 166.5 -46
s61.5 -72 61.5 -124c0 -37.333 -8.66699 -70 -26 -98c-34 -54.667 -86.667 -82 -158 -82c-35.333 0 -70 8 -104 24v10z" />
    <glyph glyph-name="q" unicode="q" horiz-adv-x="777" 
d="M953 -153c101.333 0 180.668 26.335 238.001 79.002l3 -4c-4.66699 -12 -14.5 -25.667 -29.5 -41s-35.833 -31 -62.5 -47c-54 -30.667 -110.667 -46 -170 -46c-60.667 0 -120.667 12.667 -180 38c-24.667 10 -61.334 27.667 -110.001 53
c-116 60.667 -201.667 96.334 -257 107.001c-95.333 0 -175 29.333 -239 88s-96 134 -96 226c0 45.333 8.66699 87.666 26 126.999s40.833 72.666 70.5 99.999s64.834 48.666 105.501 63.999s87.5 23 140.5 23s104.667 -13.167 155 -39.5s90.166 -63.5 119.499 -111.5
s44 -102.333 44 -163c0 -77.333 -23.167 -143.5 -69.5 -198.5s-106.5 -90.5 -180.5 -106.5c57.333 -16.667 156.333 -53 297 -109c64.667 -26 129.667 -39 195 -39zM124.002 300.002c0 -83.333 24.5 -151.5 73.5 -204.5s110 -79.5 183 -79.5s134.167 26.5 183.5 79.5
s74 121.167 74 204.5s-24.667 151.5 -74 204.5s-110.5 79.5 -183.5 79.5s-134 -26.5 -183 -79.5s-73.5 -121.167 -73.5 -204.5z" />
    <glyph glyph-name="r" unicode="r" horiz-adv-x="627" 
d="M242 569l-53 0.000976562v-505c0.666992 -20.667 10 -36.334 28 -47.001c8.66699 -4.66699 18.334 -7 29.001 -7h13l1 -10h-205v10h14c15.333 0 28.5 5.16699 39.5 15.5s16.5 22.833 16.5 37.5v475c0 14.667 -5.5 27 -16.5 37s-24.167 15 -39.5 15h-14v10h251
c62.667 0 112.167 -14.333 148.5 -43s54.5 -66.334 54.5 -113.001s-14.667 -85.667 -44 -117s-66.666 -49.333 -111.999 -54c21.333 -9.33301 47 -35.333 77 -78c-0.666992 0 10.833 -14.667 34.5 -44s42.667 -52.166 57 -68.499s26.166 -28.833 35.499 -37.5
c24.667 -23.333 53 -35 85 -35v-10h-31c-52.667 -0 -94 10.333 -124 31c-22.667 15.333 -43.334 34.333 -62.001 57l-50.5 70.5l-47.5 66.5c-36 44.667 -69.667 67 -101 67v10c78 0 125 4 141 12c22 11.333 37 23.333 45 36c16.667 26.667 25 56 25 88
c0 40.667 -12 72 -36 94s-56.333 34 -97 36c-18 0.666992 -38.667 1 -62 1z" />
    <glyph glyph-name="s" unicode="s" horiz-adv-x="462" 
d="M58 33c-2 8 -3.00195 24.333 -3.00195 49s4.33301 49.667 13 75h12c-0.666992 -6 -1 -12 -1 -18c0 -36 11.833 -65.5 35.5 -88.5s56.5 -34.5 98.5 -34.5c44 0 78.333 10.167 103 30.5s37 46.666 37 78.999s-12 59.166 -36 80.499l-200 154c-32 27.333 -48 64 -48 110
c0 26 7.16699 50 21.5 72s34.333 39.5 60 52.5s55.834 19.5 90.501 19.5s65.334 -3 92.001 -9h33l2 -109h-11c0 28 -9.66699 49.667 -29 65s-47 23 -83 23s-65.667 -9.16699 -89 -27.5s-35 -42 -35 -71s13 -54.167 39 -75.5l202 -156c30.667 -25.333 46 -60.666 46 -105.999
s-17.167 -83.666 -51.5 -114.999s-76.166 -47 -125.499 -47c-32.667 0 -65.334 4 -98.001 12s-57.667 19.667 -75 35z" />
    <glyph glyph-name="t" unicode="t" horiz-adv-x="578" 
d="M322 571v-508.001c0.666992 -20.667 10.667 -36 30 -46c8.66699 -4.66699 18.334 -7 29.001 -7h11v-10h-206v10h12c16 0 29.667 5.33301 41 16s17.333 23.334 18 38.001v507h-181c-15.333 0 -27.5 -5 -36.5 -15s-13.5 -22 -13.5 -36v-16h-11v113
c13.333 -5.33301 32.166 -9.33301 56.499 -12s42.5 -4 54.5 -4h326c48 0 85.333 5.33301 112 16v-113h-11v16c0 14 -4.66699 26 -14 36s-21.333 15 -36 15h-181z" />
    <glyph glyph-name="u" unicode="u" horiz-adv-x="700" 
d="M665 590h-15.002c-18 0 -31.667 -7 -41 -21c-4 -6 -6.33301 -13 -7 -21v-337c0 -69.333 -22.167 -124.166 -66.5 -164.499s-105.166 -60.5 -182.499 -60.5s-138.333 20 -183 60s-67 94.667 -67 164v337c0 12 -4.66699 22.167 -14 30.5s-20.666 12.5 -33.999 12.5h-15v10
h190v-10h-15c-13.333 0 -24.666 -4.16699 -33.999 -12.5s-14 -18.5 -14 -30.5v-325c0 -64.667 16.5 -115.667 49.5 -153s79.667 -56 140 -56s108.666 17.667 144.999 53s54.5 83.666 54.5 144.999v336c-0.666992 12.667 -5.5 23 -14.5 31s-20.167 12 -33.5 12h-15v10h172
v-10z" />
    <glyph glyph-name="v" unicode="v" horiz-adv-x="663" 
d="M668 590l-8 -0.000976562c-14.667 0 -29 -4.83301 -43 -14.5s-26 -24.167 -36 -43.5c-145.333 -312 -221 -475.333 -227 -490c-11.333 -28 -17.333 -46.667 -18 -56h-9l-247 545c-19.333 39.333 -45 59 -77 59h-8v10h205v-10h-8c-12.667 0 -22.167 -4.5 -28.5 -13.5
s-9.5 -17.167 -9.5 -24.5s1 -15 3 -23l179 -436l184 434c3.33301 8.66699 5 16.834 5 24.501s-3.33301 16 -10 25s-16.667 13.5 -30 13.5h-7v10h190v-10z" />
    <glyph glyph-name="w" unicode="w" horiz-adv-x="899" 
d="M904 590h-7c-40 0 -67.333 -19.667 -82 -59l-145 -432c-14.667 -42 -22.334 -79 -23.001 -111h-10l-186 476l-130 -365c-13.333 -41.333 -20.666 -78.333 -21.999 -111h-9l-210 547c-15.333 36.667 -42 55 -80 55h-8v10h206v-10h-8c-12 0 -21.167 -3.66699 -27.5 -11
s-9.5 -14.666 -9.5 -21.999s1 -14.333 3 -21l133 -407l169 487l10 -1l179 -456l112 371c3.33301 9.33301 5 17.666 5 24.999s-2.66699 15 -8 23s-14.333 12 -27 12h-8v10h183v-10z" />
    <glyph glyph-name="x" unicode="x" horiz-adv-x="626" 
d="M637 0l-237 0.000976562v10h12c13.333 0 23.166 4.5 29.499 13.5s9.5 16.333 9.5 22s-1.66699 11.5 -5 17.5l-138 198l-146 -197c-4.66699 -6 -7 -12 -7 -18s3.16699 -13.5 9.5 -22.5s16.5 -13.5 30.5 -13.5h12v-10h-218v10h13c36 0 67.667 16.333 95 49l186 238
l-169 243c-10 14 -23.833 25.833 -41.5 35.5s-35.834 14.5 -54.501 14.5h-13v10h235v-10h-12c-13.333 0 -23.166 -4.5 -29.499 -13.5s-9.5 -16.333 -9.5 -22s2 -11.5 6 -17.5l127 -182l121 182c4 5.33301 6 11 6 17s-3.16699 13.5 -9.5 22.5s-16.166 13.5 -29.499 13.5h-12
v10h222v-10h-14c-18.667 0 -36.5 -4.83301 -53.5 -14.5s-31.167 -21.834 -42.5 -36.501l-161 -224l179 -256c14.667 -19.333 31.167 -32.333 49.5 -39s33.833 -10 46.5 -10h13v-10z" />
    <glyph glyph-name="y" unicode="y" horiz-adv-x="640" 
d="M645 590l-11.998 0.00195312c-18 0 -35.167 -4.83301 -51.5 -14.5s-29.833 -21.834 -40.5 -36.501l-192 -291v-184c0 -14.667 5.66699 -27.334 17 -38.001s25 -16 41 -16h12v-10h-205v10h12c16 0 29.667 5.33301 41 16s17 23.334 17 38.001v185l-185 291
c-22.667 33.333 -53.334 50 -92.001 50h-12v10h232v-10h-12c-12.667 0 -21.834 -4 -27.501 -12s-8.5 -14.833 -8.5 -20.5s0.666992 -10.834 2 -15.501l146 -259l155 258c2 5.33301 3 10.833 3 16.5s-2.83301 12.5 -8.5 20.5s-15.167 12 -28.5 12h-12v10h209v-10z" />
    <glyph glyph-name="z" unicode="z" horiz-adv-x="608" 
d="M76 520v-16h-11v113c8.66699 -4 24.5 -7.5 47.5 -10.5s44.5 -4.83301 64.5 -5.5h230c20.667 0 43 1.33301 67 4s39.333 5.66699 46 9v-9l-380 -575h274c30.667 0.666992 56.667 6.16699 78 16.5s37.5 22.833 48.5 37.5s21.833 34.334 32.5 59.001h10l-54 -143h-479v9
l373 562h-298c-20 -0.666992 -34.333 -9.33398 -43 -26.001c-4 -8 -6 -16.333 -6 -25z" />
    <glyph glyph-name="braceleft" unicode="{" horiz-adv-x="337" 
d="M192 210l-3 -89.001c0 -60 5.16699 -103.167 15.5 -129.5s22.833 -45.333 37.5 -57s33.334 -20.5 56.001 -26.5l-2 -8c-57.333 0 -100.333 20 -129 60s-43 93 -43 159c0 16.667 1.66699 39 5 67c6 47.333 9 74.5 9 81.5s-1 15.167 -3 24.5c-5.33301 12 -22 19.333 -50 22
v10c30 0.666992 47.667 6 53 16c1.33301 8 2 15.5 2 22.5s-0.666992 15.833 -2 26.5c-9.33301 63.333 -14 105 -14 125c0 66 14.333 119 43 159s71.667 60 129 60l2 -8c-45.333 -12 -75 -36.333 -89 -73c-13.333 -33.333 -20 -80.333 -20 -141l2 -87
c0 -30 -2 -50.667 -6 -62c-9.33301 -24.667 -24 -40 -44 -46c29.333 -6.66699 45.666 -31.667 48.999 -75c1.33301 -11.333 2 -21.666 2 -30.999z" />
    <glyph glyph-name="bar" unicode="|" horiz-adv-x="245" 
d="M100 -180v880h45v-880h-45z" />
    <glyph glyph-name="braceright" unicode="}" horiz-adv-x="337" 
d="M146 424l1.99805 87c0 60.667 -5 104.167 -15 130.5s-22.333 45.333 -37 57s-33.334 20.5 -56.001 26.5l2 8c38.667 0 71 -10 97 -30c49.333 -36.667 74 -99.667 74 -189c0 -25.333 -2.33301 -52 -7 -80c-9.33301 -54.667 -11.333 -86 -6 -94
c4.66699 -10 22.334 -15.333 53.001 -16v-10c-28.667 -2.66699 -45.667 -10 -51 -22c-1.33301 -9.33301 -2 -17.5 -2 -24.5s2.16699 -29.333 6.5 -67s6.5 -64.834 6.5 -81.501c0 -66 -14.167 -119 -42.5 -159s-71.166 -60 -128.499 -60l-2 8
c44.667 11.333 74.334 35.333 89.001 72c12.667 34 19 81 19 141l-2 89c0 29.333 2 50 6 62c9.33301 24.667 24.333 39.334 45 44.001c-28.667 8.66699 -45 33.667 -49 75c-1.33301 12.667 -2 23.667 -2 33z" />
    <glyph glyph-name="asciitilde" unicode="~" horiz-adv-x="493" 
d="M458 313c0 -26 -7.66699 -47.333 -23 -64c-22 -23.333 -51.667 -35 -89 -35c-24 0 -52.667 11.333 -86 34c-14 9.33301 -27.667 19 -41 29c-34.667 24 -61.667 36 -81 36s-33.5 -6.33301 -42.5 -19s-13.5 -25.667 -13.5 -39s1 -25.333 3 -36h-45c-2 12 -3 23.333 -3 34
c0 28 7.33301 50.667 22 68c20.667 24.667 48.334 37 83.001 37c29.333 0 65.333 -16.333 108 -49c44.667 -33.333 77.667 -50 99 -50s38.666 8.33301 51.999 25c8.66699 10 13 21 13 33s-2 24 -6 36h45c3.33301 -14.667 5 -28 5 -40z" />
    <glyph glyph-name="exclamdown" unicode="&#xa1;" horiz-adv-x="230" 
d="M115 706c12.667 0 23.334 -4.5 32.001 -13.5s13 -19.667 13 -32s-4.33301 -22.833 -13 -31.5s-19.334 -13 -32.001 -13s-23.334 4.33301 -32.001 13s-13 19.167 -13 31.5s4.33301 23 13 32s19.334 13.5 32.001 13.5zM90 299l21 230h10l20 -230l12 -299h-75z" />
    <glyph glyph-name="cent" unicode="&#xa2;" horiz-adv-x="602" 
d="M115.5 159.5c-43.667 47.667 -65.499 111.832 -65.499 192.499s25.667 145 77 193s121 72 209 72l7 84l30 -1l-6 -85c60 -6 111.333 -22.667 154 -50l18 -122h-7c-20.667 86 -76.667 133.667 -168 143l-39 -481c66.667 0 120.667 16.333 162 49s64 82.667 68 150h8
l-8 -118c-22 -35.333 -53 -62.666 -93 -81.999s-86.667 -29 -140 -29l-7 -84l-29 3l7 83c-74.667 7.33301 -133.834 34.833 -177.501 82.5zM125.001 345.998c0 -91.333 26 -158 78 -200c25.333 -20 56 -32.667 92 -38l39 479c-66.667 0 -118.167 -21 -154.5 -63
s-54.5 -101.333 -54.5 -178z" />
    <glyph glyph-name="sterling" unicode="&#xa3;" 
d="M337 46c96 0 163 37.667 201 113h10l-46 -135c-50 -22.667 -102 -34 -156 -34c-35.333 0 -84.333 9 -147 27c-22.667 6.66699 -45.667 10 -69 10s-44 -9 -62 -27h-10v10c28 22.667 51.833 62 71.5 118s29.834 123 30.501 201h-110l12 36h97
c-0.666992 14.667 -1 28.667 -1 42c0 192 67.333 294.333 202 307c6 0.666992 16.333 1 31 1s33.167 -5 55.5 -15s40.833 -24.333 55.5 -43l-27 -91h-10c1.33301 8.66699 2 17.334 2 26.001c0 29.333 -8.5 52.166 -25.5 68.499s-39.5 24.5 -67.5 24.5
c-29.333 0 -53.333 -6.16699 -72 -18.5s-33 -27.5 -43 -45.5c-20.667 -39.333 -31 -102.666 -31 -189.999c0 -20.667 0.333008 -42.667 1 -66h184l-13 -36h-171c-0.666992 -84.667 -12.334 -147.334 -35.001 -188.001c-12 -21.333 -22.333 -37.333 -31 -48
s-21.334 -23.667 -38.001 -39c20.667 6.66699 42.834 9 66.501 7s40.167 -3.66699 49.5 -5c46.667 -6.66699 78.667 -10 96 -10z" />
    <glyph glyph-name="currency" unicode="&#xa4;" horiz-adv-x="541" 
d="M410 193c-40 -36 -86.667 -54 -140 -54s-100 17.333 -140 52l-59 -59l-21 22l59 58c-35.333 40 -53 86.833 -53 140.5s18 100.5 54 140.5l-60 60l21 21l60 -60c40 34 86.333 51 139 51s99 -17.333 139 -52l61 61l22 -21l-62 -61c34.667 -40 52 -86.5 52 -139.5
s-17 -99.167 -51 -138.5l61 -60l-22 -22zM269.5 169c50.333 0 93.333 17.833 129 53.5s53.5 78.834 53.5 129.501s-17.833 93.834 -53.5 129.501s-78.667 53.5 -129 53.5s-93.5 -17.833 -129.5 -53.5s-54 -78.834 -54 -129.501s18 -93.834 54 -129.501
s79.167 -53.5 129.5 -53.5z" />
    <glyph glyph-name="yen" unicode="&#xa5;" horiz-adv-x="661" 
d="M672 690h-13.999c-20 0 -38.833 -5.5 -56.5 -16.5s-32.5 -24.833 -44.5 -41.5l-134 -217h127v-30h-145l-45 -73v-17h190v-30h-190v-193c0 -17.333 6.33301 -32 19 -44s27.667 -18 45 -18h12v-10h-218v10h13c17.333 0 32.166 6.16699 44.499 18.5
s18.833 27.166 19.5 44.499v192h-190v30h190v18l-43 72h-147v30h129l-130 217c-10 16 -24.167 29.667 -42.5 41s-37.5 17 -57.5 17h-14v10h246v-10h-13c-14.667 0 -26 -6.66699 -34 -20c-4 -7.33301 -6 -14.5 -6 -21.5s1.66699 -13.833 5 -20.5l150 -280l160 281
c3.33301 6.66699 5 13.334 5 20.001s-2.33301 13.667 -7 21c-8 13.333 -19.333 20 -34 20h-12v10h222v-10z" />
    <glyph glyph-name="brokenbar" unicode="&#xa6;" horiz-adv-x="245" 
d="M100 350v350h45v-350h-45zM100 -180v350h45v-350h-45z" />
    <glyph glyph-name="section" unicode="&#xa7;" horiz-adv-x="511" 
d="M404 677c11.333 -12 17 -22.668 17 -32.001c0 -14 -4.33301 -24.333 -13 -31s-18.167 -7.33398 -28.5 -2.00098s-21.166 12.666 -32.499 21.999c-29.333 26.667 -58 40 -86 40c-14.667 0 -32.667 -7.5 -54 -22.5s-32 -33.167 -32 -54.5c0 -45.333 53.667 -122 161 -230
c74 -74.667 111 -157 111 -247c0 -54 -15 -105.333 -45 -154c-25.333 -42 -58.333 -74 -99 -96c-30 -16 -63.5 -24 -100.5 -24s-65.833 11 -86.5 33c-11.333 12 -17 22.667 -17 32c0 15.333 5.33301 27 16 35c3.33301 2.66699 7.5 4 12.5 4s13.167 -3.5 24.5 -10.5
s24 -16.833 38 -29.5c20.667 -17.333 41 -26 61 -26s38.667 6 56 18c23.333 16 35 36.667 35 62c0 50.667 -54.333 128.334 -163 233.001c-44.667 42.667 -74.834 84.834 -90.501 126.501s-23.5 78.167 -23.5 109.5c0 48.667 14.333 98.334 43 149.001
c20.667 34.667 46.334 63 77.001 85c41.333 29.333 83.166 44 125.499 44s73.5 -11.333 93.5 -34zM139 582.999c-23.333 -44 -35 -85.3311 -35 -123.998c0 -68 40 -138.333 120 -211c101.333 -92 152 -169.667 152 -233c0 -10 -1.66699 -20 -5 -30c24 37.333 36 75 36 113
c0 70.667 -39.333 143.667 -118 219c-80 77.333 -127.667 140.333 -143 189c-5.33301 17.333 -8 32.666 -8 45.999s0.333008 23.666 1 30.999z" />
    <glyph glyph-name="dieresis" unicode="&#xa8;" horiz-adv-x="600" 
d="M186 700c-10.667 0 -19.834 3.83301 -27.501 11.5s-11.5 16.834 -11.5 27.501s3.83301 19.834 11.5 27.501s16.834 11.5 27.501 11.5s19.834 -3.83301 27.501 -11.5s11.5 -16.834 11.5 -27.501s-3.83301 -19.834 -11.5 -27.501s-16.834 -11.5 -27.501 -11.5zM374.5 700
c-11 0 -20.167 3.83301 -27.5 11.5s-11 16.834 -11 27.501s3.66699 19.834 11 27.501s16.5 11.5 27.5 11.5s20.333 -3.83301 28 -11.5s11.5 -16.834 11.5 -27.501s-3.83301 -19.834 -11.5 -27.501s-17 -11.5 -28 -11.5z" />
    <glyph glyph-name="copyright" unicode="&#xa9;" horiz-adv-x="848" 
d="M424 714c100.667 0 186.5 -35.5 257.5 -106.5s106.5 -156.833 106.5 -257.5s-35.5 -186.5 -106.5 -257.5s-156.833 -106.5 -257.5 -106.5s-186.5 35.5 -257.5 106.5s-106.5 156.833 -106.5 257.5s35.5 186.5 106.5 257.5s156.833 106.5 257.5 106.5zM424 677
c-59.333 0 -114.166 -14.5 -164.499 -43.5s-90 -68.667 -119 -119s-43.5 -105.166 -43.5 -164.499s14.5 -114.166 43.5 -164.499s68.667 -90 119 -119s105.166 -43.5 164.499 -43.5s114.166 14.5 164.499 43.5s90 68.667 119 119s43.5 105.166 43.5 164.499
s-14.5 114.166 -43.5 164.499s-68.667 90 -119 119s-105.166 43.5 -164.499 43.5zM266.5 191c-43.667 42.667 -65.498 95.833 -65.498 159.5s21.833 116.667 65.5 159s97 63.5 160 63.5s116.833 -14.333 161.5 -43l14 -100h-6c-8.66699 36 -27.834 64.5 -57.501 85.5
s-66.834 31.5 -111.501 31.5s-82.5 -18.833 -113.5 -56.5s-46.5 -84.334 -46.5 -140.001s15.5 -102.167 46.5 -139.5s66.833 -56.333 107.5 -57s74.167 4.33301 100.5 15s48 28.334 65 53.001s26.833 56 29.5 94h6l-7 -97c-17.333 -28.667 -42.5 -51.167 -75.5 -67.5
s-69.5 -24.5 -109.5 -24.5c-65.333 0 -119.833 21.333 -163.5 64z" />
    <glyph glyph-name="ordfeminine" unicode="&#xaa;" horiz-adv-x="368" 
d="M364 383l4.00098 0.000976562v-5h-123v5h5c10 0 17 5.66699 21 17c1.33301 5.33301 0.666016 12 -2.00098 20l-26 66h-123l-29 -67c-4 -10.667 -3.66699 -19.334 1 -26.001s10.667 -10 18 -10h4v-5h-114v5h4c18 0 32.667 11.667 44 35l112 237
c13.333 29.333 20.333 49 21 59h5l135 -294c12 -24.667 26.333 -37 43 -37zM130.001 510.001h104l-50 128z" />
    <glyph glyph-name="guillemotleft" unicode="&#xab;" horiz-adv-x="453" 
d="M215 490l8 -5l-118 -193l119 -197l-9 -5l-175 202zM385 490l8 -5l-118 -193l119 -197l-9 -5l-175 202z" />
    <glyph glyph-name="logicalnot" unicode="&#xac;" horiz-adv-x="601" 
d="M40 397h522v-202h-45v157h-477v45z" />
    <glyph glyph-name="softhyphen" unicode="&#xad;" horiz-adv-x="380" 
d="M34 292l6 22h300l6 -22l-6 -23h-300z" />
    <glyph glyph-name="registered" unicode="&#xae;" horiz-adv-x="245" 
d="M123 701c31.333 0 58 -11 80 -33s33 -48.667 33 -80s-11 -58 -33 -80s-48.667 -33 -80 -33s-58 11 -80 33s-33 48.667 -33 80s11 58 33 80s48.667 33 80 33zM122.5 495c25.667 0 47.667 9.16699 66 27.5s27.5 40.166 27.5 65.499s-9.16699 47.166 -27.5 65.499
s-40.333 27.5 -66 27.5s-47.5 -9.16699 -65.5 -27.5s-27 -40.166 -27 -65.499s9 -47.166 27 -65.499s39.833 -27.5 65.5 -27.5zM156.5 643c7.66699 -6 11.501 -13.501 11.501 -22.501s-2.66699 -16.667 -8 -23s-12.333 -10.166 -21 -11.499
c5.33301 -0.666992 11.166 -6 17.499 -16s11.666 -18 15.999 -24s9.5 -10 15.5 -12v-2h-12c-13.333 0 -22.666 2.66699 -27.999 8s-9 9.33301 -11 12s-4.66699 7 -8 13c-8.66699 16.667 -14.334 25 -17.001 25v2h10c13.333 2.66699 19.833 11.667 19.5 27s-8.5 23 -24.5 23
v0l-12 1v-98c0 -7.33301 3.33301 -11 10 -11h3v-2h-50v2h2c6.66699 0 10.334 3.33301 11.001 10v95c-0.666992 7.33301 -4.33398 11 -11.001 11h-2v2h37h21c12.667 0 22.834 -3 30.501 -9z" />
    <glyph glyph-name="macron" unicode="&#xaf;" horiz-adv-x="600" 
d="M170 703v35h250v-35h-250z" />
    <glyph glyph-name="degree" unicode="&#xb0;" horiz-adv-x="257" 
d="M128.5 664c27 0 50.167 -9.5 69.5 -28.5s29 -42.167 29 -69.5s-9.66699 -50.666 -29 -69.999s-42.5 -29 -69.5 -29s-50.167 9.66699 -69.5 29s-29 42.666 -29 69.999s9.66699 50.5 29 69.5s42.5 28.5 69.5 28.5zM128.5 625c-16.333 0 -30.333 -5.66699 -42 -17
s-17.5 -25.333 -17.5 -42s5.83301 -30.667 17.5 -42s25.667 -17 42 -17s30.333 5.66699 42 17s17.5 25.333 17.5 42s-5.83301 30.667 -17.5 42s-25.667 17 -42 17z" />
    <glyph glyph-name="plusminus" unicode="&#xb1;" horiz-adv-x="481" 
d="M263 402h179v-45h-179v-178h-45v178h-178v45h178v179h45v-179zM40 60v45h402v-45h-402z" />
    <glyph glyph-name="twosuperior" unicode="&#xb2;" horiz-adv-x="375" 
d="M90.5 702c21 8 43.668 11.998 68.001 11.998s47.666 -5 69.999 -15s40.166 -24.333 53.499 -43s20 -39.167 20 -61.5s-4.33301 -43.666 -13 -63.999s-18.167 -37.833 -28.5 -52.5s-25.166 -30.667 -44.499 -48c-24 -21.333 -46.5 -39.666 -67.5 -54.999
s-32.833 -23.666 -35.5 -24.999h138c22.667 0 40 6 52 18c8 8.66699 16.667 21.334 26 38.001h6l-31 -98h-274v7c8 7.33301 25 22.166 51 44.499s46.333 40.666 61 54.999s31.334 31.833 50.001 52.5c36.667 42 55 80.667 55 116s-8.5 61.833 -25.5 79.5
s-38.833 26.5 -65.5 26.5c-28.667 0 -52.334 -8.5 -71.001 -25.5s-27.667 -39.833 -27 -68.5h-7l-11 75c12.667 13.333 29.5 24 50.5 32z" />
    <glyph glyph-name="threesuperior" unicode="&#xb3;" horiz-adv-x="310" 
d="M40 675c20.667 24.667 50.665 37 89.998 37s70.5 -8.33301 93.5 -25s34.5 -36.834 34.5 -60.501s-8.83301 -44.167 -26.5 -61.5s-37.5 -28.333 -59.5 -33c26.667 -3.33301 50 -13.5 70 -30.5s30 -37.833 30 -62.5c0 -58.667 -23.333 -102 -70 -130
c-31.333 -19.333 -67.666 -29 -108.999 -29c-20 0 -41 2 -63 6l1 7h9c51.333 0 94 12.333 128 37s51 60.334 51 107.001c0 57.333 -43.333 86 -130 86l1 6c33.333 0 61 8.33301 83 25s33 37.167 33 61.5s-6.66699 42.5 -20 54.5s-31.666 18 -54.999 18
c-48.667 0 -73 -23.333 -73 -70v-5h-7z" />
    <glyph glyph-name="acute" unicode="&#xb4;" horiz-adv-x="439" 
d="M208 746l-7 6.99902c50.667 54.667 93 98.334 127 131.001c17.333 -18 31 -35.667 41 -53c-43.333 -24.667 -97 -53 -161 -85z" />
    <glyph glyph-name="paragraph" unicode="&#xb6;" horiz-adv-x="520" 
d="M392 670l-0.000976562 -523c0 -39.333 -3.16699 -70 -9.5 -92s-19.166 -44.667 -38.499 -68l-9 8c16.667 28 25.334 58 26.001 90c0.666992 10 1 30 1 60v525h-83v-670c0 -62 -6.66699 -106.333 -20 -133c-14.667 -28.667 -36.667 -50.667 -66 -66l-7 9
c27.333 28 44.333 53.167 51 75.5s10 44.833 10 67.5s-0.333008 38.334 -1 47.001v333c-56.667 0 -103.5 16.667 -140.5 50s-55.5 77.666 -55.5 132.999s18.833 99.833 56.5 133.5s84.167 50.5 139.5 50.5h162h7h9c1.33301 0 4.16602 0.166992 8.49902 0.5s7.83301 1 10.5 2
s6.16699 2 10.5 3s8.33301 2.66699 12 5l11.5 7.5c8 5.33301 16.667 13.666 26 24.999l7 -6c-19.333 -43.333 -54.333 -65.666 -105 -66.999h-13z" />
    <glyph glyph-name="periodcentered" unicode="&#xb7;" horiz-adv-x="170" 
d="M85 305c-12.667 0 -23.334 4.33301 -32.001 13s-13 19.334 -13 32.001s4.33301 23.334 13 32.001s19.334 13 32.001 13s23.334 -4.33301 32.001 -13s13 -19.334 13 -32.001s-4.33301 -23.334 -13 -32.001s-19.334 -13 -32.001 -13z" />
    <glyph glyph-name="cedilla" unicode="&#xb8;" horiz-adv-x="600" 
d="M282 -48c20.667 7.33301 39.332 8.66699 55.999 4c32.667 -8.66699 49 -29 49 -61s-14.667 -55 -44 -69c-17.333 -8 -34.166 -12 -50.499 -12s-31.833 2.33301 -46.5 7l1 10c24 0 45 5 63 15s27 25.333 27 46c0 29.333 -17 44 -51 44c-11.333 0 -22.333 -2.66699 -33 -8
l-5 10l48 63h27z" />
    <glyph glyph-name="onesuperior" unicode="&#xb9;" horiz-adv-x="211" 
d="M191 315v-7h-146v7h14c10 0 18.667 3.5 26 10.5s11 15.5 11 25.5v281c0 22 -10.333 33 -31 33h-25v6c21.333 3.33301 39.333 7.83301 54 13.5s28 15.5 40 29.5h6v-364c0 -9.33301 3.66699 -17.5 11 -24.5s16 -10.5 26 -10.5h14z" />
    <glyph glyph-name="ordmasculine" unicode="&#xba;" horiz-adv-x="412" 
d="M206 714c48.667 0 90.334 -16.667 125.001 -50s52 -74 52 -122s-17.333 -88.667 -52 -122s-76.334 -50 -125.001 -50s-90.167 16.667 -124.5 50s-51.5 74 -51.5 122s17.167 88.667 51.5 122s75.833 50 124.5 50zM206.5 391c35 0 64 14.333 87 43s34.5 64.667 34.5 108
s-11.5 79.333 -34.5 108s-52 43 -87 43s-64 -14.333 -87 -43s-34.5 -64.667 -34.5 -108s11.5 -79.333 34.5 -108s52 -43 87 -43z" />
    <glyph glyph-name="guillemotright" unicode="&#xbb;" horiz-adv-x="453" 
d="M69 90l-9 5l119 197l-118 193l8 5l175 -198zM239 90l-9 5l119 197l-118 193l8 5l175 -198z" />
    <glyph glyph-name="onequarter" unicode="&#xbc;" horiz-adv-x="713" 
d="M578 714l24 -17l-477 -711l-25 16zM211 308h-146v7h14c10 0 18.667 3.5 26 10.5s11 15.5 11 25.5v281c0 22 -10.333 33 -31 33h-25v6c21.333 3.33301 39.333 7.83301 54 13.5s28 15.5 40 29.5h7v-364c0 -9.33301 3.5 -17.5 10.5 -24.5s15.5 -10.5 25.5 -10.5h14v-7z
M617 130l0.000976562 -89c0.666992 -9.33301 4.5 -17.5 11.5 -24.5s15.5 -10.5 25.5 -10.5h7v-7h-132v7h7c10 0 18.5 3.16699 25.5 9.5s10.833 14.5 11.5 24.5v90h-182v6l220 269h6v-242h29c11.333 0 19.166 1 23.499 3s8.83301 5.66699 13.5 11h6l-14 -47h-58zM573.001 163
v160l-128 -160h128z" />
    <glyph glyph-name="onehalf" unicode="&#xbd;" horiz-adv-x="805" 
d="M577 714l24 -17l-477 -711l-25 16zM211 315v-7h-146v7h14c10 0 18.667 3.5 26 10.5s11 15.5 11 25.5v281c0 22 -10.333 33 -31 33h-25v6c14 2 25.667 4.33301 35 7c24 6 43.667 18 59 36h6v-364c0 -9.33301 3.66699 -17.5 11 -24.5s16 -10.5 26 -10.5h14zM583 406
c42 0 77.334 -11.333 106.001 -34s43 -52 43 -88c0 -67.333 -43.667 -134 -131 -200l-35.5 -26.5c-12.333 -9 -19.833 -14.167 -22.5 -15.5h138c18.667 0 33.167 3.83301 43.5 11.5s21.833 22.5 34.5 44.5h6l-31 -98h-274v7l42.5 37.5l49 43
c13 11.667 28.167 26.5 45.5 44.5s31.333 34.333 42 49c25.333 36 38 69.5 38 100.5s-8.5 55.333 -25.5 73s-38.833 26.5 -65.5 26.5c-28.667 0 -52.334 -8.5 -71.001 -25.5s-27.667 -39.833 -27 -68.5h-7l-12 75c13.333 13.333 30.5 24 51.5 32s41.833 12 62.5 12z" />
    <glyph glyph-name="threequarters" unicode="&#xbe;" horiz-adv-x="713" 
d="M621 714l24 -17l-477 -711l-25 16zM40 675c20.667 24.667 50.668 37.001 90.001 37.001s70.5 -8.33301 93.5 -25s34.5 -36.834 34.5 -60.501s-8.83301 -44.167 -26.5 -61.5s-37.5 -28.333 -59.5 -33c37.333 -4.66699 65.666 -20.667 84.999 -48
c10 -13.333 15 -28.333 15 -45c0 -58.667 -23.333 -102 -70 -130c-31.333 -19.333 -67.666 -29 -108.999 -29c-20 0 -41 2 -63 6l1 7h24c13.333 0 30.666 2.83301 51.999 8.5s40.666 14.167 57.999 25.5c36 25.333 54 62 54 110c0 57.333 -43.333 86 -130 86l1 6
c33.333 0 61 8.33301 83 25s33 37.167 33 61.5s-6.66699 42.5 -20 54.5s-31.666 18 -54.999 18c-48.667 0 -73 -23.333 -73 -70v-5h-7zM622.001 130.001l0.000976562 -89c0 -9.33301 3.66699 -17.5 11 -24.5s16 -10.5 26 -10.5h7v-7h-132v7h7c10 0 18.5 3.16699 25.5 9.5
s10.833 14.5 11.5 24.5v90h-182v6l220 269h6v-242h29c11.333 0 19.166 1 23.499 3s8.5 5.66699 12.5 11h7l-14 -47h-58zM578.002 163.001v160l-128 -160h128z" />
    <glyph glyph-name="questiondown" unicode="&#xbf;" horiz-adv-x="433" 
d="M233 704c12.667 0 23.334 -4.33301 32.001 -13s13 -19.334 13 -32.001s-4.33301 -23.334 -13 -32.001s-19.334 -13 -32.001 -13s-23.334 4.33301 -32.001 13s-13 19.334 -13 32.001s4.33301 23.334 13 32.001s19.334 13 32.001 13zM393 75
c-32 -59.333 -83.333 -88.998 -154 -88.998c-36 0 -68.667 6.66699 -98 20c-60.667 28 -91 78 -91 150c0 41.333 13.333 78.333 40 111c22.667 27.333 44.667 51 66 71c39.333 36 63 67.667 71 95c5.33301 13.333 8 28.166 8 44.499s-6 32.166 -18 47.499l6 5
c30 -27.333 45 -59.333 45 -96c0 -30 -17 -64.333 -51 -103l-42 -50c-33.333 -40.667 -50 -82.667 -50 -126s10.667 -77.333 32 -102s51.5 -37 90.5 -37s69.667 13.5 92 40.5s33.5 62.833 33.5 107.5v6h10z" />
    <glyph glyph-name="Agrave" unicode="&#xc0;" horiz-adv-x="712" 
d="M364 771l-7 -6.99902c-54 25.333 -107.667 53.666 -161 84.999c9.33301 18.667 23 36.334 41 53.001c42 -40.667 84.333 -84.334 127 -131.001zM715 10.001l7.99805 -0.000976562v-10h-225v10h9c14 0 24.5 4.5 31.5 13.5s10.5 17.5 10.5 25.5s-1.33301 16 -4 24l-64 170
h-270l-67 -171c-9.33301 -28 -2.66602 -47.333 20.001 -58c6 -2.66699 12 -4 18 -4h9v-10h-201v10h9c16.667 0 33 5.33301 49 16s29 26.334 39 47.001l226 538c24.667 54 37 88.333 37 103h9l268 -641c12.667 -28 31.334 -47 56.001 -57c10 -4 20.667 -6 32 -6zM222.998 273
h246l-120 321z" />
    <glyph glyph-name="Aacute" unicode="&#xc1;" horiz-adv-x="712" 
d="M357 764l-6.99902 6.99902c50.667 54.667 93 98.334 127 131.001c17.333 -18 30.666 -35.667 39.999 -53c-42.667 -24.667 -96 -53 -160 -85zM715.001 9.99902h8v-10h-225v10h9c14 0 24.5 4.5 31.5 13.5s10.5 17.5 10.5 25.5s-1.33301 16 -4 24l-64 170h-270l-67 -171
c-2.66699 -8 -4 -15.833 -4 -23.5s3.5 -16 10.5 -25s17.5 -13.5 31.5 -13.5h9v-10h-201v10h9c16.667 0 33 5.33301 49 16s29 26.334 39 47.001l226 538c24.667 54 37 88.333 37 103h9l268 -641c9.33301 -20.667 22 -36.334 38 -47.001s32.667 -16 50 -16zM223.001 272.999
h246l-120 321z" />
    <glyph glyph-name="Acircumflex" unicode="&#xc2;" horiz-adv-x="712" 
d="M351 890h10l115 -119l-6 -8l-114 66l-105 -66l-6 8zM715 10h8v-10h-225v10h9c14 0 24.5 4.5 31.5 13.5s10.5 17.5 10.5 25.5s-1.33301 16 -4 24l-64 170h-270l-67 -171c-2.66699 -8 -4 -15.833 -4 -23.5s3.5 -16 10.5 -25s17.5 -13.5 31.5 -13.5h9v-10h-201v10h9
c16.667 0 33 5.33301 49 16s29 26.334 39 47.001l226 538c24.667 54 37 88.333 37 103h9l268 -641c9.33301 -20.667 22 -36.334 38 -47.001s32.667 -16 50 -16zM223 273h246l-120 321z" />
    <glyph glyph-name="Atilde" unicode="&#xc3;" horiz-adv-x="712" 
d="M427 809c27.333 0 45.665 11.332 54.998 33.999h10c-3.33301 -33.333 -14.666 -56.666 -33.999 -69.999c-9.33301 -6 -20.666 -9 -33.999 -9s-33.833 7.33301 -61.5 22s-46.5 22 -56.5 22c-24.667 0 -42.667 -13.667 -54 -41h-10c4 26 11.667 46.667 23 62s25 23 41 23
s37.5 -7.16699 64.5 -21.5s45.833 -21.5 56.5 -21.5zM714.999 9.99902h8v-10h-225v10h9c14 0 24.5 4.5 31.5 13.5s10.5 17.5 10.5 25.5s-1.33301 16 -4 24l-64 170h-270l-67 -171c-2.66699 -8 -4 -15.833 -4 -23.5s3.5 -16 10.5 -25s17.5 -13.5 31.5 -13.5h9v-10h-201v10h9
c16.667 0 33 5.33301 49 16s29 26.334 39 47.001l226 538c24.667 54 37 88.333 37 103h9l268 -641c9.33301 -20.667 22 -36.334 38 -47.001s32.667 -16 50 -16zM222.999 272.999h246l-120 321z" />
    <glyph glyph-name="Adieresis" unicode="&#xc4;" horiz-adv-x="712" 
d="M262.5 764c-11 0 -20.333 3.83301 -28 11.5s-11.5 16.834 -11.5 27.501s3.83301 19.834 11.5 27.501s17 11.5 28 11.5s20.333 -3.83301 28 -11.5s11.5 -16.834 11.5 -27.501s-3.83301 -19.834 -11.5 -27.501s-17 -11.5 -28 -11.5zM451 764
c-10.667 0 -19.834 3.83301 -27.501 11.5s-11.5 16.834 -11.5 27.501s3.83301 19.834 11.5 27.501s16.834 11.5 27.501 11.5s19.834 -3.83301 27.501 -11.5s11.5 -16.834 11.5 -27.501s-3.83301 -19.834 -11.5 -27.501s-16.834 -11.5 -27.501 -11.5zM715 10h8v-10h-225v10h9
c14 0 24.5 4.5 31.5 13.5s10.5 17.5 10.5 25.5s-1.33301 16 -4 24l-64 170h-270l-67 -171c-2.66699 -8 -4 -15.833 -4 -23.5s3.5 -16 10.5 -25s17.5 -13.5 31.5 -13.5h9v-10h-201v10h9c16.667 0 33 5.33301 49 16s29 26.334 39 47.001l226 538c24.667 54 37 88.333 37 103h9
l268 -641c9.33301 -20.667 22 -36.334 38 -47.001s32.667 -16 50 -16zM223 273h246l-120 321z" />
    <glyph glyph-name="Aring" unicode="&#xc5;" horiz-adv-x="712" 
d="M715 10l7.99805 0.00292969v-10h-225v10h9c14 0 24.5 4.5 31.5 13.5s10.5 17.5 10.5 25.5s-1.33301 16 -4 24l-64 170h-270l-67 -171c-9.33301 -28 -2.66602 -47.333 20.001 -58c6 -2.66699 12 -4 18 -4h9v-10h-201v10h9c16.667 0 33 5.33301 49 16s29 26.334 39 47.001
l226 538c18.667 40 30.334 70.333 35.001 91c-22 1.33301 -40.333 8.16602 -55 20.499s-22 28.166 -22 47.499s8 35.333 24 48s36.333 19 61 19s45 -6 61 -18s24 -27.833 24 -47.5s-7.16699 -35.834 -21.5 -48.501s-32.5 -19.667 -54.5 -21l262 -629
c9.33301 -20.667 22 -36.334 38 -47.001s32.667 -16 50 -16zM310.998 769.503c0 -16.333 4.16699 -29.166 12.5 -38.499s19 -14 32 -14s23.667 4.66699 32 14s12.5 22.166 12.5 38.499s-4.16699 29.166 -12.5 38.499s-19 14 -32 14s-23.667 -4.66699 -32 -14
s-12.5 -22.166 -12.5 -38.499zM222.998 273.003h246l-120 321z" />
    <glyph glyph-name="AE" unicode="&#xc6;" horiz-adv-x="902" 
d="M802 0l-396.002 0.000976562l1 10h9c13.333 0 24.833 4.66699 34.5 14s14.834 20.666 15.501 33.999v262h-164l-150 -253c-4.66699 -8.66699 -7 -16.167 -7 -22.5s1 -12.166 3 -17.499c5.33301 -11.333 14.666 -17 27.999 -17h3h10v-10h-199v10h7
c16 0 32.833 6.16699 50.5 18.5s31.5 26.5 41.5 42.5l374 584c4 8.66699 3.83301 16.667 -0.5 24s-11.166 11 -20.499 11h-4v10h243c20.667 0 43.334 2 68.001 6s41.667 8 51 12v-113h-10v15c0 13.333 -4.66699 24.833 -14 34.5s-20.666 14.5 -33.999 14.5h-211v-319h169
c13.333 0.666992 24.666 5.66699 33.999 15s14 21 14 35v14h10v-158h-10v15c0 13.333 -4.66699 24.666 -14 33.999s-20.333 14.333 -33 15h-170v-289h164c72 0.666992 123 36.667 153 108h10zM465.998 350.001v248l-147 -248h147z" />
    <glyph glyph-name="Ccedilla" unicode="&#xc7;" horiz-adv-x="760" 
d="M394 -57c20.667 7.33301 39.332 8.66797 55.999 4.00098c32.667 -8.66699 49 -29 49 -61s-14.667 -55 -44 -69c-16.667 -8 -33.167 -12 -49.5 -12s-32.166 2.33301 -47.499 7l1 10c24 0 45 5 63 15s27 25.333 27 46c0 29.333 -17 44 -51 44
c-10.667 0 -21.667 -2.66699 -33 -8l-5 10l44 57c-102 3.33301 -184.833 38.166 -248.5 104.499s-95.5 153.5 -95.5 261.5s33.167 195.333 99.5 262s154.166 100 263.499 100c89.333 0 168.333 -22.667 237 -68l20 -141h-9c-14.667 57.333 -44.334 101.5 -89.001 132.5
s-97.667 46.5 -159 46.5c-87.333 0 -157.166 -30.333 -209.499 -91s-78.5 -141 -78.5 -241s25.833 -180.5 77.5 -241.5s119.834 -92.5 204.501 -94.5c74.667 0 137 20.333 187 61c54 44 86.667 115.667 98 215h8l-12 -157c-58 -95.333 -146.667 -145 -266 -149z" />
    <glyph glyph-name="Egrave" unicode="&#xc8;" 
d="M305 771l-7 -6.99902c-53.333 25.333 -107 53.666 -161 84.999c10 18.667 23.667 36.334 41 53.001c42.667 -40.667 85 -84.334 127 -131.001zM73 10.001c17.333 0 32.168 6.16797 44.501 18.501s18.833 27.166 19.5 44.499v560c-2 16 -9 29.5 -21 40.5
s-26.333 16.5 -43 16.5h-12l-1 10h293c28.667 0 54.167 2.33301 76.5 7s36.5 8.33398 42.5 11.001v-126h-10v18c0 16 -5.5 29.667 -16.5 41s-24.167 17.333 -39.5 18h-204v-309h169c13.333 0.666992 24.666 5.66699 33.999 15s14 21 14 35v14h10v-158h-10v15
c0 13.333 -4.5 24.666 -13.5 33.999s-20.167 14.333 -33.5 15h-170v-299h143c49.333 0 87 11 113 33s47.667 54.667 65 98h10l-58 -162h-415v10h13z" />
    <glyph glyph-name="Eacute" unicode="&#xc9;" 
d="M298 764l-6.99902 6.99902c50.667 54.667 93 98.334 127 131.001c18 -18 31.667 -35.667 41 -53c-42.667 -24.667 -96.334 -53 -161.001 -85zM73.001 9.99902c17.333 0 32.168 6.16797 44.501 18.501s18.833 27.166 19.5 44.499v560c-2 16 -9 29.5 -21 40.5
s-26.333 16.5 -43 16.5h-12l-1 10h293c28.667 0 54.167 2.33301 76.5 7s36.5 8.33398 42.5 11.001v-126h-10v18c0 16 -5.5 29.667 -16.5 41s-24.167 17.333 -39.5 18h-204v-309h169c13.333 0.666992 24.666 5.66699 33.999 15s14 21 14 35v14h10v-158h-10v15
c0 13.333 -4.5 24.666 -13.5 33.999s-20.167 14.333 -33.5 15h-170v-299h143c49.333 0 87 11 113 33s47.667 54.667 65 98h10l-58 -162h-415v10h13z" />
    <glyph glyph-name="Ecircumflex" unicode="&#xca;" 
d="M293 890h10l114 -119l-6 -8l-113 66l-105 -66l-6 8zM73 10c17.333 0 32.167 6.16797 44.5 18.501s18.833 27.166 19.5 44.499v560c-2.66699 22 -13.667 38.667 -33 50c-9.33301 4.66699 -19.666 7 -30.999 7h-12l-1 10h293c28.667 0 54.167 2.33301 76.5 7
s36.5 8.33398 42.5 11.001v-126h-10v18c0 16 -5.5 29.667 -16.5 41s-24.167 17.333 -39.5 18h-204v-309h169c13.333 0.666992 24.666 5.66699 33.999 15s14 21 14 35v14h10v-158h-10v15c0 13.333 -4.5 24.666 -13.5 33.999s-20.167 14.333 -33.5 15h-170v-299h143
c49.333 0 87 11 113 33s47.667 54.667 65 98h10l-58 -162h-415v10h13z" />
    <glyph glyph-name="Edieresis" unicode="&#xcb;" 
d="M204 764c-10.667 0 -19.834 3.83301 -27.501 11.5s-11.5 16.834 -11.5 27.501s3.83301 19.834 11.5 27.501s16.834 11.5 27.501 11.5s19.834 -3.83301 27.501 -11.5s11.5 -16.834 11.5 -27.501s-3.83301 -19.834 -11.5 -27.501s-16.834 -11.5 -27.501 -11.5zM392.5 764
c-11 0 -20.333 3.83301 -28 11.5s-11.5 16.834 -11.5 27.501s3.83301 19.834 11.5 27.501s17 11.5 28 11.5s20.333 -3.83301 28 -11.5s11.5 -16.834 11.5 -27.501s-3.83301 -19.834 -11.5 -27.501s-17 -11.5 -28 -11.5zM73 10c17.333 0 32.168 6.16699 44.501 18.5
s18.833 27.166 19.5 44.499v560c-2.66699 22 -13.667 38.667 -33 50c-10 4.66699 -20.333 7 -31 7h-12l-1 10h293c28.667 0 54.167 2.33301 76.5 7s36.5 8.33398 42.5 11.001v-126h-10v18c0 16 -5.5 29.667 -16.5 41s-24.167 17.333 -39.5 18h-204v-309h169
c13.333 0.666992 24.666 5.66699 33.999 15s14 21 14 35v14h10v-158h-10v15c0 20.667 -9.66699 35.667 -29 45c-5.33301 2.66699 -11.333 4 -18 4h-170v-299h143c49.333 0 87 11 113 33s47.667 54.667 65 98h10l-58 -162h-415v10h13z" />
    <glyph glyph-name="Igrave" unicode="&#xcc;" horiz-adv-x="338" 
d="M176 771l-7 -6.99902c-53.333 25.333 -107 53.666 -161 84.999c10 18.667 23.667 36.334 41 53.001c42.667 -40.667 85 -84.334 127 -131.001zM73 10.001c17.333 0 32.165 6.16699 44.498 18.5s18.833 27.166 19.5 44.499v555c-0.666992 17.333 -7.16699 32 -19.5 44
s-27.166 18 -44.499 18h-13v10h219v-10h-13c-17.333 0 -32.166 -6 -44.499 -18s-18.833 -26.667 -19.5 -44v-555c0 -17.333 6.33301 -32.166 19 -44.499s27.667 -18.5 45 -18.5h13v-10h-219v10h13z" />
    <glyph glyph-name="Iacute" unicode="&#xcd;" horiz-adv-x="338" 
d="M169 764l-6.99902 6.99902c50.667 54.667 93 98.334 127 131.001c18 -18 31.667 -35.667 41 -53c-42.667 -24.667 -96.334 -53 -161.001 -85zM73.001 9.99902c17.333 0 32.165 6.16699 44.498 18.5s18.833 27.166 19.5 44.499v555c-0.666992 17.333 -7.16699 32 -19.5 44
s-27.166 18 -44.499 18h-13v10h219v-10h-13c-17.333 0 -32.166 -6 -44.499 -18s-18.833 -26.667 -19.5 -44v-555c0 -17.333 6.33301 -32.166 19 -44.499s27.667 -18.5 45 -18.5h13v-10h-219v10h13z" />
    <glyph glyph-name="Icircumflex" unicode="&#xce;" horiz-adv-x="338" 
d="M164 890h10l114 -119l-6 -8l-113 66l-105 -66l-6 8zM73 10c17.333 0 32.165 6.16699 44.498 18.5s18.833 27.166 19.5 44.499v555c-0.666992 17.333 -7.16699 32 -19.5 44s-27.166 18 -44.499 18h-13v10h219v-10h-13c-17.333 0 -32.166 -6 -44.499 -18
s-18.833 -26.667 -19.5 -44v-555c0 -17.333 6.33301 -32.166 19 -44.499s27.667 -18.5 45 -18.5h13v-10h-219v10h13z" />
    <glyph glyph-name="Idieresis" unicode="&#xcf;" horiz-adv-x="338" 
d="M75 764c-10.667 0 -19.834 3.83301 -27.501 11.5s-11.5 16.834 -11.5 27.501s3.83301 19.834 11.5 27.501s16.834 11.5 27.501 11.5s19.834 -3.83301 27.501 -11.5s11.5 -16.834 11.5 -27.501s-3.83301 -19.834 -11.5 -27.501s-16.834 -11.5 -27.501 -11.5zM263.5 764
c-11 0 -20.333 3.83301 -28 11.5s-11.5 16.834 -11.5 27.501s3.83301 19.834 11.5 27.501s17 11.5 28 11.5s20.333 -3.83301 28 -11.5s11.5 -16.834 11.5 -27.501s-3.83301 -19.834 -11.5 -27.501s-17 -11.5 -28 -11.5zM73 10c17.333 0 32.165 6.16699 44.498 18.5
s18.833 27.166 19.5 44.499v555c-0.666992 17.333 -7.16699 32 -19.5 44s-27.166 18 -44.499 18h-13v10h219v-10h-13c-17.333 0 -32.166 -6 -44.499 -18s-18.833 -26.667 -19.5 -44v-555c0 -17.333 6.33301 -32.166 19 -44.499s27.667 -18.5 45 -18.5h13v-10h-219v10h13z
" />
    <glyph glyph-name="Eth" unicode="&#xd0;" horiz-adv-x="807" 
d="M660.5 603.5c65 -64.333 97.501 -148.999 97.501 -253.999s-32.5 -189.5 -97.5 -253.5s-150.833 -96 -257.5 -96h-338v10h13c17.333 0 32.166 6.16699 44.499 18.5s18.833 27.166 19.5 44.499v262h-82v30h82v268c0 16 -6.5 29.5 -19.5 40.5s-27.833 16.5 -44.5 16.5h-13
v10h338c106.667 0 192.5 -32.167 257.5 -96.5zM207.001 335.001v-305h196c85.333 0 154.166 29.333 206.499 88s78.5 136 78.5 232s-26.167 173.333 -78.5 232s-121.166 88 -206.499 88h-196v-305h163v-30h-163z" />
    <glyph glyph-name="Ntilde" unicode="&#xd1;" horiz-adv-x="841" 
d="M496 809c28 0 46.665 11.332 55.998 33.999h10c-4 -33.333 -15.667 -56.666 -35 -69.999c-9.33301 -6 -20.666 -9 -33.999 -9s-33.833 7.33301 -61.5 22s-46.167 22 -55.5 22c-25.333 0 -43.666 -13.667 -54.999 -41h-10c4 26 11.667 46.667 23 62s25.166 23 41.499 23
s37.833 -7.16699 64.5 -21.5s45.334 -21.5 56.001 -21.5zM777.998 689.999c-16.667 0 -31 -5.83203 -43 -17.499s-18.333 -25.834 -19 -42.501v-516c0 -38.667 2.33301 -75.334 7 -110.001l2 -18h-9l-545 582v-498c0.666992 -23.333 11 -40.666 31 -51.999
c9.33301 -5.33301 19.333 -8 30 -8h19v-10h-206v10h19c16.667 0 31 5.83301 43 17.5s18 26.167 18 43.5v519c0 40.667 -2.33301 77 -7 109l-2 16h10l545 -582v496c-0.666992 17.333 -7 31.833 -19 43.5s-26.333 17.5 -43 17.5h-19v10h206v-10h-18z" />
    <glyph glyph-name="Ograve" unicode="&#xd2;" horiz-adv-x="838" 
d="M426 771l-7 -6.99902c-53.333 25.333 -107 53.666 -161 84.999c10 18.667 23.667 36.334 41 53.001c42.667 -40.667 85 -84.334 127 -131.001zM419 714.001c106.667 0 193.334 -33.5 260.001 -100.5s100 -154.833 100 -263.5s-33.333 -196.5 -100 -263.5
s-153.334 -100.5 -260.001 -100.5s-193.167 33.5 -259.5 100.5s-99.5 154.833 -99.5 263.5s33.167 196.5 99.5 263.5s152.833 100.5 259.5 100.5zM419.5 16.001c85 0 153.334 30.666 205.001 91.999s77.5 142 77.5 242c0 66 -11.667 124.333 -35 175
s-56.5 89.834 -99.5 117.501s-92.5 41.5 -148.5 41.5c-84.667 0 -152.834 -30.667 -204.501 -92s-77.5 -142 -77.5 -242s25.833 -180.667 77.5 -242s120 -92 205 -92z" />
    <glyph glyph-name="Oacute" unicode="&#xd3;" horiz-adv-x="838" 
d="M429 764l-7 6.99902c50.667 54.667 93 98.334 127 131.001c18 -18 31.667 -35.667 41 -53c-43.333 -24.667 -97 -53 -161 -85zM429 713.999c106.667 0 193.334 -33.5 260.001 -100.5s100 -154.833 100 -263.5s-33.333 -196.5 -100 -263.5
s-153.334 -100.5 -260.001 -100.5s-193.167 33.5 -259.5 100.5s-99.5 154.833 -99.5 263.5s33.167 196.5 99.5 263.5s152.833 100.5 259.5 100.5zM429.5 15.999c85 0 153.334 30.666 205.001 91.999s77.5 142 77.5 242c0 66 -11.667 124.333 -35 175
s-56.5 89.834 -99.5 117.501s-92.5 41.5 -148.5 41.5c-84.667 0 -152.834 -30.667 -204.501 -92s-77.5 -142 -77.5 -242s25.833 -180.667 77.5 -242s120 -92 205 -92z" />
    <glyph glyph-name="Ocircumflex" unicode="&#xd4;" horiz-adv-x="838" 
d="M424 890h10l114 -119l-6 -8l-114 66l-104 -66l-6 8zM429 714c106.667 0 193.334 -33.5 260.001 -100.5s100 -154.833 100 -263.5s-33.333 -196.5 -100 -263.5s-153.334 -100.5 -260.001 -100.5s-193.167 33.5 -259.5 100.5s-99.5 154.833 -99.5 263.5
s33.167 196.5 99.5 263.5s152.833 100.5 259.5 100.5zM429.5 16c85 0 153.334 30.666 205.001 91.999s77.5 142 77.5 242c0 66 -11.667 124.333 -35 175s-56.5 89.834 -99.5 117.501s-92.5 41.5 -148.5 41.5c-84.667 0 -152.834 -30.667 -204.501 -92s-77.5 -142 -77.5 -242
s25.833 -180.667 77.5 -242s120 -92 205 -92z" />
    <glyph glyph-name="Otilde" unicode="&#xd5;" horiz-adv-x="838" 
d="M499 809c28 0 46.667 11.332 56 33.999h10c-4 -33.333 -15.667 -56.666 -35 -69.999c-8.66699 -6 -19.834 -9 -33.501 -9s-34.167 7.33301 -61.5 22s-46 22 -56 22c-25.333 0 -43.333 -13.667 -54 -41h-10c3.33301 26 10.833 46.667 22.5 62s25.5 23 41.5 23
s37.333 -7.16699 64 -21.5s45.334 -21.5 56.001 -21.5zM429 713.999c106.667 0 193.334 -33.5 260.001 -100.5s100 -154.833 100 -263.5s-33.333 -196.5 -100 -263.5s-153.334 -100.5 -260.001 -100.5s-193.167 33.5 -259.5 100.5s-99.5 154.833 -99.5 263.5
s33.167 196.5 99.5 263.5s152.833 100.5 259.5 100.5zM429.5 15.999c85 0 153.334 30.666 205.001 91.999s77.5 142 77.5 242c0 66 -11.667 124.333 -35 175s-56.5 89.834 -99.5 117.501s-92.5 41.5 -148.5 41.5c-84.667 0 -152.834 -30.667 -204.501 -92
s-77.5 -142 -77.5 -242s25.833 -180.667 77.5 -242s120 -92 205 -92z" />
    <glyph glyph-name="Odieresis" unicode="&#xd6;" horiz-adv-x="838" 
d="M335 764c-10.667 0 -19.834 3.83301 -27.501 11.5s-11.5 16.834 -11.5 27.501s3.83301 19.834 11.5 27.501s16.834 11.5 27.501 11.5s19.834 -3.83301 27.501 -11.5s11.5 -16.834 11.5 -27.501s-3.83301 -19.834 -11.5 -27.501s-16.834 -11.5 -27.501 -11.5zM523 764
c-10.667 0 -19.834 3.83301 -27.501 11.5s-11.5 16.834 -11.5 27.501s3.83301 19.834 11.5 27.501s16.834 11.5 27.501 11.5s19.834 -3.83301 27.501 -11.5s11.5 -16.834 11.5 -27.501s-3.83301 -19.834 -11.5 -27.501s-16.834 -11.5 -27.501 -11.5zM429 714
c106.667 0 193.334 -33.5 260.001 -100.5s100 -154.833 100 -263.5s-33.333 -196.5 -100 -263.5s-153.334 -100.5 -260.001 -100.5s-193.167 33.5 -259.5 100.5s-99.5 154.833 -99.5 263.5s33.167 196.5 99.5 263.5s152.833 100.5 259.5 100.5zM429.5 16
c85 0 153.334 30.666 205.001 91.999s77.5 142 77.5 242c0 66 -11.667 124.333 -35 175s-56.5 89.834 -99.5 117.501s-92.5 41.5 -148.5 41.5c-84.667 0 -152.834 -30.667 -204.501 -92s-77.5 -142 -77.5 -242s25.833 -180.667 77.5 -242s120 -92 205 -92z" />
    <glyph glyph-name="multiply" unicode="&#xd7;" horiz-adv-x="415" 
d="M366 436l-126 -126l126 -126l-32 -32l-126 126l-126 -126l-32 32l126 126l-126 126l32 32l126 -126l126 126z" />
    <glyph glyph-name="Oslash" unicode="&#xd8;" horiz-adv-x="828" 
d="M769 350c0 -72 -14.667 -135.666 -44 -190.999s-70.833 -98 -124.5 -128s-115.834 -45 -186.501 -45c-88 0 -162.667 23.667 -224 71l-67 -80l-25 22l66 80c-69.333 67.333 -104 157.666 -104 270.999c0 54 8.5 103.667 25.5 149s40.833 83.666 71.5 114.999
s68.167 55.833 112.5 73.5s92.5 26.5 144.5 26.5c86.667 0 160.334 -22.667 221.001 -68l64 76l26 -22l-64 -76c72 -67.333 108 -158.666 108 -273.999zM605 608.001c-50.667 50.667 -116.332 75.999 -196.999 75.999s-146.834 -30.667 -198.501 -92
s-77.5 -140.166 -77.5 -236.499s22.333 -174.5 67 -234.5zM221.002 95c50.667 -52.667 116.832 -78.999 198.499 -78.999s148.334 30.667 200.001 92s77.5 140.666 77.5 237.999s-23.333 176.333 -70 237z" />
    <glyph glyph-name="Ugrave" unicode="&#xd9;" horiz-adv-x="785" 
d="M409 771l-7 -6.99902c-54 25.333 -107.667 53.666 -161 84.999c9.33301 18.667 23 36.334 41 53.001c42 -40.667 84.333 -84.334 127 -131.001zM735 690.001l-16 0.000976562c-14 0 -26.167 -4.5 -36.5 -13.5s-15.833 -20.167 -16.5 -33.5v-396
c0 -78 -24.667 -141 -74 -189s-115 -72 -197 -72s-148.5 23.833 -199.5 71.5s-76.5 110.5 -76.5 188.5v394c0 20 -8.66699 34.667 -26 44c-8 4 -17 6 -27 6h-16v10h203v-10h-16c-14.667 0 -27 -4.5 -37 -13.5s-15.333 -20.5 -16 -34.5v-382
c0 -72.667 19.5 -131.334 58.5 -176.001s91.167 -67 156.5 -67s118.333 21.167 159 63.5s61 97.833 61 166.5v395c-0.666992 14 -6 25.5 -16 34.5s-22.333 13.5 -37 13.5h-16v10h185v-10z" />
    <glyph glyph-name="Uacute" unicode="&#xda;" horiz-adv-x="785" 
d="M402 764l-6.99902 6.99902c50.667 54.667 93 98.334 127 131.001c17.333 -18 30.666 -35.667 39.999 -53c-42.667 -24.667 -96 -53 -160 -85zM735.001 689.999h-15.998c-14 0 -26.167 -4.5 -36.5 -13.5s-15.833 -20.167 -16.5 -33.5v-396c0 -78 -24.667 -141 -74 -189
s-115 -72 -197 -72s-148.5 23.833 -199.5 71.5s-76.5 110.5 -76.5 188.5v395c0 14 -5.16699 25.667 -15.5 35s-22.833 14 -37.5 14h-16v10h203v-10h-16c-20 0 -35 -7.66699 -45 -23c-4.66699 -7.33301 -7.33398 -15.666 -8.00098 -24.999v-382
c0 -72.667 19.5 -131.334 58.5 -176.001s90.167 -67 153.5 -67c67.333 0 121.333 21.167 162 63.5s61 97.833 61 166.5v395c-0.666992 22 -11.334 36.667 -32.001 44c-6.66699 2.66699 -13.667 4 -21 4h-16v10h185v-10z" />
    <glyph glyph-name="Ucircumflex" unicode="&#xdb;" horiz-adv-x="785" 
d="M396 890h10l115 -119l-6 -8l-114 66l-105 -66l-6 8zM735 690l-15.999 0.000976562c-14 0 -26.167 -4.5 -36.5 -13.5s-15.833 -20.167 -16.5 -33.5v-396c0 -78 -24.667 -141 -74 -189s-115 -72 -197 -72s-148.5 23.833 -199.5 71.5s-76.5 110.5 -76.5 188.5v394
c0 14.667 -5.16699 26.667 -15.5 36s-22.833 14 -37.5 14h-16v10h203v-10h-16c-14.667 0 -27 -4.5 -37 -13.5s-15.333 -20.5 -16 -34.5v-382c0 -72.667 19.5 -131.334 58.5 -176.001s91.167 -67 156.5 -67s118.333 21.167 159 63.5s61 97.833 61 166.5v395
c-0.666992 22 -11.334 36.667 -32.001 44c-6.66699 2.66699 -13.667 4 -21 4h-16v10h185v-10z" />
    <glyph glyph-name="Udieresis" unicode="&#xdc;" horiz-adv-x="785" 
d="M307.5 764c-11 0 -20.333 3.83301 -28 11.5s-11.5 16.834 -11.5 27.501s3.83301 19.834 11.5 27.501s17 11.5 28 11.5s20.333 -3.83301 28 -11.5s11.5 -16.834 11.5 -27.501s-3.83301 -19.834 -11.5 -27.501s-17 -11.5 -28 -11.5zM496 764
c-10.667 0 -19.834 3.83301 -27.501 11.5s-11.5 16.834 -11.5 27.501s3.83301 19.834 11.5 27.501s16.834 11.5 27.501 11.5s19.834 -3.83301 27.501 -11.5s11.5 -16.834 11.5 -27.501s-3.83301 -19.834 -11.5 -27.501s-16.834 -11.5 -27.501 -11.5zM735 690h-15.998
c-14 0 -26.167 -4.5 -36.5 -13.5s-15.833 -20.167 -16.5 -33.5v-396c0 -78 -24.667 -141 -74 -189s-115 -72 -197 -72s-148.5 23.833 -199.5 71.5s-76.5 110.5 -76.5 188.5v394c0 20 -8.66699 34.667 -26 44c-8 4 -17 6 -27 6h-16v10h203v-10h-16
c-20 0 -35 -7.66699 -45 -23c-4.66699 -7.33301 -7.33398 -15.666 -8.00098 -24.999v-382c0 -72.667 19.5 -131.334 58.5 -176.001s90.167 -67 153.5 -67c67.333 0 121.333 21.167 162 63.5s61 97.833 61 166.5v395c-0.666992 22 -11.334 36.667 -32.001 44
c-6.66699 2.66699 -13.667 4 -21 4h-16v10h185v-10z" />
    <glyph glyph-name="Yacute" unicode="&#xdd;" horiz-adv-x="661" 
d="M340 764l-6.99902 6.99902c50.667 54.667 93 98.334 127 131.001c18 -18 31.667 -35.667 41 -53c-42.667 -24.667 -96.334 -53 -161.001 -85zM672.001 689.999l-13.999 -0.00195312c-20 0 -38.833 -5.5 -56.5 -16.5s-32.5 -24.833 -44.5 -41.5l-197 -320v-239
c0 -17.333 6.16699 -32.166 18.5 -44.499s27.5 -18.5 45.5 -18.5h12v-10h-218v10h13c17.333 0 32.166 6 44.499 18s18.833 26.667 19.5 44v241l-191 319c-10 16 -24.167 29.667 -42.5 41s-37.5 17 -57.5 17h-14v10h246v-10h-13c-14.667 0 -26 -6.66699 -34 -20
c-4 -7.33301 -6 -14.5 -6 -21.5s1.66699 -13.833 5 -20.5l150 -280l160 281c3.33301 6.66699 5 13.334 5 20.001s-2.33301 13.667 -7 21c-8.66699 13.333 -20 20 -34 20h-12v10h222v-10z" />
    <glyph glyph-name="Thorn" unicode="&#xde;" horiz-adv-x="554" 
d="M505 354.5c0 -29.667 -6.00391 -56.832 -18.0039 -81.499c-21.333 -47.333 -59 -80.333 -113 -99c-19.333 -6.66699 -35.666 -10 -48.999 -10c-41.333 0 -76.666 7.66699 -105.999 23v10c48 -10.667 93 -5.33398 135 15.999c36 18 60.667 48.667 74 92
c4.66699 13.333 7 25.833 7 37.5v22.5c-1.33301 46.667 -13.666 83.834 -36.999 111.501s-56 41.5 -98 41.5h-115v-445c0 -24.667 10.667 -43 32 -55c9.33301 -5.33301 20 -8 32 -8h12v-10h-218v10h12c18 0 33.167 6.16699 45.5 18.5s18.833 27.166 19.5 44.499v555
c-0.666992 17.333 -7.16699 32 -19.5 44s-27.166 18 -44.499 18h-13v10h218v-10h-12c-17.333 0 -32.333 -6 -45 -18s-19 -26.667 -19 -44v-80h119c98 0 160.667 -37.667 188 -113c8.66699 -24 13 -50.833 13 -80.5z" />
    <glyph glyph-name="germandbls" unicode="&#xdf;" horiz-adv-x="924" 
d="M58 33c-2 8 -3.00195 24.333 -3.00195 49s4.33301 49.667 13 75h12c-0.666992 -6 -1 -12 -1 -18c0 -36 11.833 -65.5 35.5 -88.5s56.5 -34.5 98.5 -34.5c44 0 78.333 10.167 103 30.5s37 46.666 37 78.999s-12 59.166 -36 80.499l-200 154c-32 27.333 -48 64 -48 110
c0 26 7.16699 50 21.5 72s34.333 39.5 60 52.5s55.834 19.5 90.501 19.5s65.334 -3 92.001 -9h33l2 -109h-11c0 28 -9.66699 49.667 -29 65s-47 23 -83 23s-65.667 -9.16699 -89 -27.5s-35 -42 -35 -71s13 -54.167 39 -75.5l202 -156c30.667 -25.333 46 -60.666 46 -105.999
s-17.167 -83.666 -51.5 -114.999s-76.166 -47 -125.499 -47c-32.667 0 -65.334 4 -98.001 12s-57.667 19.667 -75 35zM519.998 33c-2 8 -3.00195 24.333 -3.00195 49s4.33301 49.667 13 75h12c-0.666992 -6 -1 -12 -1 -18c0 -36 11.833 -65.5 35.5 -88.5
s56.5 -34.5 98.5 -34.5c44 0 78.333 10.167 103 30.5s37 46.666 37 78.999s-12 59.166 -36 80.499l-200 154c-32 27.333 -48 64 -48 110c0 26 7.16699 50 21.5 72s34.333 39.5 60 52.5s55.834 19.5 90.501 19.5s65.334 -3 92.001 -9h33l2 -109h-11
c0 28 -9.66699 49.667 -29 65s-47 23 -83 23s-65.667 -9.16699 -89 -27.5s-35 -42 -35 -71s13 -54.167 39 -75.5l203 -156c30 -25.333 45 -60.666 45 -105.999s-17.167 -83.666 -51.5 -114.999s-76.166 -47 -125.499 -47c-32.667 0 -65.334 4 -98.001 12
s-57.667 19.667 -75 35z" />
    <glyph glyph-name="agrave" unicode="&#xe0;" horiz-adv-x="663" 
d="M339 671l-7 -6.99902c-53.333 25.333 -107 53.666 -161 84.999c10 18.667 23.667 36.334 41 53.001c42.667 -40.667 85 -84.334 127 -131.001zM660 10.001h8.00098v-10h-205v10h8c12.667 0 22.334 4.33301 29.001 13s10 16.834 10 24.501s-1.33301 15.167 -4 22.5
l-55 133h-253l-55 -130c-3.33301 -8.66699 -5 -16.834 -5 -24.501s3.33301 -16 10 -25s16.667 -13.5 30 -13.5h8v-10h-191v10h8c14 0 28.167 4.83301 42.5 14.5s26.166 24.167 35.499 43.5l225.5 483c12.333 26.667 19.166 47.667 20.499 63h9l247 -546
c19.333 -38.667 45 -58 77 -58zM211.001 233.001h228l-112 274z" />
    <glyph glyph-name="aacute" unicode="&#xe1;" horiz-adv-x="663" 
d="M332 664l-6.99902 6.99902c50.667 54.667 93 98.334 127 131.001c18 -18 31.667 -35.667 41 -53c-42.667 -24.667 -96.334 -53 -161.001 -85zM660.001 9.99902h8v-10h-205v10h8c12.667 0 22.334 4.33301 29.001 13s10 16.834 10 24.501s-1.33301 15.167 -4 22.5l-55 133
h-253l-55 -130c-3.33301 -8.66699 -5 -16.834 -5 -24.501s3.33301 -16 10 -25s16.667 -13.5 30 -13.5h8v-10h-191v10h8c14 0 28.167 4.83301 42.5 14.5s26.166 24.167 35.499 43.5c146 312 222 475.333 228 490c11.333 28 17.333 46.667 18 56h9l247 -546
c19.333 -38.667 45 -58 77 -58zM211.001 232.999h228l-112 274z" />
    <glyph glyph-name="acircumflex" unicode="&#xe2;" horiz-adv-x="663" 
d="M327 790h10l114 -119l-6 -8l-114 66l-104 -66l-6 8zM660 10l7.99902 -0.00195312v-10h-205v10h8c12.667 0 22.334 4.33301 29.001 13s10 16.834 10 24.501s-1.33301 15.167 -4 22.5l-55 133h-253l-55 -130c-2.66699 -8.66699 -4 -15.667 -4 -21s1 -11.166 3 -17.499
s6.33301 -12 13 -17s14.334 -7.5 23.001 -7.5h8v-10h-191v10h8c14 0 28.167 4.83301 42.5 14.5s26.166 24.167 35.499 43.5c146 312 222 475.333 228 490c11.333 28 17.333 46.667 18 56h9l247 -546c19.333 -38.667 45 -58 77 -58zM210.999 232.998h228l-112 274z" />
    <glyph glyph-name="atilde" unicode="&#xe3;" horiz-adv-x="663" 
d="M402 709c28 0 46.666 11.332 55.999 33.999h10c-4 -33.333 -15.667 -56.666 -35 -69.999c-8.66699 -6 -19.667 -9 -33 -9s-33.833 7.33301 -61.5 22s-46.5 22 -56.5 22c-25.333 0 -43.333 -13.667 -54 -41h-10c4.66699 36 16.334 61 35.001 75
c8.66699 6.66699 19.667 10 33 10s33.5 -7.16699 60.5 -21.5s45.5 -21.5 55.5 -21.5zM659.999 9.99902l7.99902 -0.00195312v-10h-205v10h8c12.667 0 22.334 4.33301 29.001 13s10 16.834 10 24.501s-1.33301 15.167 -4 22.5l-55 133h-253l-55 -130
c-2.66699 -8.66699 -4 -15.667 -4 -21s1 -11.166 3 -17.499s6.33301 -12 13 -17s14.334 -7.5 23.001 -7.5h8v-10h-191v10h8c14 0 28.167 4.83301 42.5 14.5s26.166 24.167 35.499 43.5c146 312 222 475.333 228 490c11.333 28 17.333 46.667 18 56h9l247 -546
c19.333 -38.667 45 -58 77 -58zM210.998 232.997h228l-112 274z" />
    <glyph glyph-name="adieresis" unicode="&#xe4;" horiz-adv-x="663" 
d="M238 664c-10.667 0 -19.834 3.83301 -27.501 11.5s-11.5 16.834 -11.5 27.501s3.83301 19.834 11.5 27.501s16.834 11.5 27.501 11.5s19.834 -3.83301 27.501 -11.5s11.5 -16.834 11.5 -27.501s-3.83301 -19.834 -11.5 -27.501s-16.834 -11.5 -27.501 -11.5zM426 664
c-10.667 0 -19.834 3.83301 -27.501 11.5s-11.5 16.834 -11.5 27.501s3.83301 19.834 11.5 27.501s16.834 11.5 27.501 11.5s19.834 -3.83301 27.501 -11.5s11.5 -16.834 11.5 -27.501s-3.83301 -19.834 -11.5 -27.501s-16.834 -11.5 -27.501 -11.5zM660 10h8v-10h-205v10h8
c12.667 0 22.334 4.33301 29.001 13s10 16.834 10 24.501s-1.33301 15.167 -4 22.5l-55 133h-253l-55 -130c-3.33301 -8.66699 -5 -16.834 -5 -24.501s3.33301 -16 10 -25s16.667 -13.5 30 -13.5h8v-10h-191v10h8c14 0 28.167 4.83301 42.5 14.5s26.166 24.167 35.499 43.5
c146 312 222 475.333 228 490c11.333 28 17.333 46.667 18 56h9l247 -546c19.333 -38.667 45 -58 77 -58zM211 233h228l-112 274z" />
    <glyph glyph-name="aring" unicode="&#xe5;" horiz-adv-x="663" 
d="M399.5 794c17.667 -13.333 26.5 -29.333 26.5 -48s-4 -33.667 -12 -45c-17.333 -24.667 -42 -37 -74 -37s-56.833 7.16699 -74.5 21.5s-26.5 32.333 -26.5 54s8.83301 39.5 26.5 53.5s40 21 67 21s49.333 -6.66699 67 -20zM332.5 797
c-14.333 0 -26.166 -5.16699 -35.499 -15.5s-14 -24.5 -14 -42.5s4.66699 -32 14 -42s21.166 -15 35.499 -15s26 5 35 15s13.5 24 13.5 42s-4.5 32.167 -13.5 42.5s-20.667 15.5 -35 15.5zM660 10h8.00098v-10h-205v10h8c12.667 0 22.334 4.33301 29.001 13
s10 16.834 10 24.501s-1.33301 15.167 -4 22.5l-55 133h-253l-55 -130c-3.33301 -8.66699 -5 -16.834 -5 -24.501s3.33301 -16 10 -25s16.667 -13.5 30 -13.5h8v-10h-191v10h8c14 0 28.167 4.83301 42.5 14.5s26.166 24.167 35.499 43.5l225.5 483
c12.333 26.667 19.166 47.667 20.499 63h9l247 -546c19.333 -38.667 45 -58 77 -58zM211.001 233h228l-112 274z" />
    <glyph glyph-name="ae" unicode="&#xe6;" horiz-adv-x="834" 
d="M390 10c12 0 22.002 3.83594 30.002 11.5029s12.333 17.167 13 28.5v221h-153l-140 -220c-5.33301 -16 -3 -27.667 7 -35c5.33301 -4 11.666 -6 18.999 -6h8v-10h-179v10h6c14 0 28.5 5 43.5 15s27.167 22 36.5 36h1l349 501c3.33301 7.33301 3 14.166 -1 20.499
s-10 9.5 -18 9.5h-3v8h239c27.333 0 50.166 2.33301 68.499 7s29.5 7.66699 33.5 9v-103h-10v13c0 11.333 -4 21.166 -12 29.499s-18 12.5 -30 12.5h-200v-266h165c12 0 22 4.16699 30 12.5s12 18.166 12 29.499v13h10v-138h-10v10c0 15.333 -6.66699 27.333 -20 36
c-6 4 -13 6 -21 6h-166v-241h162c60 0.666992 103 32 129 94h11l-48 -124h-370v10h8zM433.002 302.003v209l-133 -209h133z" />
    <glyph glyph-name="ccedilla" unicode="&#xe7;" horiz-adv-x="705" 
d="M356 -61c20.667 7.33301 39.333 8.66699 56 4c32.667 -8.66699 49 -29 49 -61s-14.667 -55 -44 -69c-16.667 -8 -33.167 -12 -49.5 -12s-32.166 2.33301 -47.499 7l1 10c24 0 45 5.16699 63 15.5s27 25.5 27 45.5c0 29.333 -17 44 -51 44
c-10.667 0 -21.667 -2.66699 -33 -8l-5 10l47 61c-98.667 2.66699 -176.5 32 -233.5 88s-85.5 132 -85.5 228s29.5 172 88.5 228s139.5 84 241.5 84c41.333 0 83 -5.33301 125 -16s78.333 -25.334 109 -44.001l22 -142h-9c-28.667 114.667 -111.334 172 -248.001 172
c-79.333 0 -142 -25.333 -188 -76s-69 -120 -69 -208c0 -57.333 10.333 -107.166 31 -149.499s50.667 -75.166 90 -98.499s85 -35 137 -35s97.5 7.83301 136.5 23.5s71.333 41.5 97 77.5s40.167 80.667 43.5 134h9l-11 -137c-24.667 -38 -60 -68.333 -106 -91
s-97 -35.334 -153 -38.001z" />
    <glyph glyph-name="egrave" unicode="&#xe8;" horiz-adv-x="546" 
d="M304 671l-7 -6.99902c-53.333 25.333 -107 53.666 -161 84.999c10 18.667 23.667 36.334 41 53.001c42 -40.667 84.333 -84.334 127 -131.001zM69 10.001c16 0 29.5 5.16602 40.5 15.499s16.833 22.833 17.5 37.5v475c0 14.667 -5.66699 27 -17 37s-25 15 -41 15h-14v10
h292c19.333 0 40.5 1.66699 63.5 5s39.167 7 48.5 11v-114l-11 1v15c0 20 -8 34.667 -24 44c-7.33301 4.66699 -16 7 -26 7h-208v-254h171c18 0.666992 30.333 7.66699 37 21c2.66699 6.66699 4 13.667 4 21v13h11v-140h-11v13c0 11.333 -3.33301 21 -10 29
s-16 12.333 -28 13h-174v-254h157c30.667 0 56.5 5.33301 77.5 16s37 23.334 48 38.001s22.167 34 33.5 58h10l-55 -143h-406v10h14z" />
    <glyph glyph-name="eacute" unicode="&#xe9;" horiz-adv-x="546" 
d="M297 664l-7 6.99902c50.667 54.667 93 98.334 127 131.001c18 -18 31.667 -35.667 41 -53c-43.333 -24.667 -97 -53 -161 -85zM69 9.99902c16 0 29.5 5.16602 40.5 15.499s16.833 22.833 17.5 37.5v475c0 14.667 -5.66699 27 -17 37s-25 15 -41 15h-14v10h292
c19.333 0 40.5 1.66699 63.5 5s39.167 7 48.5 11v-113h-11v15c0 20 -8 34.667 -24 44c-7.33301 4.66699 -16 7 -26 7h-208v-254h171c18 0.666992 30.333 7.66699 37 21c2.66699 6.66699 4 13.667 4 21v13h11v-140h-11v13c0 11.333 -3.33301 21 -10 29s-16 12.333 -28 13
h-174v-254h157c30.667 0 56.5 5.33301 77.5 16s37 23.334 48 38.001s22.167 34 33.5 58h10l-55 -143h-406v10h14z" />
    <glyph glyph-name="ecircumflex" unicode="&#xea;" horiz-adv-x="546" 
d="M292 790h10l114 -119l-6 -8l-114 66l-104 -66l-6 8zM69 10c16 0 29.499 5.16699 40.499 15.5s16.833 22.833 17.5 37.5v475c0 14.667 -5.66699 27 -17 37s-25 15 -41 15h-14v10h292c19.333 0 40.5 1.66699 63.5 5s39.167 7 48.5 11v-113h-11v15c0 20 -8 34.667 -24 44
c-7.33301 4.66699 -16 7 -26 7h-207v-254h170c18 0.666992 30.333 7.66699 37 21c2.66699 6.66699 4 13.667 4 21v13h11v-140h-11v13c0 11.333 -3.33301 21 -10 29s-16 12.333 -28 13h-173v-254h156c44 0 77.333 9.5 100 28.5s42.334 46.833 59.001 83.5h10l-55 -143h-406
v10h14z" />
    <glyph glyph-name="edieresis" unicode="&#xeb;" horiz-adv-x="546" 
d="M203 664c-10.667 0 -19.834 3.83301 -27.501 11.5s-11.5 16.834 -11.5 27.501s3.83301 19.834 11.5 27.501s16.834 11.5 27.501 11.5s19.834 -3.83301 27.501 -11.5s11.5 -16.834 11.5 -27.501s-3.83301 -19.834 -11.5 -27.501s-16.834 -11.5 -27.501 -11.5zM391 664
c-10.667 0 -19.834 3.83301 -27.501 11.5s-11.5 16.834 -11.5 27.501s3.83301 19.834 11.5 27.501s16.834 11.5 27.501 11.5s19.834 -3.83301 27.501 -11.5s11.5 -16.834 11.5 -27.501s-3.83301 -19.834 -11.5 -27.501s-16.834 -11.5 -27.501 -11.5zM69 10
c16 0 29.5 5.16602 40.5 15.499s16.833 22.833 17.5 37.5v475c0 14.667 -5.66699 27 -17 37s-25 15 -41 15h-14v10h292c19.333 0 40.5 1.66699 63.5 5s39.167 7 48.5 11v-114l-11 1v15c0 14 -4.66699 26 -14 36s-21.333 15 -36 15h-208v-254h171
c18 0.666992 30.333 7.66699 37 21c2.66699 6.66699 4 13.667 4 21v13h11v-140h-11v13c0 11.333 -3.33301 21 -10 29s-16 12.333 -28 13h-174v-254h157c30.667 0 56.5 5.33301 77.5 16s37 23.334 48 38.001s22.167 34 33.5 58h10l-55 -143h-406v10h14z" />
    <glyph glyph-name="igrave" unicode="&#xec;" horiz-adv-x="306" 
d="M161 671l-6.99902 -6.99902c-54.667 25.333 -108.334 53.666 -161.001 84.999c9.33301 18.667 23 36.334 41 53.001c42 -40.667 84.333 -84.334 127 -131.001zM66.001 10.001c15.333 0 28.334 5.33105 39.001 15.998s16 23.334 16 38.001v472
c0 20.667 -9.33301 36.334 -28 47.001c-8 4.66699 -17 7 -27 7h-11v10h197l-1 -10h-11c-14.667 0 -27.334 -5.16699 -38.001 -15.5s-16.334 -22.833 -17.001 -37.5v-474c0.666992 -14.667 6.33398 -27.167 17.001 -37.5s23.667 -15.5 39 -15.5h10l1 -10h-197v10h11z" />
    <glyph glyph-name="iacute" unicode="&#xed;" horiz-adv-x="306" 
d="M154 664l-7 6.99902c50.667 54.667 92.667 98.334 126 131.001c18 -18 31.667 -35.667 41 -53c-42.667 -24.667 -96 -53 -160 -85zM66 9.99902c15.333 0 28.333 5.33105 39 15.998s16 23.334 16 38.001v472c0 14.667 -5.33301 27.334 -16 38.001s-23.667 16 -39 16h-11
v10h197l-1 -10h-10c-15.333 0 -28.333 -5.16699 -39 -15.5s-16.334 -22.833 -17.001 -37.5v-474c0.666992 -14.667 6.33398 -27.167 17.001 -37.5s23.667 -15.5 39 -15.5h10l1 -10h-197v10h11z" />
    <glyph glyph-name="icircumflex" unicode="&#xee;" horiz-adv-x="306" 
d="M148 790h10l115 -119l-6 -8l-114 66l-105 -66l-6 8zM66 10c15.333 0 28.333 5.33105 39 15.998s16 23.334 16 38.001v472c0 20.667 -9.33301 36.334 -28 47.001c-8 4.66699 -17 7 -27 7h-11v10h197l-1 -10h-10c-15.333 0 -28.333 -5.16699 -39 -15.5
s-16.334 -22.833 -17.001 -37.5v-474c0.666992 -14.667 6.33398 -27.167 17.001 -37.5s23.667 -15.5 39 -15.5h10l1 -10h-197v10h11z" />
    <glyph glyph-name="idieresis" unicode="&#xef;" horiz-adv-x="306" 
d="M59.5 664c-11 0 -20.333 3.83301 -28 11.5s-11.5 16.834 -11.5 27.501s3.83301 19.834 11.5 27.501s17 11.5 28 11.5s20.167 -3.83301 27.5 -11.5s11 -16.834 11 -27.501s-3.66699 -19.834 -11 -27.501s-16.5 -11.5 -27.5 -11.5zM248 664
c-10.667 0 -19.834 3.83301 -27.501 11.5s-11.5 16.834 -11.5 27.501s3.83301 19.834 11.5 27.501s16.834 11.5 27.501 11.5s19.834 -3.83301 27.501 -11.5s11.5 -16.834 11.5 -27.501s-3.83301 -19.834 -11.5 -27.501s-16.834 -11.5 -27.501 -11.5zM66 10
c15.333 0 28.335 5.33105 39.002 15.998s16 23.334 16 38.001v472c0 20.667 -9.33301 36.334 -28 47.001c-8 4.66699 -17 7 -27 7h-11v10h197l-1 -10h-11c-14.667 0 -27.334 -5.16699 -38.001 -15.5s-16.334 -22.833 -17.001 -37.5v-474c0.666992 -20.667 10 -36 28 -46
c8.66699 -4.66699 18 -7 28 -7h10l1 -10h-197v10h11z" />
    <glyph glyph-name="eth" unicode="&#xf0;" horiz-adv-x="760" 
d="M710 300c0 -92.667 -28.832 -165.835 -86.499 -219.502s-135.834 -80.5 -234.501 -80.5h-334v10h13c16 0 29.333 5.33301 40 16s16.334 23.334 17.001 38.001v221h-63v30h63v221c-0.666992 16 -6.5 29 -17.5 39s-24.5 15 -40.5 15h-12v10h334
c65.333 0 122.166 -12 170.499 -36s85.5 -58.667 111.5 -104s39 -98.666 39 -159.999zM190.001 284.999v-254.999h199c76.667 0 137.334 24 182.001 72s67 114 67 198c0 83.333 -22.333 149.166 -67 197.499s-105.334 72.5 -182.001 72.5h-199v-255h157v-30h-157z" />
    <glyph glyph-name="ntilde" unicode="&#xf1;" horiz-adv-x="779" 
d="M458 709c28 0 46.6641 11.333 55.9971 34h10c-3.33301 -24.667 -10.833 -44 -22.5 -58s-25.667 -21 -42 -21s-38.166 7.33301 -65.499 22s-46 22 -56 22c-25.333 0 -43.333 -13.667 -54 -41h-10c4.66699 36 16.334 61 35.001 75c8.66699 6.66699 19.667 10 33 10
s33.333 -7.16699 60 -21.5s45.334 -21.5 56.001 -21.5zM726.997 590c-14.667 0 -27.3311 -4.83203 -37.998 -14.499s-16.334 -21.5 -17.001 -35.5v-426c0 -38.667 2.33301 -75.334 7 -110.001l2 -18h-9l-520 493v-417c0 -20 9.33301 -35 28 -45c8 -4.66699 17 -7 27 -7h17
v-10h-189v10h17c15.333 0 28.333 5 39 15s16 22.333 16 37v428c0 40.667 -2.33301 77 -7 109l-2 16l11 -1l519 -489v415c-1.33301 14 -7.33301 25.833 -18 35.5s-23.334 14.5 -38.001 14.5h-17v10h189v-10h-17z" />
    <glyph glyph-name="ograve" unicode="&#xf2;" horiz-adv-x="774" 
d="M394 671l-7 -6.99902c-53.333 25.333 -106.666 53.666 -159.999 84.999c9.33301 18.667 22.666 36.334 39.999 53.001c42.667 -40.667 85 -84.334 127 -131.001zM387.5 614.001c61.667 0 118.167 -13.167 169.5 -39.5s92.166 -63.5 122.499 -111.5
s45.5 -102.333 45.5 -163s-15.167 -115 -45.5 -163s-71.166 -85.167 -122.499 -111.5s-107.833 -39.5 -169.5 -39.5s-118.167 13.167 -169.5 39.5s-92.166 63.5 -122.499 111.5s-45.5 102.333 -45.5 163s15.167 115 45.5 163s71.166 85.167 122.499 111.5
s107.833 39.5 169.5 39.5zM387 16.001c74.667 0 137.334 26.5 188.001 79.5s76 121.167 76 204.5s-25.333 151.5 -76 204.5s-113.334 79.5 -188.001 79.5s-137.167 -26.5 -187.5 -79.5s-75.5 -121.167 -75.5 -204.5s25.167 -151.5 75.5 -204.5s112.833 -79.5 187.5 -79.5z
" />
    <glyph glyph-name="oacute" unicode="&#xf3;" horiz-adv-x="774" 
d="M387 664l-6.99902 7l127 131c18 -18 31.667 -35.667 41 -53c-42.667 -24.667 -96.334 -53 -161.001 -85zM387.501 614c61.667 0 118.167 -13.167 169.5 -39.5s92.166 -63.5 122.499 -111.5s45.5 -102.333 45.5 -163s-15.167 -115 -45.5 -163
s-71.166 -85.167 -122.499 -111.5s-107.833 -39.5 -169.5 -39.5s-118.167 13.167 -169.5 39.5s-92.166 63.5 -122.499 111.5s-45.5 102.333 -45.5 163s15.167 115 45.5 163s71.166 85.167 122.499 111.5s107.833 39.5 169.5 39.5zM387.001 16
c74.667 0 137.334 26.5 188.001 79.5s76 121.167 76 204.5s-25.333 151.5 -76 204.5s-113.334 79.5 -188.001 79.5s-137.167 -26.5 -187.5 -79.5s-75.5 -121.167 -75.5 -204.5s25.167 -151.5 75.5 -204.5s112.833 -79.5 187.5 -79.5z" />
    <glyph glyph-name="ocircumflex" unicode="&#xf4;" horiz-adv-x="774" 
d="M382 790h10l114 -119l-6 -8l-113 66l-105 -66l-6 8zM387.5 614c61.667 0 118.167 -13.165 169.5 -39.498s92.166 -63.5 122.499 -111.5s45.5 -102.333 45.5 -163s-15.167 -115 -45.5 -163s-71.166 -85.167 -122.499 -111.5s-104 -39.5 -158 -39.5
s-101.667 7.66699 -143 23s-77.166 36.666 -107.499 63.999s-54.333 60.666 -72 99.999s-26.5 85.5 -26.5 138.5s15.167 103.5 45.5 151.5s71.166 85.167 122.499 111.5s107.833 39.5 169.5 39.5zM387 16.002c74.667 0 137.334 26.5 188.001 79.5s76 121.167 76 204.5
s-25.333 151.5 -76 204.5s-113.334 79.5 -188.001 79.5s-137.167 -26.5 -187.5 -79.5s-75.5 -121.167 -75.5 -204.5s25.167 -151.5 75.5 -204.5s112.833 -79.5 187.5 -79.5z" />
    <glyph glyph-name="otilde" unicode="&#xf5;" horiz-adv-x="774" 
d="M458 709c27.333 0 45.668 11.333 55.001 34h10c-2.66699 -24.667 -9.83398 -44 -21.501 -58s-25.667 -21 -42 -21s-38.333 7.33301 -66 22s-46.5 22 -56.5 22c-25.333 0 -43.333 -13.667 -54 -41h-10c5.33301 36 17 61 35 75c8.66699 6.66699 19.667 10 33 10
s33.5 -7.16699 60.5 -21.5s45.833 -21.5 56.5 -21.5zM387.502 614c61.667 0 118.167 -13.167 169.5 -39.5s92.166 -63.5 122.499 -111.5s45.5 -102.333 45.5 -163s-15.167 -115 -45.5 -163s-71.166 -85.167 -122.499 -111.5s-107.833 -39.5 -169.5 -39.5
s-118.167 13.167 -169.5 39.5s-92.166 63.5 -122.499 111.5s-45.5 102.333 -45.5 163s15.167 115 45.5 163s71.166 85.167 122.499 111.5s107.833 39.5 169.5 39.5zM387.002 16c74.667 0 137.334 26.5 188.001 79.5s76 121.167 76 204.5s-25.333 151.5 -76 204.5
s-113.334 79.5 -188.001 79.5s-137.167 -26.5 -187.5 -79.5s-75.5 -121.167 -75.5 -204.5s25.167 -151.5 75.5 -204.5s112.833 -79.5 187.5 -79.5z" />
    <glyph glyph-name="odieresis" unicode="&#xf6;" horiz-adv-x="774" 
d="M293 664c-10.667 0 -19.834 3.83301 -27.501 11.5s-11.5 16.834 -11.5 27.501s3.83301 19.834 11.5 27.501s16.834 11.5 27.501 11.5s19.834 -3.83301 27.501 -11.5s11.5 -16.834 11.5 -27.501s-3.83301 -19.834 -11.5 -27.501s-16.834 -11.5 -27.501 -11.5zM481.5 664
c-11 0 -20.167 3.83301 -27.5 11.5s-11 16.834 -11 27.501s3.66699 19.834 11 27.501s16.5 11.5 27.5 11.5s20.333 -3.83301 28 -11.5s11.5 -16.834 11.5 -27.501s-3.83301 -19.834 -11.5 -27.501s-17 -11.5 -28 -11.5zM387.5 614c61.667 0 118.167 -13.167 169.5 -39.5
s92.166 -63.5 122.499 -111.5s45.5 -102.333 45.5 -163s-15.167 -115 -45.5 -163s-71.166 -85.167 -122.499 -111.5s-107.833 -39.5 -169.5 -39.5s-118.167 13.167 -169.5 39.5s-92.166 63.5 -122.499 111.5s-45.5 102.333 -45.5 163s15.167 115 45.5 163
s71.166 85.167 122.499 111.5s107.833 39.5 169.5 39.5zM387 16c74.667 0 137.334 26.5 188.001 79.5s76 121.167 76 204.5s-25.333 151.5 -76 204.5s-113.334 79.5 -188.001 79.5s-137.167 -26.5 -187.5 -79.5s-75.5 -121.167 -75.5 -204.5s25.167 -151.5 75.5 -204.5
s112.833 -79.5 187.5 -79.5z" />
    <glyph glyph-name="divide" unicode="&#xf7;" horiz-adv-x="481" 
d="M240.5 433c-9.66699 0 -18 3.5 -25 10.5s-10.5 15.333 -10.5 25s3.5 17.834 10.5 24.501s15.333 10 25 10s18 -3.33301 25 -10s10.5 -14.834 10.5 -24.501s-3.5 -18 -10.5 -25s-15.333 -10.5 -25 -10.5zM40 287v45h402v-45h-402zM240.5 117c-9.66699 0 -18 3.5 -25 10.5
s-10.5 15.333 -10.5 25s3.5 17.834 10.5 24.501s15.333 10 25 10s18 -3.33301 25 -10s10.5 -14.834 10.5 -24.501s-3.5 -18 -10.5 -25s-15.333 -10.5 -25 -10.5z" />
    <glyph glyph-name="oslash" unicode="&#xf8;" horiz-adv-x="774" 
d="M689.5 445.5c23.667 -43.667 35.5 -94 35.5 -151s-15.167 -109.5 -45.5 -157.5s-71.166 -85.167 -122.499 -111.5s-108 -39.5 -170 -39.5c-80.667 0 -151.334 22 -212.001 66l-62 -75l-25 22l61 74c-66 59.333 -99 135 -99 227c0 60.667 15.167 115 45.5 163
s71.166 85.167 122.499 111.5s108.5 39.5 171.5 39.5s120.833 -14.333 173.5 -43l50 60l26 -23l-46 -55c40.667 -28 72.834 -63.833 96.501 -107.5zM387 584c-74.667 0 -137.167 -26.5 -187.5 -79.5s-75.5 -118.5 -75.5 -196.5s20 -142.667 60 -194l352 424
c-43.333 30.667 -93 46 -149 46zM206 89c49.333 -48.667 110.5 -73 183.5 -73s134.833 26.5 185.5 79.5s76 123 76 210s-29.333 157.5 -88 211.5z" />
    <glyph glyph-name="ugrave" unicode="&#xf9;" horiz-adv-x="700" 
d="M358 671l-7 -6.99902c-54 25.333 -107.667 53.666 -161 84.999c9.33301 18.667 23 36.334 41 53.001c42 -40.667 84.333 -84.334 127 -131.001zM665 590.001h-15.002c-12.667 0 -23.667 -4 -33 -12s-14.333 -18 -15 -30v-337c0 -69.333 -22.167 -124.166 -66.5 -164.499
s-105.166 -60.5 -182.499 -60.5s-138.333 20 -183 60s-67 94.667 -67 164v337c0 12 -4.66699 22.167 -14 30.5s-20.666 12.5 -33.999 12.5h-15v10h190v-10h-15c-13.333 0 -24.666 -4.16699 -33.999 -12.5s-14 -18.5 -14 -30.5v-325c0 -64.667 16.5 -115.667 49.5 -153
s79.667 -56 140 -56s108.666 17.667 144.999 53s54.5 83.666 54.5 144.999v336c-0.666992 12.667 -5.5 23 -14.5 31s-20.167 12 -33.5 12h-15v10h172v-10z" />
    <glyph glyph-name="uacute" unicode="&#xfa;" horiz-adv-x="700" 
d="M350 664l-5.99902 6.99902c50.667 54.667 92.667 98.334 126 131.001c18 -18 31.667 -35.667 41 -53c-42.667 -24.667 -96.334 -53 -161.001 -85zM665.001 589.999h-15.002c-18 0 -31.667 -7 -41 -21c-4 -6 -6.33301 -13 -7 -21v-337
c0 -69.333 -22.167 -124.166 -66.5 -164.499s-105.166 -60.5 -182.499 -60.5s-138.333 20 -183 60s-67 94.667 -67 164v337c0 12 -4.66699 22.167 -14 30.5s-20.666 12.5 -33.999 12.5h-15v10h190v-10h-15c-13.333 0 -24.666 -4.16699 -33.999 -12.5s-14 -18.5 -14 -30.5
v-325c0 -64.667 16.5 -115.667 49.5 -153s79.667 -56 140 -56s108.666 17.667 144.999 53s54.5 83.666 54.5 144.999v336c-0.666992 12.667 -5.5 23 -14.5 31s-20.167 12 -33.5 12h-15v10h172v-10z" />
    <glyph glyph-name="ucircumflex" unicode="&#xfb;" horiz-adv-x="700" 
d="M345 790h10l115 -119l-6 -8l-114 66l-105 -66l-6 8zM665 590l-15.002 0.000976562c-18 0 -31.667 -7 -41 -21c-4 -6 -6.33301 -13 -7 -21v-337c0 -69.333 -22.167 -124.166 -66.5 -164.499s-105.166 -60.5 -182.499 -60.5s-138.333 20 -183 60s-67 94.667 -67 164v337
c0 12 -4.66699 22.167 -14 30.5s-20.666 12.5 -33.999 12.5h-15v10h190v-10h-15c-13.333 0 -24.666 -4.16699 -33.999 -12.5s-14 -18.5 -14 -30.5v-325c0 -64.667 16.5 -115.667 49.5 -153s79.667 -56 140 -56s108.666 17.667 144.999 53s54.5 83.666 54.5 144.999v336
c-0.666992 19.333 -10.667 32.666 -30 39.999c-5.33301 2 -11.333 3 -18 3h-15v10h172v-10z" />
    <glyph glyph-name="udieresis" unicode="&#xfc;" horiz-adv-x="700" 
d="M256.5 664c-11 0 -20.333 3.83301 -28 11.5s-11.5 16.834 -11.5 27.501s3.83301 19.834 11.5 27.501s17 11.5 28 11.5s20.167 -3.83301 27.5 -11.5s11 -16.834 11 -27.501s-3.66699 -19.834 -11 -27.501s-16.5 -11.5 -27.5 -11.5zM445 664
c-10.667 0 -19.834 3.83301 -27.501 11.5s-11.5 16.834 -11.5 27.501s3.83301 19.834 11.5 27.501s16.834 11.5 27.501 11.5s19.834 -3.83301 27.501 -11.5s11.5 -16.834 11.5 -27.501s-3.83301 -19.834 -11.5 -27.501s-16.834 -11.5 -27.501 -11.5zM665 590
l-15.002 0.000976562c-18 0 -31.667 -7 -41 -21c-4 -6 -6.33301 -13 -7 -21v-337c0 -69.333 -22.167 -124.166 -66.5 -164.499s-105.166 -60.5 -182.499 -60.5s-138.333 20 -183 60s-67 94.667 -67 164v337c0 12 -4.66699 22.167 -14 30.5s-20.666 12.5 -33.999 12.5h-15v10
h190v-10h-15c-13.333 0 -24.666 -4.16699 -33.999 -12.5s-14 -18.5 -14 -30.5v-325c0 -64.667 16.5 -115.667 49.5 -153s79.667 -56 140 -56s108.666 17.667 144.999 53s54.5 83.666 54.5 144.999v336c-0.666992 19.333 -10.667 32.666 -30 39.999
c-5.33301 2 -11.333 3 -18 3h-15v10h172v-10z" />
    <glyph glyph-name="yacute" unicode="&#xfd;" horiz-adv-x="640" 
d="M333 664l-6.99902 7l127 131c18 -18 31.667 -35.667 41 -53c-42.667 -24.667 -96.334 -53 -161.001 -85zM645.001 590l-11.998 0.00195312c-18 0 -35.167 -4.83301 -51.5 -14.5s-29.833 -21.834 -40.5 -36.501l-192 -291v-184c0 -14.667 5.66699 -27.334 17 -38.001
s25 -16 41 -16h12v-10h-205v10h12c16 0 29.667 5.33301 41 16s17 23.334 17 38.001v185l-185 291c-22.667 33.333 -53.334 50 -92.001 50h-12v10h232v-10h-12c-12.667 0 -21.834 -4 -27.501 -12s-8.5 -14.833 -8.5 -20.5s0.666992 -10.834 2 -15.501l146 -259l155 258
c2 5.33301 3 10.833 3 16.5s-2.83301 12.5 -8.5 20.5s-15.167 12 -28.5 12h-12v10h209v-10z" />
    <glyph glyph-name="thorn" unicode="&#xfe;" horiz-adv-x="527" 
d="M492 304c0 -36.667 -7.99805 -68.999 -23.998 -96.999c-30.667 -54.667 -78.334 -82 -143.001 -82c-32.667 0 -64.667 8.33301 -96 25v9c30 -8.66699 61.667 -8.33398 95 0.999023c45.333 13.333 76.333 46.666 93 99.999c4.66699 13.333 7 31.333 7 54
c0 40.667 -12.833 72.667 -38.5 96s-60.834 35 -105.501 35h-96v-381c0 -15.333 5.16699 -28.166 15.5 -38.499s22.833 -15.5 37.5 -15.5h13v-10h-197l1 10h12c14.667 0 27.167 5.16699 37.5 15.5s15.833 22.833 16.5 37.5v474c-0.666992 15.333 -6 28 -16 38
s-22.667 15 -38 15h-12l-1 10h197v-10h-13c-14.667 0 -27 -4.83301 -37 -14.5s-15.333 -21.834 -16 -36.501v-64h100c64.667 0 115.5 -15.167 152.5 -45.5s55.5 -72.166 55.5 -125.499z" />
    <glyph glyph-name="ydieresis" unicode="&#xff;" horiz-adv-x="640" 
d="M239 664c-10.667 0 -19.834 3.83301 -27.501 11.5s-11.5 16.834 -11.5 27.501s3.83301 19.834 11.5 27.501s16.834 11.5 27.501 11.5s19.834 -3.83301 27.501 -11.5s11.5 -16.834 11.5 -27.501s-3.83301 -19.834 -11.5 -27.501s-16.834 -11.5 -27.501 -11.5zM427.5 664
c-11 0 -20.167 3.83301 -27.5 11.5s-11 16.834 -11 27.501s3.66699 19.834 11 27.501s16.5 11.5 27.5 11.5s20.333 -3.83301 28 -11.5s11.5 -16.834 11.5 -27.501s-3.83301 -19.834 -11.5 -27.501s-17 -11.5 -28 -11.5zM645 590l-11.998 0.00195312
c-18 0 -35.167 -4.83301 -51.5 -14.5s-29.833 -21.834 -40.5 -36.501l-192 -291v-184c0 -14.667 5.66699 -27.334 17 -38.001s25 -16 41 -16h12v-10h-205v10h12c16 0 29.667 5.33301 41 16s17 23.334 17 38.001v185l-185 291c-22.667 33.333 -53.334 50 -92.001 50h-12v10
h232v-10h-12c-12.667 0 -21.834 -4 -27.501 -12s-8.5 -14.833 -8.5 -20.5s0.666992 -10.834 2 -15.501l146 -259l155 258c2 5.33301 3 10.833 3 16.5s-2.83301 12.5 -8.5 20.5s-15.167 12 -28.5 12h-12v10h209v-10z" />
    <glyph glyph-name="Amacron" unicode="&#x100;" horiz-adv-x="712" 
d="M234 795v35h250v-35h-250zM715 10h8v-10h-225v10h9c14 0 24.5 4.5 31.5 13.5s10.5 17.5 10.5 25.5s-1.33301 16 -4 24l-64 170h-270l-67 -171c-2.66699 -8 -4 -15.833 -4 -23.5s3.5 -16 10.5 -25s17.5 -13.5 31.5 -13.5h9v-10h-201v10h9c16.667 0 33 5.33301 49 16
s29 26.334 39 47.001l226 538c24.667 54 37 88.333 37 103h9l268 -641c9.33301 -20.667 22 -36.334 38 -47.001s32.667 -16 50 -16zM223 273h246l-120 321z" />
    <glyph glyph-name="amacron" unicode="&#x101;" horiz-adv-x="663" 
d="M210 695v35h250v-35h-250zM660 10h8v-10h-205v10h8c12.667 0 22.334 4.33301 29.001 13s10 16.834 10 24.501s-1.33301 15.167 -4 22.5l-55 133h-253l-55 -130c-3.33301 -8.66699 -5 -16.834 -5 -24.501s3.33301 -16 10 -25s16.667 -13.5 30 -13.5h8v-10h-191v10h8
c14 0 28.167 4.83301 42.5 14.5s26.166 24.167 35.499 43.5c146 312 222 475.333 228 490c11.333 28 17.333 46.667 18 56h9l247 -546c19.333 -38.667 45 -58 77 -58zM211 233h228l-112 274z" />
    <glyph glyph-name="Abreve" unicode="&#x102;" horiz-adv-x="712" 
d="M460 868c0 -18.667 -4.66504 -36 -13.998 -52s-22 -28.667 -38 -38s-35.5 -14 -58.5 -14s-44.667 10.333 -65 31s-30.5 45 -30.5 73h10c5.33301 -14.667 16.666 -27.334 33.999 -38.001s37 -16 59 -16s41.667 5.33301 59 16s28.666 23.334 33.999 38.001h10zM715.002 10
h8v-10h-225v10h9c14 0 24.5 4.5 31.5 13.5s10.5 17.5 10.5 25.5s-1.33301 16 -4 24l-64 170h-270l-67 -171c-2.66699 -8 -4 -15.833 -4 -23.5s3.5 -16 10.5 -25s17.5 -13.5 31.5 -13.5h9v-10h-201v10h9c16.667 0 33 5.33301 49 16s29 26.334 39 47.001l226 538
c24.667 54 37 88.333 37 103h9l268 -641c9.33301 -20.667 22 -36.334 38 -47.001s32.667 -16 50 -16zM223.002 273h246l-120 321z" />
    <glyph glyph-name="abreve" unicode="&#x103;" horiz-adv-x="663" 
d="M435 768c0 -18.667 -4.66602 -36 -13.999 -52s-21.833 -28.667 -37.5 -38s-35.167 -14 -58.5 -14s-45.166 10.333 -65.499 31s-30.5 45 -30.5 73h10c5.33301 -14.667 16.666 -27.334 33.999 -38.001s37.166 -16 59.499 -16s42 5.33301 59 16s28.167 23.334 33.5 38.001
h10zM660.001 10h8v-10h-205v10h8c12.667 0 22.334 4.33301 29.001 13s10 16.834 10 24.501s-1.33301 15.167 -4 22.5l-55 133h-253l-55 -130c-3.33301 -8.66699 -5 -16.834 -5 -24.501s3.33301 -16 10 -25s16.667 -13.5 30 -13.5h8v-10h-191v10h8
c14 0 28.167 4.83301 42.5 14.5s26.166 24.167 35.499 43.5c146 312 222 475.333 228 490c11.333 28 17.333 46.667 18 56h9l247 -546c19.333 -38.667 45 -58 77 -58zM211.001 233h228l-112 274z" />
    <glyph glyph-name="Aogonek" unicode="&#x104;" horiz-adv-x="737" 
d="M674 -113l5.99902 -6.00098c-6 -16 -16 -29 -30 -39s-26 -15.5 -36 -16.5s-19 -1.5 -27 -1.5c-29.333 0 -52.333 12 -69 36c-10.667 15.333 -16 31.333 -16 48s2.66699 30 8 40c8.66699 18.667 21.334 32.667 38.001 42c20.667 11.333 31 25.666 31 42.999
c0 10 -2.66699 22.667 -8 38l-69 172h-287l-71 -171c-2.66699 -8 -4 -15.833 -4 -23.5s3.5 -16 10.5 -25s17.5 -13.5 31.5 -13.5h9v-10h-201v10h9c16.667 0 33 5.33301 49 16s29 26.334 39 47.001l240 538c24.667 54 37 88.333 37 103h9l283 -646
c14 -30.667 35.667 -49.667 65 -57c6 -1.33301 12 -2 18 -2h9v-9c-30 0 -53.333 0.666992 -70 2c-26 2 -48.5 1.33301 -67.5 -2s-33.833 -11.833 -44.5 -25.5s-16 -28.167 -16 -43.5s4 -28.666 12 -39.999c14.667 -18.667 33 -28 55 -28s41 8 57 24zM227.999 272.999h262
l-128 323z" />
    <glyph glyph-name="aogonek" unicode="&#x105;" horiz-adv-x="633" 
d="M664 0l-122.996 4.99805c-20 0 -36 -1.66699 -48 -5c-34 -8.66699 -51 -31 -51 -67c0 -20.667 6.66699 -37.667 20 -51s29.666 -20 48.999 -20s37 8.33301 53 25l6 -6c-6 -16 -16 -29 -30 -39c-15.333 -11.333 -31.333 -17 -48 -17s-31.834 2.33301 -45.501 7
s-25.5 14.667 -35.5 30s-15 33.5 -15 54.5s6.66699 39.667 20 56s32.166 28.833 56.499 37.5s36.5 22.334 36.5 41.001c0 6.66699 -1.33301 13.667 -4 21l-54 131h-253l-55 -130c-2.66699 -8.66699 -4 -15.667 -4 -21s1 -11.166 3 -17.499s6.33301 -12 13 -17
s14.334 -7.5 23.001 -7.5h8v-10h-191v10h8c14 0 28.167 4.83301 42.5 14.5s26.166 24.167 35.499 43.5l225.5 483c12.333 26.667 19.166 47.667 20.499 63h9l251 -554c18 -33.333 41 -50 69 -50h8v-10zM211.004 232.998h228l-112 274z" />
    <glyph glyph-name="Cacute" unicode="&#x106;" horiz-adv-x="760" 
d="M417 764l-6.99902 6.99902c50.667 54.667 93 98.334 127 131.001c18 -18 31.667 -35.667 41 -53c-42.667 -24.667 -96.334 -53 -161.001 -85zM159.501 86.999c-66.333 66.667 -99.5 154.499 -99.5 263.499s33.167 196.833 99.5 263.5s154.166 100 263.499 100
c89.333 0 168.333 -22.667 237 -68l20 -141h-9c-14.667 57.333 -44.334 101.5 -89.001 132.5s-97.667 46.5 -159 46.5c-87.333 0 -157.166 -30.333 -209.499 -91s-78.5 -141 -78.5 -241s25.833 -180.5 77.5 -241.5s119.834 -92.5 204.501 -94.5c74.667 0 137 20.333 187 61
c54 44 86.667 115.667 98 215h8l-12 -157c-60.667 -99.333 -154.334 -149 -281.001 -149c-105.333 0.666992 -191.166 34.334 -257.499 101.001z" />
    <glyph glyph-name="cacute" unicode="&#x107;" horiz-adv-x="705" 
d="M380 664l-6.99902 6.99902c50.667 54.667 93 98.334 127 131.001c18 -18 31.667 -35.667 41 -53c-42.667 -24.667 -96.334 -53 -161.001 -85zM138.501 70.999c-59 56 -88.499 132.501 -88.499 229.501s29.5 173.5 88.5 229.5s139.5 84 241.5 84
c41.333 0 83 -5.33301 125 -16s78.333 -25.334 109 -44.001l22 -142h-9c-28.667 114.667 -111.334 172 -248.001 172c-79.333 0 -142 -25.333 -188 -76s-69 -119.667 -69 -207s23 -156.333 69 -207c47.333 -51.333 110.5 -77 189.5 -77s143.5 19.5 193.5 58.5
s77.667 97.833 83 176.5h9l-11 -137c-26 -40 -63.667 -71.5 -113 -94.5s-103.333 -34.5 -162 -34.5c-102 0.666992 -182.5 29 -241.5 85z" />
    <glyph glyph-name="Cdotaccent" unicode="&#x10a;" horiz-adv-x="760" 
d="M416 765c-12 0 -22.167 4.16699 -30.5 12.5s-12.5 18.5 -12.5 30.5s4.16699 22.167 12.5 30.5s18.5 12.5 30.5 12.5s22.167 -4.16699 30.5 -12.5s12.5 -18.5 12.5 -30.5s-4.16699 -22.167 -12.5 -30.5s-18.5 -12.5 -30.5 -12.5zM159.5 87
c-66.333 66.667 -99.5 154.499 -99.5 263.499s33.167 196.833 99.5 263.5s154.166 100 263.499 100c89.333 0 168.333 -22.667 237 -68l20 -141h-9c-14.667 57.333 -44.334 101.5 -89.001 132.5s-97.667 46.5 -159 46.5c-87.333 0 -157.166 -30.333 -209.499 -91
s-78.5 -141 -78.5 -241s25.833 -180.5 77.5 -241.5s119.834 -92.5 204.501 -94.5c74.667 0 137 20.333 187 61c54 44 86.667 115.667 98 215h8l-12 -157c-60.667 -99.333 -154.334 -149 -281.001 -149c-105.333 0.666992 -191.166 34.334 -257.499 101.001z" />
    <glyph glyph-name="cdotaccent" unicode="&#x10b;" horiz-adv-x="705" 
d="M379 665c-12 0 -22.167 4.16699 -30.5 12.5s-12.5 18.5 -12.5 30.5s4.16699 22.167 12.5 30.5s18.5 12.5 30.5 12.5s22.167 -4.16699 30.5 -12.5s12.5 -18.5 12.5 -30.5s-4.16699 -22.167 -12.5 -30.5s-18.5 -12.5 -30.5 -12.5zM138.5 71
c-59 56 -88.499 132.499 -88.499 229.499s29.5 173.5 88.5 229.5s139.5 84 241.5 84c41.333 0 83 -5.33301 125 -16s78.333 -25.334 109 -44.001l22 -142h-9c-28.667 114.667 -111.334 172 -248.001 172c-79.333 0 -142 -25.333 -188 -76s-69 -120 -69 -208
c0 -57.333 10.333 -107.166 31 -149.499s50.667 -75.166 90 -98.499s85 -35 137 -35s97.5 7.83301 136.5 23.5s71.333 41.5 97 77.5s40.167 80.667 43.5 134h9l-11 -137c-26 -40 -63.667 -71.5 -113 -94.5s-103.333 -34.5 -162 -34.5c-102 0.666992 -182.5 29 -241.5 85z
" />
    <glyph glyph-name="Ccaron" unicode="&#x10c;" horiz-adv-x="760" 
d="M422 764h-10l-114 119l6 8l114 -66l104 66l6 -8zM60 351c0 72 14.832 135.332 44.499 189.999s72 97.167 127 127.5s118.833 45.5 191.5 45.5c89.333 0 168.333 -22.667 237 -68l20 -141h-9c-14.667 57.333 -44.334 101.5 -89.001 132.5s-97.667 46.5 -159 46.5
c-87.333 0 -157.166 -30.333 -209.499 -91s-78.5 -141 -78.5 -241s25.833 -180.5 77.5 -241.5s119.834 -92.5 204.501 -94.5c74.667 0 137 20.333 187 61c54 44 86.667 115.667 98 215h8l-12 -157c-60.667 -99.333 -154.334 -149 -281.001 -149
c-105.333 0.666992 -191.166 34.334 -257.499 101.001s-99.5 154.667 -99.5 264z" />
    <glyph glyph-name="ccaron" unicode="&#x10d;" horiz-adv-x="705" 
d="M385 664h-10l-114 119l6 8l114 -66l104 66l6 -8zM138.5 71c-59 56 -88.498 132.502 -88.498 229.502s29.5 173.5 88.5 229.5s139.5 84 241.5 84c41.333 0 83 -5.33301 125 -16s78.333 -25.334 109 -44.001l22 -142h-9c-28.667 114.667 -111.334 172 -248.001 172
c-79.333 0 -142 -25.333 -188 -76s-69 -120 -69 -208c0 -86.667 23 -155.334 69 -206.001c47.333 -51.333 111.666 -77 192.999 -77c104.667 0 181 33.667 229 101c26 36 40.667 80.667 44 134h9l-11 -137c-26 -40 -63.667 -71.5 -113 -94.5s-103.333 -34.5 -162 -34.5
c-102 0.666992 -182.5 29 -241.5 85z" />
    <glyph glyph-name="Dcaron" unicode="&#x10e;" horiz-adv-x="807" 
d="M404 764h-10l-114 119l6 8l114 -66l104 66l6 -8zM658.5 603.5c66.333 -64.333 99.501 -148.832 99.501 -253.499s-33.167 -189.167 -99.5 -253.5s-152.833 -96.5 -259.5 -96.5h-339v10h13c17.333 0 32.166 6.16699 44.499 18.5s18.833 27.166 19.5 44.499v560
c0 16 -6.5 29.5 -19.5 40.5s-27.833 16.5 -44.5 16.5h-13v10h339c106.667 0 193.167 -32.167 259.5 -96.5zM202.001 670.001v-639.999h197c56 0 105.5 13.333 148.5 40s76.333 64.167 100 112.5s35.5 104.166 35.5 167.499c0 96 -26.167 173.333 -78.5 232
s-120.833 88 -205.5 88h-197z" />
    <glyph glyph-name="dcaron" unicode="&#x10f;" horiz-adv-x="760" 
d="M393 665h-10l-114 119l6 8l113 -66l105 66l6 -8zM623.5 519.5c57.667 -53.667 86.499 -126.833 86.499 -219.5s-28.833 -165.834 -86.5 -219.501s-135.834 -80.5 -234.501 -80.5h-334v10h13c16 0 29.333 5.33301 40 16s16.334 23.334 17.001 38.001v472
c-0.666992 16 -6.5 29 -17.5 39s-24.5 15 -40.5 15h-12v10h334c98.667 0 176.834 -26.833 234.501 -80.5zM189.999 570.001v-539.998h199c76.667 0 137.334 24.167 182.001 72.5s67 114.166 67 197.499s-22.333 149.166 -67 197.499s-105.334 72.5 -182.001 72.5h-199z" />
    <glyph glyph-name="Dcroat" unicode="&#x110;" horiz-adv-x="807" 
d="M277 795v35h250v-35h-250zM658.5 603.5c66.333 -64.333 99.501 -148.832 99.501 -253.499s-33.167 -189.167 -99.5 -253.5s-152.833 -96.5 -259.5 -96.5h-339v10h13c17.333 0 32.166 6.16699 44.499 18.5s18.833 27.166 19.5 44.499v560c0 16 -6.5 29.5 -19.5 40.5
s-27.833 16.5 -44.5 16.5h-12l-1 10h339c106.667 0 193.167 -32.167 259.5 -96.5zM202.001 670.001v-639.999h197c56 0 105.5 13.333 148.5 40s76.333 64.167 100 112.5s35.5 104.166 35.5 167.499c0 96 -26.167 173.333 -78.5 232s-120.833 88 -205.5 88h-197z" />
    <glyph glyph-name="dcroat" unicode="&#x111;" horiz-adv-x="760" 
d="M266 696v35h250v-35h-250zM623.5 519.5c57.667 -53.667 86.499 -126.833 86.499 -219.5s-28.833 -165.834 -86.5 -219.501s-135.834 -80.5 -234.501 -80.5h-334v10h13c16 0 29.333 5.33301 40 16s16.334 23.334 17.001 38.001v472c-0.666992 16 -6.5 29 -17.5 39
s-24.5 15 -40.5 15h-12v10h334c98.667 0 176.834 -26.833 234.501 -80.5zM189.999 570.001v-539.998h199c76.667 0 137.334 24.167 182.001 72.5s67 114.166 67 197.499s-22.333 149.166 -67 197.499s-105.334 72.5 -182.001 72.5h-199z" />
    <glyph glyph-name="Emacron" unicode="&#x112;" 
d="M176 795v35h250v-35h-250zM73 10c17.333 0 32.168 6.16895 44.501 18.502s18.833 27.166 19.5 44.499v560c-2 16 -9 29.5 -21 40.5s-26.333 16.5 -43 16.5h-12l-1 10h293c20.667 0 43.167 2 67.5 6s41.5 8 51.5 12v-126h-10v18c0 16 -5.5 29.667 -16.5 41
s-24.167 17.333 -39.5 18h-204v-309h169c13.333 0.666992 24.666 5.66699 33.999 15s14 21 14 35v14h10v-158h-10v15c0 13.333 -4.5 24.666 -13.5 33.999s-20.167 14.333 -33.5 15h-170v-299h143c49.333 0 87 11 113 33s47.667 54.667 65 98h10l-58 -162h-415v10h13z" />
    <glyph glyph-name="emacron" unicode="&#x113;" horiz-adv-x="546" 
d="M175 695v35h250v-35h-250zM69 10c16 0 29.5 5.16504 40.5 15.498s16.833 22.833 17.5 37.5v475c0 14.667 -5.66699 27 -17 37s-25 15 -41 15h-14v10h292c27.333 0 51.333 2 72 6s34 7.33301 40 10v-114l-11 1v15c0 14 -4.66699 26 -14 36s-21.333 15 -36 15h-208v-254
h171c13.333 0 23.5 4 30.5 12s10.5 18 10.5 30v13h11v-140h-11v13c0 18.667 -7 31.334 -21 38.001c-5.33301 2 -11 3.33301 -17 4h-174v-254h157c30.667 0 56.5 5.33301 77.5 16s37 23.334 48 38.001s22.167 34 33.5 58h10l-55 -143h-406v10h14z" />
    <glyph glyph-name="Edotaccent" unicode="&#x116;" 
d="M297 765c-12 0 -22.167 4.16699 -30.5 12.5s-12.5 18.5 -12.5 30.5s4.16699 22.167 12.5 30.5s18.5 12.5 30.5 12.5s22.167 -4.16699 30.5 -12.5s12.5 -18.5 12.5 -30.5s-4.16699 -22.167 -12.5 -30.5s-18.5 -12.5 -30.5 -12.5zM73 10
c17.333 0 32.168 6.16797 44.501 18.501s18.833 27.166 19.5 44.499v560c-2.66699 22 -13.667 38.667 -33 50c-10 4.66699 -20.333 7 -31 7h-12l-1 10h293c28.667 0 54.167 2.33301 76.5 7s36.5 8.33398 42.5 11.001v-126h-10v18c0 16 -5.5 29.667 -16.5 41
s-24.167 17.333 -39.5 18h-204v-309h169c13.333 0.666992 24.666 5.66699 33.999 15s14 21 14 35v14h10v-158h-10v15c0 13.333 -4.5 24.666 -13.5 33.999s-20.167 14.333 -33.5 15h-170v-299h143c49.333 0 87 11 113 33s47.667 54.667 65 98h10l-58 -162h-415v10h13z" />
    <glyph glyph-name="edotaccent" unicode="&#x117;" horiz-adv-x="546" 
d="M295.5 665c-11.667 0 -21.834 4.16699 -30.501 12.5s-13 18.5 -13 30.5s4.33301 22.167 13 30.5s18.834 12.5 30.501 12.5s21.834 -4.16699 30.501 -12.5s13 -18.5 13 -30.5s-4.33301 -22.167 -13 -30.5s-18.834 -12.5 -30.501 -12.5zM69 10
c16 0 29.5 5.16602 40.5 15.499s16.833 22.833 17.5 37.5v475c0 14.667 -5.66699 27 -17 37s-25 15 -41 15h-14v10h292c19.333 0 40.5 1.66699 63.5 5s39.167 7 48.5 11v-114l-11 1v15c0 14 -4.66699 26 -14 36s-21.333 15 -36 15h-208v-254h171c13.333 0 23.5 4 30.5 12
s10.5 18 10.5 30v13h11v-140h-11v13c0 11.333 -3.33301 21 -10 29s-16 12.333 -28 13h-174v-254h157c30.667 0 56.5 5.33301 77.5 16s37 23.334 48 38.001s22.167 34 33.5 58h10l-55 -143h-406v10h14z" />
    <glyph glyph-name="Eogonek" unicode="&#x118;" 
d="M400 -75c0 -20 6.66992 -36.6641 20.0029 -49.9971s29.666 -20 48.999 -20s37 8.33301 53 25l6 -6c-6 -16 -16 -29 -30 -39c-26 -18.667 -56.333 -22.334 -91 -11.001c-15.333 5.33301 -28 15.666 -38 30.999s-15 34 -15 56s7.66699 41 23 57s35 26.667 59 32h-376v10h13
c17.333 0 32.166 6.16699 44.499 18.5s18.833 27.166 19.5 44.499v560c-2 16 -9 29.5 -21 40.5s-26.333 16.5 -43 16.5h-12l-1 10h293c28.667 0 54.167 2.33301 76.5 7s36.5 8.33398 42.5 11.001v-126h-10v18c0 16 -5.5 29.667 -16.5 41s-24.167 17.333 -39.5 18h-204v-309
h169c13.333 0.666992 24.666 5.66699 33.999 15s14 21 14 35v14h10v-158h-10v15c0 13.333 -4.5 24.666 -13.5 33.999s-20.167 14.333 -33.5 15h-170v-299h143c49.333 0 87 11 113 33s47.667 54.667 65 98h10l-59 -162c-49.333 -12 -74 -37 -74 -75z" />
    <glyph glyph-name="eogonek" unicode="&#x119;" horiz-adv-x="546" 
d="M378 -75c0 -20 6.83203 -36.666 20.499 -49.999s30.167 -20 49.5 -20s36.666 8.33301 51.999 25l6 -6c-5.33301 -16 -15 -29 -29 -39c-26 -19.333 -56.333 -23 -91 -11c-15.333 5.33301 -28.166 15.666 -38.499 30.999s-15.5 32.166 -15.5 50.499s3.66699 33.5 11 45.5
c14.667 25.333 38.334 41.666 71.001 48.999h-359v10h14c16 0 29.5 5.16699 40.5 15.5s16.833 22.833 17.5 37.5v475c0 14.667 -5.66699 27 -17 37s-25 15 -41 15h-14v10h292c27.333 0 51.333 2 72 6s34 7.33301 40 10v-114l-11 1v15c0 14 -4.66699 26 -14 36
s-21.333 15 -36 15h-208v-254h171c13.333 0 23.5 4 30.5 12s10.5 18 10.5 30v13h11v-140h-11v13c0 18.667 -7 31.334 -21 38.001c-5.33301 2 -11 3.33301 -17 4h-174v-254h157c30.667 0 56.5 5.33301 77.5 16s37 23.334 48 38.001s22.167 34 33.5 58h10l-55 -143h-8
c-50 -12 -75 -37 -75 -75z" />
    <glyph glyph-name="Ecaron" unicode="&#x11a;" 
d="M303 764h-10l-114 119l6 8l114 -66l104 66l6 -8zM73 10c17.333 0 32.168 6.16895 44.501 18.502s18.833 27.166 19.5 44.499v560c-2.66699 22 -13.667 38.333 -33 49c-10 5.33301 -20.333 8 -31 8h-12l-1 10h293c20.667 0 43.167 2 67.5 6s41.5 8 51.5 12v-126h-10v18
c0 16 -5.5 29.667 -16.5 41s-24.167 17.333 -39.5 18h-204v-309h169c13.333 0.666992 24.666 5.66699 33.999 15s14 21 14 35v14h10v-158h-10v15c0 13.333 -4.5 24.666 -13.5 33.999s-20.167 14.333 -33.5 15h-170v-299h143c49.333 0 87 11 113 33s47.667 54.667 65 98h10
l-58 -162h-415v10h13z" />
    <glyph glyph-name="ecaron" unicode="&#x11b;" horiz-adv-x="546" 
d="M302 664h-10l-114 119l6 8l113 -66l105 66l6 -8zM69 10c22 0 38.332 8.66699 48.999 26c5.33301 8 8.33301 17 9 27v475c0 14.667 -5.66699 27 -17 37s-25 15 -41 15h-14v10h292c19.333 0 40.5 1.66699 63.5 5s39.167 7 48.5 11v-114l-11 1v15c0 20 -8 34.667 -24 44
c-7.33301 4.66699 -16 7 -26 7h-208v-254h171c13.333 0 23.5 4 30.5 12s10.5 18 10.5 30v13h11v-140h-11v13c0 11.333 -3.33301 21 -10 29s-16 12.333 -28 13h-174v-254h157c44 0 77.333 9.5 100 28.5s42.334 46.833 59.001 83.5h10l-55 -143h-406v10h14z" />
    <glyph glyph-name="Gbreve" unicode="&#x11e;" horiz-adv-x="798" 
d="M523 868c0 -18.667 -4.66504 -36 -13.998 -52s-22 -28.667 -38 -38s-35.5 -14 -58.5 -14s-44.667 10.333 -65 31s-30.5 45 -30.5 73h10c5.33301 -14.667 16.5 -27.334 33.5 -38.001s36.667 -16 59 -16s42.166 5.33301 59.499 16s28.666 23.334 33.999 38.001h10z
M159.502 87c-66.333 66.667 -99.498 154.332 -99.498 262.999s33.167 196.5 99.5 263.5s152.833 100.5 259.5 100.5c92 0 173 -22.667 243 -68l20 -141h-9c-14.667 57.333 -44.167 101.5 -88.5 132.5s-99.5 46.5 -165.5 46.5c-84.667 0 -153.167 -30.667 -205.5 -92
s-78.5 -142 -78.5 -242s26.167 -180.5 78.5 -241.5s120.833 -91.833 205.5 -92.5c88 0 163.333 29 226 87v177c0 14.667 -4.5 25.834 -13.5 33.501s-21.5 11.5 -37.5 11.5h-16v10h196v-10h-15c-16.667 0 -29.334 -3.83301 -38.001 -11.5s-12.667 -18.834 -12 -33.501v-165
c-27.333 -36 -65.333 -66.5 -114 -91.5s-107.334 -37.5 -176.001 -37.5c-106.667 0.666992 -193.167 34.334 -259.5 101.001z" />
    <glyph glyph-name="gbreve" unicode="&#x11f;" horiz-adv-x="742" 
d="M481 768c0 -18.667 -4.66602 -36 -13.999 -52s-21.833 -28.667 -37.5 -38s-35.167 -14 -58.5 -14s-45.166 10.333 -65.499 31s-30.5 45 -30.5 73h10c5.33301 -14.667 16.666 -27.334 33.999 -38.001s37.166 -16 59.499 -16s42 5.33301 59 16s28.167 23.334 33.5 38.001
h10zM139.501 71.5c-59.667 56.333 -89.5 132.669 -89.5 229.002s29.833 172.666 89.5 228.999s136.667 84.5 231 84.5s174.5 -20 240.5 -60l22 -142h-9c-14 58.667 -41.167 102 -81.5 130s-97.333 42 -171 42s-133.667 -25.5 -180 -76.5s-69.5 -120.167 -69.5 -207.5
s23.333 -156.5 70 -207.5s111.167 -76.5 193.5 -76.5s153.166 29 212.499 87l1 133c0.666992 12 -3.16602 21.5 -11.499 28.5s-19.833 10.5 -34.5 10.5h-14v10h183v-10h-14c-30 0 -45 -13.333 -45 -40v-120c-28 -34.667 -66.5 -64.834 -115.5 -90.501
s-105.5 -38.5 -169.5 -38.5c-99.333 0.666992 -178.833 29.167 -238.5 85.5z" />
    <glyph glyph-name="Gdotaccent" unicode="&#x120;" horiz-adv-x="798" 
d="M418 765c-12 0 -22.167 4.16699 -30.5 12.5s-12.5 18.5 -12.5 30.5s4.16699 22.167 12.5 30.5s18.5 12.5 30.5 12.5s22.167 -4.16699 30.5 -12.5s12.5 -18.5 12.5 -30.5s-4.16699 -22.167 -12.5 -30.5s-18.5 -12.5 -30.5 -12.5zM159.5 87
c-66.333 66.667 -99.5 154.333 -99.5 263s33.167 196.5 99.5 263.5s152.833 100.5 259.5 100.5c92 0 173 -22.667 243 -68l20 -141h-9c-14.667 57.333 -44.167 101.5 -88.5 132.5s-99.5 46.5 -165.5 46.5c-84.667 0 -153.167 -30.667 -205.5 -92s-78.5 -142 -78.5 -242
s26.167 -180.5 78.5 -241.5s120.833 -91.833 205.5 -92.5c43.333 0 84.5 7.66699 123.5 23s73.167 36.666 102.5 63.999v177c0 14.667 -4.5 25.834 -13.5 33.501s-21.5 11.5 -37.5 11.5h-16v10h196v-10h-15c-16.667 0 -29.334 -3.83301 -38.001 -11.5
s-12.667 -18.834 -12 -33.501v-165c-17.333 -22.667 -38 -43 -62 -61s-56.167 -33.833 -96.5 -47.5s-84.166 -20.5 -131.499 -20.5c-106.667 0.666992 -193.167 34.334 -259.5 101.001z" />
    <glyph glyph-name="gdotaccent" unicode="&#x121;" horiz-adv-x="742" 
d="M377 665c-12 0 -22.167 4.16699 -30.5 12.5s-12.5 18.5 -12.5 30.5s4.16699 22.167 12.5 30.5s18.5 12.5 30.5 12.5s22.167 -4.16699 30.5 -12.5s12.5 -18.5 12.5 -30.5s-4.16699 -22.167 -12.5 -30.5s-18.5 -12.5 -30.5 -12.5zM139.5 71.5
c-59.667 56.333 -89.5 132.669 -89.5 229.002s29.833 172.666 89.5 228.999s136.667 84.5 231 84.5s174.5 -20 240.5 -60l22 -142h-9c-14 58.667 -41.167 102 -81.5 130s-97.333 42 -171 42s-133.667 -25.5 -180 -76.5s-69.5 -120.167 -69.5 -207.5s23.333 -156.5 70 -207.5
s111.167 -76.5 193.5 -76.5s153.166 29 212.499 87l1 133c0.666992 12 -3.16602 21.5 -11.499 28.5s-19.833 10.5 -34.5 10.5h-14v10h183v-10h-14c-30 0 -45 -13.333 -45 -40v-120c-28 -34.667 -66.5 -64.834 -115.5 -90.501s-105.5 -38.5 -169.5 -38.5
c-99.333 0.666992 -178.833 29.167 -238.5 85.5z" />
    <glyph glyph-name="Gcommaaccent" unicode="&#x122;" horiz-adv-x="798" 
d="M159.5 87c-66.333 66.667 -99.5 154.333 -99.5 263s33.167 196.5 99.5 263.5s152.833 100.5 259.5 100.5c92 0 173 -22.667 243 -68l20 -141h-9c-14.667 57.333 -44.167 101.5 -88.5 132.5s-99.5 46.5 -165.5 46.5c-84.667 0 -153.167 -30.667 -205.5 -92
s-78.5 -142 -78.5 -242s26.167 -180.5 78.5 -241.5s120.833 -91.833 205.5 -92.5c43.333 0 84.5 7.66699 123.5 23s73.167 36.666 102.5 63.999v177c0 14.667 -4.5 25.834 -13.5 33.501s-21.5 11.5 -37.5 11.5h-16v10h196v-10h-15c-16.667 0 -29.334 -3.83301 -38.001 -11.5
s-12.667 -18.834 -12 -33.501v-165c-17.333 -22.667 -38 -43 -62 -61s-56.167 -33.833 -96.5 -47.5s-84.166 -20.5 -131.499 -20.5c-106.667 0.666992 -193.167 34.334 -259.5 101.001zM392 -81.001c5.33301 11.333 15 17.002 29 17.002c15.333 0 26.166 -7.5 32.499 -22.5
s9.5 -27.167 9.5 -36.5c0 -28.667 -8.5 -49.834 -25.5 -63.501s-34.167 -20.834 -51.5 -21.501l-2 7c14.667 4.66699 25 12 31 22c10.667 18 9.33398 35 -3.99902 51c-1.33301 1.33301 -3.33301 3.5 -6 6.5s-4.66699 5.33301 -6 7s-3 4 -5 7s-3 5.83301 -3 8.5
c-2 6 -1.66699 12 1 18z" />
    <glyph glyph-name="gcommaaccent" unicode="&#x123;" horiz-adv-x="742" 
d="M139.5 71.5c-59.667 56.333 -89.5 132.669 -89.5 229.002s29.833 172.666 89.5 228.999s136.667 84.5 231 84.5s174.5 -20 240.5 -60l22 -142h-9c-14 58.667 -41.167 102 -81.5 130s-97.333 42 -171 42s-133.667 -25.5 -180 -76.5s-69.5 -120.167 -69.5 -207.5
s23.333 -156.5 70 -207.5s111.167 -76.5 193.5 -76.5s153.166 29 212.499 87l1 133c0.666992 12 -3.16602 21.5 -11.499 28.5s-19.833 10.5 -34.5 10.5h-14v10h183v-10h-14c-30 0 -45 -13.333 -45 -40v-120c-28 -34.667 -66.5 -64.834 -115.5 -90.501
s-105.5 -38.5 -169.5 -38.5c-99.333 0.666992 -178.833 29.167 -238.5 85.5zM348 -80.9971c5.33301 11.333 14.998 17.0039 28.998 17.0039c16 0 27 -7.5 33 -22.5s9 -27.167 9 -36.5c0 -28.667 -8.5 -49.834 -25.5 -63.501s-34.167 -20.834 -51.5 -21.501l-2 7
c14.667 4.66699 25 12 31 22c10.667 18 9.33398 35 -3.99902 51c-1.33301 1.33301 -3 3.16602 -5 5.49902l-5 6c-1.33301 1.66699 -2.83301 3.66699 -4.5 6s-3 4.5 -4 6.5s-1.83301 4.33301 -2.5 7c-1.33301 5.33301 -0.666016 10.666 2.00098 15.999z" />
    <glyph glyph-name="Hbar" unicode="&#x126;" horiz-adv-x="778" 
d="M530 10c17.333 0 32.166 6 44.499 18s18.833 26.667 19.5 44v259h-409v-258c0 -24.667 10.667 -43 32 -55c9.33301 -5.33301 20 -8 32 -8h12v-10h-218v10h13c17.333 0 32.166 6.16699 44.499 18.5s18.833 27.166 19.5 44.499v425h-64v30h64v100
c-0.666992 17.333 -7.16699 32 -19.5 44s-27.166 18 -44.499 18h-13v10h218v-10h-12c-17.333 0 -32.333 -6 -45 -18s-19 -26.667 -19 -44v-100h409v100c-0.666992 17.333 -7.16699 32 -19.5 44s-27.166 18 -44.499 18h-13v10h219v-10h-13c-24.667 0 -43 -10.333 -55 -31
c-6 -10 -9 -20.667 -9 -32v-99h66v-30h-66v-425c0 -17.333 6.33301 -32.166 19 -44.499s27.667 -18.5 45 -18.5h13v-10h-219v10h13zM185 361h409v137h-409v-137z" />
    <glyph glyph-name="hbar" unicode="&#x127;" horiz-adv-x="748" 
d="M680 10l11.999 -0.00195312v-10h-204v10h12c15.333 0 28.666 5.16699 39.999 15.5s17.333 22.833 18 37.5v218h-369v-218c0.666992 -20.667 10.334 -36 29.001 -46c9.33301 -4.66699 19 -7 29 -7h12v-10h-204v10h12c15.333 0 28.666 5.33301 39.999 16
s17.333 23.334 18 38.001v361h-66v30h66v81c-0.666992 14.667 -6.66699 27.334 -18 38.001s-24.666 16 -39.999 16h-12v10h204v-10h-12c-15.333 0 -28.666 -5.16699 -39.999 -15.5s-17.333 -22.833 -18 -37.5v-82h369v81c0 14.667 -4.33301 26 -13 34
c-14 13.333 -29 20 -45 20h-12v10h204v-10h-12c-21.333 0 -37.666 -8.66699 -48.999 -26c-5.33301 -8 -8.33301 -16.667 -9 -26v-83h72v-30h-72v-362c0.666992 -14.667 6.66699 -27.167 18 -37.5s24.666 -15.5 39.999 -15.5zM557.999 310.998v114h-369v-114h369z" />
    <glyph glyph-name="Imacron" unicode="&#x12a;" horiz-adv-x="338" 
d="M47 795v35h250v-35h-250zM73 10c17.333 0 32.165 6.16699 44.498 18.5s18.833 27.166 19.5 44.499v555c-0.666992 17.333 -7.16699 32 -19.5 44s-27.166 18 -44.499 18h-13v10h219v-10h-13c-17.333 0 -32.166 -6 -44.499 -18s-18.833 -26.667 -19.5 -44v-555
c0 -17.333 6.33301 -32.166 19 -44.499s27.667 -18.5 45 -18.5h13v-10h-219v10h13z" />
    <glyph glyph-name="imacron" unicode="&#x12b;" horiz-adv-x="306" 
d="M31 695v35h250v-35h-250zM66 10c15.333 0 28.334 5.33105 39.001 15.998s16 23.334 16 38.001v472c0 20.667 -9.33301 36.334 -28 47.001c-8 4.66699 -17 7 -27 7h-11v10h197l-1 -10h-10c-15.333 0 -28.333 -5.16699 -39 -15.5s-16.334 -22.833 -17.001 -37.5v-474
c0.666992 -20.667 10 -36 28 -46c8.66699 -4.66699 18 -7 28 -7h10l1 -10h-197v10h11z" />
    <glyph glyph-name="Iogonek" unicode="&#x12e;" horiz-adv-x="338" 
d="M113 -75c0 -20 6.83301 -36.667 20.5 -50s30.167 -20 49.5 -20s37 8.33301 53 25l6 -6c-6 -16 -16 -29 -30 -39c-15.333 -11.333 -31.333 -17 -48 -17s-31.834 2.33301 -45.501 7s-25.667 14.667 -36 30s-15.5 34 -15.5 56s7.66699 41 23 57s35 26.667 59 32h-89v10h13
c17.333 0 32.166 6.16699 44.499 18.5s18.833 27.166 19.5 44.499v555c-0.666992 17.333 -7.16699 32 -19.5 44s-27.166 18 -44.499 18h-13v10h219v-10h-13c-17.333 0 -32.166 -6 -44.499 -18s-18.833 -26.667 -19.5 -44v-555c0 -17.333 6.33301 -32.166 19 -44.499
s27.667 -18.5 45 -18.5h13v-10h-91c-50 -11.333 -75 -36.333 -75 -75z" />
    <glyph glyph-name="iogonek" unicode="&#x12f;" horiz-adv-x="307" 
d="M101 -75c0 -20 6.83398 -36.6689 20.501 -50.002s30 -20 49 -20s36.5 8.33301 52.5 25l6 -6c-6 -16 -15.667 -29 -29 -39c-16 -11.333 -32.167 -17 -48.5 -17s-31.333 2.33301 -45 7s-25.667 14.667 -36 30s-15.5 34 -15.5 56s7.66699 41 23 57s35 26.667 59 32h-80v10
h11c15.333 0 28.333 5.33301 39 16s16 23.334 16 38.001v472c0 20.667 -9.33301 36.334 -28 47.001c-8 4.66699 -17 7 -27 7h-11v10h197l-1 -10h-11c-20 0 -35.667 -8.66699 -47 -26c-4.66699 -8 -7.33398 -17 -8.00098 -27v-474c0.666992 -20.667 10 -36 28 -46
c8.66699 -4.66699 17.667 -7 27 -7h11l1 -10h-78c-50 -11.333 -75 -36.333 -75 -75z" />
    <glyph glyph-name="Idotaccent" unicode="&#x130;" horiz-adv-x="338" 
d="M168 765c-12 0 -22.167 4.16699 -30.5 12.5s-12.5 18.5 -12.5 30.5s4.16699 22.167 12.5 30.5s18.5 12.5 30.5 12.5s22.167 -4.16699 30.5 -12.5s12.5 -18.5 12.5 -30.5s-4.16699 -22.167 -12.5 -30.5s-18.5 -12.5 -30.5 -12.5zM73 10
c17.333 0 32.165 6.16699 44.498 18.5s18.833 27.166 19.5 44.499v555c-0.666992 17.333 -7.16699 32 -19.5 44s-27.166 18 -44.499 18h-13v10h219v-10h-13c-17.333 0 -32.166 -6 -44.499 -18s-18.833 -26.667 -19.5 -44v-555c0 -17.333 6.33301 -32.166 19 -44.499
s27.667 -18.5 45 -18.5h13v-10h-219v10h13z" />
    <glyph glyph-name="dotlessi" unicode="&#x131;" horiz-adv-x="306" 
d="M66 10c15.333 0 28.334 5.33105 39.001 15.998s16 23.334 16 38.001v472c0 20.667 -9.33301 36.334 -28 47.001c-8 4.66699 -17 7 -27 7h-11v10h197l-1 -10h-10c-15.333 0 -28.333 -5.16699 -39 -15.5s-16.334 -22.833 -17.001 -37.5v-474
c0.666992 -20.667 10 -36 28 -46c8.66699 -4.66699 18 -7 28 -7h10l1 -10h-197v10h11z" />
    <glyph glyph-name="IJ" unicode="&#x132;" horiz-adv-x="662" 
d="M73 10c17.333 0 32.165 6.16699 44.498 18.5s18.833 27.166 19.5 44.499v555c-0.666992 17.333 -7.16699 32 -19.5 44s-27.166 18 -44.499 18h-13v10h219v-10h-13c-17.333 0 -32.166 -6 -44.499 -18s-18.833 -26.667 -19.5 -44v-555
c0 -17.333 6.33301 -32.166 19 -44.499s27.667 -18.5 45 -18.5h13v-10h-219v10h13zM603.999 690c-24 0 -42.335 -10.333 -55.002 -31c-5.33301 -9.33301 -8.33301 -20 -9 -32v-627c0 -56 -17.5 -103.333 -52.5 -142s-78.167 -58 -129.5 -58v9
c32.667 11.333 60.334 35.833 83.001 73.5s34 77.834 34 120.501v624c-0.666992 17.333 -7.16699 32.166 -19.5 44.499s-27.166 18.5 -44.499 18.5h-13v10h219v-10h-13z" />
    <glyph glyph-name="ij" unicode="&#x133;" horiz-adv-x="645" 
d="M69 10c18 0 33.667 5.33105 47 15.998s20 23.334 20 38.001v472c0 14.667 -6.66699 27.334 -20 38.001s-29.333 16 -48 16h-13v10h226v-10h-13c-18 0 -33.5 -5 -46.5 -15s-20.167 -22.333 -21.5 -37v-475c0.666992 -14.667 7.66699 -27.167 21 -37.5s29 -15.5 47 -15.5
h13l1 -10h-227v10h14zM597 589.998c-17.333 0 -32.335 -5.33301 -45.002 -16s-19.334 -23.334 -20.001 -38.001v-536c0 -48.667 -18.167 -90.5 -54.5 -125.5s-79.166 -52.5 -128.499 -52.5v10c32 10 59.833 31.333 83.5 64s35.5 67.334 35.5 104.001v540
c-1.33301 14 -8.16602 25.833 -20.499 35.5s-27.166 14.5 -44.499 14.5h-12l-1 10h220v-10h-13z" />
    <glyph glyph-name="Kcommaaccent" unicode="&#x136;" horiz-adv-x="657" 
d="M266 10h12.999v-10h-219v10h13c17.333 0 32.166 6.16699 44.499 18.5s18.833 27.166 19.5 44.499v555c-0.666992 17.333 -7.16699 32 -19.5 44s-27.166 18 -44.499 18h-13v10h219v-10h-13c-17.333 0 -32.166 -6 -44.499 -18s-18.833 -26.667 -19.5 -44v-555
c0 -17.333 6.33301 -32.166 19 -44.499s27.667 -18.5 45 -18.5zM667.999 0l-43.001 0.000976562c-68 0 -118 19 -150 57l-241 291l236 296c5.33301 6.66699 8 12.667 8 18s-1 10 -3 14c-5.33301 10 -15 15 -29 15h-10v9h211v-9h-4c-44 0 -80 -15.667 -108 -47l-235 -272
l273 -321c26.667 -26.667 58.334 -40.334 95.001 -41.001v-10zM358.998 -80.999c5.33301 11.333 15 17.002 29 17.002c15.333 0 26 -7.5 32 -22.5s9 -27.167 9 -36.5c0 -28.667 -8.33301 -49.834 -25 -63.501s-34 -20.834 -52 -21.501l-2 7c15.333 4.66699 26 12 32 22
c10.667 18 9 35 -5 51c-0.666992 1.33301 -2.33398 3.5 -5.00098 6.5s-4.66699 5.33301 -6 7s-3 4 -5 7s-3.33301 5.83301 -4 8.5c-1.33301 6 -0.666016 12 2.00098 18z" />
    <glyph glyph-name="kcommaaccent" unicode="&#x137;" horiz-adv-x="624" 
d="M249 10l11 -0.00195312v-10h-205v10h12c16 0 29.667 5.33301 41 16s17.333 23.334 18 38.001v472c-0.666992 14.667 -6.66699 27.334 -18 38.001s-25 16 -41 16h-12v10h205v-10h-12c-21.333 0 -38 -8.66699 -50 -26c-5.33301 -8 -8 -17 -8 -27v-474
c0 -14.667 5.83301 -27.167 17.5 -37.5s25.5 -15.5 41.5 -15.5zM629 -0.00195312l-37.001 0.000976562c-65.333 0 -114.333 19 -147 57l-220 241l215 253c7.33301 9.33301 8.5 18.166 3.5 26.499s-13.5 12.5 -25.5 12.5h-9v10h204v-10h-4c-40.667 0 -73 -12 -97 -36
l-218 -233l248 -270c12 -14.667 24.333 -25 37 -31s29.334 -9.33301 50.001 -10v-10zM333.999 -81.001c5.33301 11.333 15.001 17 29.001 17c15.333 0 26.166 -7.5 32.499 -22.5s9.5 -29.333 9.5 -43s-4.33301 -27.167 -13 -40.5c-16 -24 -37.667 -36.667 -65 -38l-2 7
c15.333 4.66699 25.666 12 30.999 22c10.667 18 9.33398 35 -3.99902 51c-0.666992 1.33301 -2.33398 3.5 -5.00098 6.5s-4.66699 5.33301 -6 7s-3 4 -5 7s-3.33301 5.83301 -4 8.5c-1.33301 6 -0.666016 12 2.00098 18z" />
    <glyph glyph-name="Lacute" unicode="&#x139;" horiz-adv-x="562" 
d="M169 764l-6.99902 7l127 131c18 -18 31.667 -35.667 41 -53c-42.667 -24.667 -96.334 -53 -161.001 -85zM73.001 10c17.333 0 32.166 6.16895 44.499 18.502s18.833 27.166 19.5 44.499v554c-0.666992 17.333 -7.16699 32.166 -19.5 44.499s-27.166 18.5 -44.499 18.5
h-13v10h219v-10h-13c-24 0 -42.333 -10.333 -55 -31c-6 -10 -9 -20.667 -9 -32v-596h143c49.333 0 87 11 113 33s47.667 54.667 65 98h10l-58 -162h-415v10h13z" />
    <glyph glyph-name="lacute" unicode="&#x13a;" horiz-adv-x="536" 
d="M157 664l-6.99902 6.99902c50.667 54.667 93 98.334 127 131.001c18 -18 31.667 -35.667 41 -53c-42.667 -24.667 -96.334 -53 -161.001 -85zM69.001 9.99902c16 0 29.5 5.16504 40.5 15.498s16.833 22.833 17.5 37.5v473
c-0.666992 14.667 -6.83398 27.334 -18.501 38.001s-25.5 16 -41.5 16h-12v10h207v-10h-12c-16 0 -29.833 -5.33301 -41.5 -16s-17.5 -23.334 -17.5 -38.001v-505h156c44 0.666992 77.333 10.334 100 29.001s42.334 46.334 59.001 83.001h10l-55 -143h-406v10h14z" />
    <glyph glyph-name="Lcommaaccent" unicode="&#x13b;" horiz-adv-x="562" 
d="M73 10c17.333 0 32.166 6.16895 44.499 18.502s18.833 27.166 19.5 44.499v554c-0.666992 17.333 -7.16699 32.166 -19.5 44.499s-27.166 18.5 -44.499 18.5h-13v10h219v-10h-13c-24 0 -42.333 -10.333 -55 -31c-6 -10 -9 -20.667 -9 -32v-596h143c49.333 0 87 11 113 33
s47.667 54.667 65 98h10l-58 -162h-415v10h13zM280 -66.998c5.33301 11.333 14.998 17.002 28.998 17.002c15.333 0 26 -7.5 32 -22.5s9 -27.167 9 -36.5c0 -28.667 -8.33301 -49.834 -25 -63.501s-34 -20.834 -52 -21.501l-1 7c14.667 4.66699 25 12 31 22
c10.667 18 9.33398 35 -3.99902 51c-1.33301 1.33301 -3.33301 3.5 -6 6.5s-4.66699 5.33301 -6 7s-3 4 -5 7s-3.33301 5.83301 -4 8.5c-1.33301 6 -0.666016 12 2.00098 18z" />
    <glyph glyph-name="lcommaaccent" unicode="&#x13c;" horiz-adv-x="536" 
d="M69 10c16 0 29.501 5.16602 40.501 15.499s16.833 22.833 17.5 37.5v473c-0.666992 14.667 -6.83398 27.334 -18.501 38.001s-25.5 16 -41.5 16h-12v10h207v-10h-12c-16 0 -29.833 -5.33301 -41.5 -16s-17.5 -23.334 -17.5 -38.001v-505h156
c30.667 0 56.667 5.33301 78 16s37.5 23.334 48.5 38.001s21.833 34 32.5 58h10l-55 -143h-406v10h14zM301.001 -81.001c4.66699 11.333 14.333 17.002 29 17.002c15.333 0 26 -7.5 32 -22.5s9 -27.167 9 -36.5c0 -28.667 -8.5 -49.834 -25.5 -63.501
s-34.167 -20.834 -51.5 -21.501l-2 7c15.333 4.66699 25.666 12 30.999 22c10.667 18 9.33398 35 -3.99902 51c-0.666992 1.33301 -2.33398 3.5 -5.00098 6.5s-4.66699 5.33301 -6 7s-3 4 -5 7s-3.33301 5.83301 -4 8.5c-1.33301 6 -0.666016 12 2.00098 18z" />
    <glyph glyph-name="Lcaron" unicode="&#x13d;" horiz-adv-x="562" 
d="M432 683.5c6 -15 8.99902 -29.333 8.99902 -43s-4.33301 -27.5 -13 -41.5c-15.333 -24 -36.666 -36.333 -63.999 -37l-2 6c14.667 4.66699 25 12 31 22c10.667 19.333 7.66699 38.333 -9 57c-14 16 -18.667 29.833 -14 41.5s14.667 17.5 30 17.5s26 -7.5 32 -22.5z
M72.999 10c17.333 0 32.166 6.16797 44.499 18.501s18.833 27.166 19.5 44.499v554c-0.666992 17.333 -7.16699 32.166 -19.5 44.499s-27.166 18.5 -44.499 18.5h-13v10h219v-10h-13c-17.333 0 -32.333 -6.16699 -45 -18.5s-19 -27.166 -19 -44.499v-596h143
c49.333 0 87 11 113 33s47.667 54.667 65 98h10l-58 -162h-415v10h13z" />
    <glyph glyph-name="lcaron" unicode="&#x13e;" horiz-adv-x="536" 
d="M424 580.5c6 -15 8.99902 -29.333 8.99902 -43s-4.33301 -27.5 -13 -41.5c-15.333 -24 -36.666 -36.333 -63.999 -37l-2 6c14.667 4.66699 25 12 31 22c10.667 19.333 7.66699 38.333 -9 57c-14 16 -18.667 29.833 -14 41.5s14.667 17.5 30 17.5s26 -7.5 32 -22.5z
M68.999 10c16 0 29.5 5.16504 40.5 15.498s16.833 22.833 17.5 37.5v473c-0.666992 14.667 -6.83398 27.334 -18.501 38.001s-25.5 16 -41.5 16h-12v10h207v-10h-12c-16 0 -29.833 -5.33301 -41.5 -16s-17.5 -23.334 -17.5 -38.001v-505h156
c44 0.666992 77.333 10.334 100 29.001s42.334 46.334 59.001 83.001h10l-55 -143h-406v10h14z" />
    <glyph glyph-name="Ldot" unicode="&#x13f;" horiz-adv-x="562" 
d="M73 10c17.333 0 32.166 6.16895 44.499 18.502s18.833 27.166 19.5 44.499v554c-0.666992 17.333 -7.16699 32.166 -19.5 44.499s-27.166 18.5 -44.499 18.5h-13v10h219v-10h-13c-24 0 -42.333 -10.333 -55 -31c-6 -10 -9 -20.667 -9 -32v-596h143c49.333 0 87 11 113 33
s47.667 54.667 65 98h10l-58 -162h-415v10h13zM334.5 403.002c-12.333 0 -23 4.33301 -32 13s-13.5 19.334 -13.5 32.001s4.5 23.334 13.5 32.001s19.667 13 32 13s22.833 -4.33301 31.5 -13s13 -19.334 13 -32.001s-4.33301 -23.334 -13 -32.001s-19.167 -13 -31.5 -13z
" />
    <glyph glyph-name="ldot" unicode="&#x140;" horiz-adv-x="536" 
d="M69 10c16 0 29.501 5.16602 40.501 15.499s16.833 22.833 17.5 37.5v473c-0.666992 14.667 -6.83398 27.334 -18.501 38.001s-25.5 16 -41.5 16h-12v10h207v-10h-12c-16 0 -29.833 -5.33301 -41.5 -16s-17.5 -23.334 -17.5 -38.001v-505h156
c30.667 0 56.667 5.33301 78 16s37.5 23.334 48.5 38.001s21.833 34 32.5 58h10l-55 -143h-406v10h14zM314.501 342.999c-12.333 0 -23 4.33301 -32 13s-13.5 19.334 -13.5 32.001s4.5 23.334 13.5 32.001s19.667 13 32 13s22.833 -4.33301 31.5 -13s13 -19.334 13 -32.001
s-4.33301 -23.334 -13 -32.001s-19.167 -13 -31.5 -13z" />
    <glyph glyph-name="Lslash" unicode="&#x141;" horiz-adv-x="562" 
d="M73 10c17.333 0 32.166 6.16797 44.499 18.501s18.833 27.166 19.5 44.499v235l-104 -60l-15 26l119 69v284c-0.666992 17.333 -7.16699 32.166 -19.5 44.499s-27.166 18.5 -44.499 18.5h-13v10h219v-10h-13c-17.333 0 -32.333 -6.16699 -45 -18.5
s-19 -27.166 -19 -44.499v-247l124 72l15 -26l-139 -80v-315h143c49.333 0 87 11 113 33s47.667 54.667 65 98h10l-58 -162h-415v10h13z" />
    <glyph glyph-name="lslash" unicode="&#x142;" horiz-adv-x="536" 
d="M69 10c22 0 38.667 8.66602 50 25.999c4.66699 8 7.33398 17 8.00098 27v193l-63 -37l-14 25l77 45v247c-0.666992 14.667 -6.83398 27.334 -18.501 38.001s-25.5 16 -41.5 16h-12v10h207v-10h-12c-16 0 -29.833 -5.33301 -41.5 -16s-17.5 -23.334 -17.5 -38.001v-211
l141 82l15 -24l-156 -90v-262h156c30.667 0 56.667 5.33301 78 16s37.5 23.334 48.5 38.001s21.833 34 32.5 58h10l-55 -143h-406v10h14z" />
    <glyph glyph-name="Nacute" unicode="&#x143;" horiz-adv-x="841" 
d="M426 764l-7 6.99902c50.667 54.667 93 98.334 127 131.001c18 -18 31.667 -35.667 41 -53c-43.333 -24.667 -97 -53 -161 -85zM778 689.999c-16.667 0 -31 -5.83203 -43 -17.499s-18.333 -25.834 -19 -42.501v-516c0 -38.667 2.33301 -75.334 7 -110.001l2 -18h-9
l-545 582v-498c0.666992 -23.333 11 -40.666 31 -51.999c9.33301 -5.33301 19.333 -8 30 -8h19v-10h-206v10h19c16.667 0 31 5.83301 43 17.5s18 26.167 18 43.5v519c0 40.667 -2.33301 77 -7 109l-2 16h10l545 -582v496c-0.666992 17.333 -7 31.833 -19 43.5
s-26.333 17.5 -43 17.5h-19v10h206v-10h-18z" />
    <glyph glyph-name="nacute" unicode="&#x144;" horiz-adv-x="779" 
d="M388 664l-7 6.99902c50.667 54.667 93 98.334 127 131.001c18 -18 31.667 -35.667 41 -53c-43.333 -24.667 -97 -53 -161 -85zM727 589.999c-14.667 0 -27.3311 -4.83203 -37.998 -14.499s-16.334 -21.5 -17.001 -35.5v-426c0 -38.667 2.33301 -75.334 7 -110.001l2 -18
h-9l-520 493v-417c0 -14.667 5.33301 -27 16 -37s23.667 -15 39 -15h17v-10h-189v10h17c15.333 0 28.333 5 39 15s16 22.333 16 37v428c0 40.667 -2.33301 77 -7 109l-2 16l11 -1l519 -489v415c-1.33301 14 -7.33301 25.833 -18 35.5s-23.334 14.5 -38.001 14.5h-17v10h189
v-10h-17z" />
    <glyph glyph-name="Ncommaaccent" unicode="&#x145;" horiz-adv-x="841" 
d="M778 690c-16.667 0 -31 -5.83203 -43 -17.499s-18.333 -25.834 -19 -42.501v-516c0 -38.667 2.33301 -75.334 7 -110.001l2 -18h-9l-545 582v-498c0.666992 -23.333 11 -40.666 31 -51.999c9.33301 -5.33301 19.333 -8 30 -8h19v-10h-206v10h19
c16.667 0 31 5.83301 43 17.5s18 26.167 18 43.5v519c0 40.667 -2.33301 77 -7 109l-2 16h10l545 -582v496c-0.666992 17.333 -7 31.833 -19 43.5s-26.333 17.5 -43 17.5h-19v10h206v-10h-18zM399 -80.999c4.66699 11.333 14.333 17 29 17
c15.333 0 26.166 -7.5 32.499 -22.5s9.5 -29.333 9.5 -43s-4.33301 -27.167 -13 -40.5c-16 -24 -37.667 -36.667 -65 -38l-2 7c14.667 4.66699 25 12 31 22c10.667 18 9.33398 35 -3.99902 51c-1.33301 1.33301 -3.16602 3.5 -5.49902 6.5s-4.33301 5.33301 -6 7
s-3.33398 4 -5.00098 7s-2.83398 5.83301 -3.50098 8.5c-1.33301 6 -0.666016 12 2.00098 18z" />
    <glyph glyph-name="ncommaaccent" unicode="&#x146;" horiz-adv-x="779" 
d="M727 590c-14.667 0 -27.3311 -4.83203 -37.998 -14.499s-16.334 -21.5 -17.001 -35.5v-426c0 -38.667 2.33301 -75.334 7 -110.001l2 -18h-9l-520 493v-417c0 -14.667 5.33301 -27 16 -37s23.667 -15 39 -15h17v-10h-189v10h17c15.333 0 28.333 5 39 15s16 22.333 16 37
v428c0 40.667 -2.33301 77 -7 109l-2 16l11 -1l519 -489v415c-1.33301 14 -7.33301 25.833 -18 35.5s-23.334 14.5 -38.001 14.5h-17v10h189v-10h-17zM371.003 -80.999c4.66699 11.333 14.334 17 29.001 17c15.333 0 26.166 -7.5 32.499 -22.5s9.5 -29.333 9.5 -43
s-4.33301 -27.167 -13 -40.5c-16 -24 -37.667 -36.667 -65 -38l-2 7c15.333 4.66699 25.666 12 30.999 22c10.667 18 9.33398 35 -3.99902 51c-0.666992 1.33301 -2.33398 3.5 -5.00098 6.5s-4.66699 5.33301 -6 7s-3 4 -5 7s-3.33301 5.83301 -4 8.5
c-1.33301 6 -0.666016 12 2.00098 18z" />
    <glyph glyph-name="Ncaron" unicode="&#x147;" horiz-adv-x="841" 
d="M431 764h-10l-114 119l6 8l113 -66l105 66l6 -8zM778 690c-16.667 0 -31 -5.83008 -43 -17.4971s-18.333 -25.834 -19 -42.501v-516c0 -38.667 2.33301 -75.334 7 -110.001l2 -18h-9l-545 582v-498c0 -16.667 6 -30.834 18 -42.501s26.333 -17.5 43 -17.5h19v-10h-206v10
h19c16.667 0 31 5.83301 43 17.5s18 26.167 18 43.5v519c0 40.667 -2.33301 77 -7 109l-2 16h10l545 -582v496c-0.666992 17.333 -7 31.833 -19 43.5s-26.333 17.5 -43 17.5h-19v10h206v-10h-18z" />
    <glyph glyph-name="ncaron" unicode="&#x148;" horiz-adv-x="779" 
d="M393 664h-10l-114 119l6 8l113 -66l105 66l6 -8zM727 590c-14.667 0 -27.3311 -4.83203 -37.998 -14.499s-16.334 -21.5 -17.001 -35.5v-426c0 -38.667 2.33301 -75.334 7 -110.001l2 -18h-9l-520 493v-417c0 -20 9.33301 -35 28 -45c8 -4.66699 17 -7 27 -7h17v-10h-189
v10h17c15.333 0 28.333 5 39 15s16 22.333 16 37v428c0 40.667 -2.33301 77 -7 109l-2 16l11 -1l519 -489v415c-1.33301 14 -7.33301 25.833 -18 35.5s-23.334 14.5 -38.001 14.5h-17v10h189v-10h-17z" />
    <glyph glyph-name="Eng" unicode="&#x14a;" horiz-adv-x="819" 
d="M758 687c-14.667 0 -27.168 -4.99902 -37.501 -14.999s-15.5 -22.333 -15.5 -37v-667c0 -34 -6.16699 -63.333 -18.5 -88s-27.666 -43 -45.999 -55s-39.5 -20.667 -63.5 -26l-5 8c24.667 11.333 45.5 30.166 62.5 56.499s25.5 61.833 25.5 106.5v63l-500 535v-503
c0 -14.667 5.16699 -27 15.5 -37s22.833 -15 37.5 -15h16v-13h-184v13h16c14.667 0 27.167 5 37.5 15s15.5 22.333 15.5 37v525c0 40.667 -2.33301 77 -7 109l-2 16h10l544 -581v501c0 14.667 -5.16699 27 -15.5 37s-22.833 15 -37.5 15h-16v13h184v-13h-16z" />
    <glyph glyph-name="eng" unicode="&#x14b;" horiz-adv-x="839" 
d="M728 590c-14 0 -25.999 -4.66895 -35.999 -14.002s-15.667 -21 -17 -35v-558c0 -45.333 -11 -81.166 -33 -107.499s-50.333 -43.166 -85 -50.499l-5 8c22 10 40.5 28.333 55.5 55s22.5 59 22.5 97v41l-478 453v-417c0 -14.667 5.33301 -27 16 -37s23.667 -15 39 -15h17
v-10h-189v10h17c15.333 0 28.333 5 39 15s16 22.333 16 37v428c0 40.667 -2.33301 77 -7 109l-2 16l11 -1l521 -490v416c0 14 -5.33301 25.833 -16 35.5s-23.334 14.5 -38.001 14.5h-16v10h184v-10h-16z" />
    <glyph glyph-name="Omacron" unicode="&#x14c;" horiz-adv-x="838" 
d="M307 795v35h250v-35h-250zM429 714c106.667 0 193.334 -33.5 260.001 -100.5s100 -154.833 100 -263.5s-33.333 -196.5 -100 -263.5s-153.334 -100.5 -260.001 -100.5s-193.167 33.5 -259.5 100.5s-99.5 154.833 -99.5 263.5s33.167 196.5 99.5 263.5
s152.833 100.5 259.5 100.5zM429.5 16c85 0 153.334 30.666 205.001 91.999s77.5 142 77.5 242c0 66 -11.667 124.333 -35 175s-56.5 89.834 -99.5 117.501s-92.5 41.5 -148.5 41.5c-84.667 0 -152.834 -30.667 -204.501 -92s-77.5 -142 -77.5 -242
s25.833 -180.667 77.5 -242s120 -92 205 -92z" />
    <glyph glyph-name="omacron" unicode="&#x14d;" horiz-adv-x="774" 
d="M265 695v35h250v-35h-250zM387.5 614c61.667 0 118.167 -13.167 169.5 -39.5s92.166 -63.5 122.499 -111.5s45.5 -102.333 45.5 -163s-15.167 -115 -45.5 -163s-71.166 -85.167 -122.499 -111.5s-107.833 -39.5 -169.5 -39.5s-118.167 13.167 -169.5 39.5
s-92.166 63.5 -122.499 111.5s-45.5 102.333 -45.5 163s15.167 115 45.5 163s71.166 85.167 122.499 111.5s107.833 39.5 169.5 39.5zM387 16c74.667 0 137.334 26.5 188.001 79.5s76 121.167 76 204.5s-25.333 151.5 -76 204.5s-113.334 79.5 -188.001 79.5
s-137.167 -26.5 -187.5 -79.5s-75.5 -121.167 -75.5 -204.5s25.167 -151.5 75.5 -204.5s112.833 -79.5 187.5 -79.5z" />
    <glyph glyph-name="Ohungarumlaut" unicode="&#x150;" horiz-adv-x="838" 
d="M372 768l-11 2c20 44 42.333 87.667 67 131c24 -1.33301 44.333 -5.33301 61 -12c-36 -40 -75 -80.333 -117 -121zM494 768l-11 1.99902c20.667 48.667 43 92.334 67 131.001c20 0 40.333 -4 61 -12c-45.333 -50.667 -84.333 -91 -117 -121zM429.5 713.999
c107 0 193.667 -33.5 260 -100.5s99.5 -154.833 99.5 -263.5s-33.167 -196.5 -99.5 -263.5s-153 -100.5 -260 -100.5s-193.667 33.5 -260 100.5s-99.5 154.833 -99.5 263.5s33.167 196.5 99.5 263.5s153 100.5 260 100.5zM429.5 15.999c85 0 153.334 30.666 205.001 91.999
s77.5 142 77.5 242c0 66 -11.667 124.333 -35 175s-56.5 89.834 -99.5 117.501s-92.5 41.5 -148.5 41.5c-84.667 0 -152.834 -30.667 -204.501 -92s-77.5 -142 -77.5 -242s25.833 -180.667 77.5 -242s120 -92 205 -92z" />
    <glyph glyph-name="ohungarumlaut" unicode="&#x151;" horiz-adv-x="774" 
d="M330 668l-11 2c20.667 44 43 87.667 67 131c24.667 -1.33301 45 -5.33301 61 -12c-36 -40 -75 -80.333 -117 -121zM453 668l-10.999 1.99902c20 48.667 42.333 92.334 67 131.001c19.333 0 39.333 -4 60 -12c-44.667 -50.667 -83.334 -91 -116.001 -121zM387.501 613.999
c61.667 0 118.167 -13.167 169.5 -39.5s92.166 -63.5 122.499 -111.5s45.5 -102.333 45.5 -163s-15.167 -115 -45.5 -163s-71.166 -85.167 -122.499 -111.5s-107.833 -39.5 -169.5 -39.5s-118.167 13.167 -169.5 39.5s-92.166 63.5 -122.499 111.5s-45.5 102.333 -45.5 163
s15.167 115 45.5 163s71.166 85.167 122.499 111.5s107.833 39.5 169.5 39.5zM387.501 15.999c75 0 137.667 26.5 188 79.5s75.5 121.167 75.5 204.5s-25.167 151.5 -75.5 204.5s-113 79.5 -188 79.5s-137.667 -26.5 -188 -79.5s-75.5 -121.167 -75.5 -204.5
s25.167 -151.5 75.5 -204.5s113 -79.5 188 -79.5z" />
    <glyph glyph-name="OE" unicode="&#x152;" horiz-adv-x="962" 
d="M874 0l-278 0.00195312c-26.667 0 -60 -2.33301 -100 -7s-67.333 -7 -82 -7c-106 0 -191.5 33.333 -256.5 100s-97.5 154.667 -97.5 264c0 54 8.5 103.667 25.5 149s40.833 83.666 71.5 114.999s68.167 55.833 112.5 73.5s88.166 26.5 131.499 26.5
s81.166 -2.33301 113.499 -7s58.833 -7 79.5 -7h158c20.667 0 43.334 2 68.001 6s41.667 8 51 12v-126h-12v18c0 16 -5.33301 29.667 -16 41s-24 17.333 -40 18h-206v-309h173c14 0.666992 25.667 5.66699 35 15s14 21 14 35v14h10v-158h-10v15
c0 13.333 -4.66699 24.666 -14 33.999s-20.666 14.333 -33.999 15h-174v-299h148c48.667 0 86 11 112 33s47.667 54.667 65 98h10zM414 684.002c-84.667 0 -152.834 -30.668 -204.501 -92.001s-77.5 -142 -77.5 -242s25.833 -180.667 77.5 -242s119.834 -92 204.501 -92
c43.333 0 77.333 7 102 21c13.333 8 20 17 20 27v572c0 16.667 -12.333 28.834 -37 36.501s-53 11.5 -85 11.5z" />
    <glyph glyph-name="oe" unicode="&#x153;" horiz-adv-x="885" 
d="M800 0l-265.999 -0.00292969c-28.667 0 -60.667 -2.33301 -96 -7s-60 -7 -74 -7c-94.667 0 -170.667 28.167 -228 84.5s-86 132.833 -86 229.5s28.667 173.167 86 229.5s133.333 84.5 228 84.5c26.667 0 56.167 -2.33301 88.5 -7s58.833 -7 79.5 -7h162
c25.333 0 47.5 2 66.5 6s31.167 7.33301 36.5 10v-113h-10v15c0 14.667 -4.5 26.834 -13.5 36.501s-20.833 14.5 -35.5 14.5h-203v-255h170c12.667 0.666992 22.5 4.83398 29.5 12.501s10.5 17.834 10.5 30.501v12h10v-140h-10v13c0 12 -3.5 22 -10.5 30
s-16.833 12 -29.5 12h-170v-253h158c40.667 0 71.667 9.5 93 28.5s39.666 46.833 54.999 83.5h10zM364.001 584.997c-72.667 0 -131.334 -25.6689 -176.001 -77.002s-67 -120.666 -67 -207.999s22.333 -156.666 67 -207.999s103.334 -77 176.001 -77
c28.667 0 54.167 4.5 76.5 13.5s33.5 21.167 33.5 36.5v471c0 16.667 -10.667 29 -32 37s-47.333 12 -78 12z" />
    <glyph glyph-name="Racute" unicode="&#x154;" horiz-adv-x="677" 
d="M324 764l-7 6.99902c50.667 54.667 92.667 98.334 126 131.001c18 -18 31.667 -35.667 41 -53c-42.667 -24.667 -96 -53 -160 -85zM266 668.999l-64.002 0.00292969v-596c0 -17.333 6.16699 -32.166 18.5 -44.499s27.5 -18.5 45.5 -18.5h12l1 -10h-219v10h13
c17.333 0 32.166 6 44.499 18s18.833 26.667 19.5 44v555c-0.666992 17.333 -7.16699 32.166 -19.5 44.499s-27.166 18.5 -44.499 18.5h-13v10h270c60.667 0 108.334 -16.833 143.001 -50.5s52 -77.334 52 -131.001s-16.5 -100 -49.5 -139s-73.167 -58.5 -120.5 -58.5
c10 -4.66699 21.833 -13.834 35.5 -27.501s25.834 -27.834 36.501 -42.501c57.333 -82 95.333 -133.167 114 -153.5s32.5 -34.5 41.5 -42.5s18.833 -15.667 29.5 -23c22 -14.667 47.333 -22 76 -22v-10h-55c-28.667 0 -55.334 5.16699 -80.001 15.5s-43.167 21 -55.5 32
s-23 21.667 -32 32s-33.833 44.833 -74.5 103.5s-64.334 92.167 -71.001 100.5s-13.667 16.5 -21 24.5c-21.333 22.667 -42.666 34 -63.999 34v10c5.33301 -0.666992 12.333 -1 21 -1s19.334 0.333008 32.001 1c82.667 2 134.667 36.667 156 104c4 13.333 6 25.833 6 37.5
v22.5c-1.33301 44.667 -13 80.667 -35 108s-51.667 42 -89 44c-16 0.666992 -36 1 -60 1z" />
    <glyph glyph-name="racute" unicode="&#x155;" horiz-adv-x="627" 
d="M302 664l-6.99902 6.99902c50.667 54.667 93 98.334 127 131.001c18 -18 31.667 -35.667 41 -53c-42.667 -24.667 -96.334 -53 -161.001 -85zM242.001 568.999l-53 0.000976562v-505c0.666992 -20.667 10 -36.334 28 -47.001c8.66699 -4.66699 18.334 -7 29.001 -7h13
l1 -10h-205v10h14c15.333 0 28.5 5.16699 39.5 15.5s16.5 22.833 16.5 37.5v475c0 14.667 -5.5 27 -16.5 37s-24.167 15 -39.5 15h-14v10h251c62.667 0 112.167 -14.333 148.5 -43s54.5 -66.334 54.5 -113.001s-14.667 -85.667 -44 -117s-66.666 -49.333 -111.999 -54
c21.333 -9.33301 47 -35.333 77 -78c-0.666992 0 10.833 -14.667 34.5 -44s42.667 -52.166 57 -68.499s26.166 -28.833 35.499 -37.5c24.667 -23.333 53 -35 85 -35v-10h-31c-52.667 0 -94 10.333 -124 31c-22.667 15.333 -43.334 34.333 -62.001 57l-50.5 70.5l-47.5 66.5
c-36 44.667 -69.667 67 -101 67v10c78 0 125 4 141 12c22 11.333 37 23.333 45 36c16.667 26.667 25 56 25 88c0 40.667 -12 72 -36 94s-56.333 34 -97 36c-18 0.666992 -38.667 1 -62 1z" />
    <glyph glyph-name="Rcommaaccent" unicode="&#x156;" horiz-adv-x="677" 
d="M266 669l-64.001 0.00292969v-596c0 -17.333 6.16699 -32.166 18.5 -44.499s27.5 -18.5 45.5 -18.5h12l1 -10h-219v10h13c17.333 0 32.166 6 44.499 18s18.833 26.667 19.5 44v555c-0.666992 17.333 -7.16699 32.166 -19.5 44.499s-27.166 18.5 -44.499 18.5h-13v10h270
c60.667 0 108.334 -16.833 143.001 -50.5s52 -77.334 52 -131.001s-16.5 -100 -49.5 -139s-73.167 -58.5 -120.5 -58.5c10 -4.66699 21.833 -13.834 35.5 -27.501s25.834 -27.834 36.501 -42.501c57.333 -82 94.666 -132.5 111.999 -151.5s29.666 -32 36.999 -39
s15.333 -13.833 24 -20.5s17.334 -12 26.001 -16c19.333 -9.33301 40 -14 62 -14v-10h-55c-28.667 0 -55.334 5.16699 -80.001 15.5s-43.167 21 -55.5 32s-23 21.667 -32 32s-33.833 44.833 -74.5 103.5s-64.334 92.167 -71.001 100.5s-13.667 16.5 -21 24.5
c-21.333 22.667 -42.666 34 -63.999 34v10c5.33301 -0.666992 12.333 -1 21 -1s19.334 0.333008 32.001 1c82.667 2 134.667 36.667 156 104c4 13.333 6 25.833 6 37.5v22.5c-1.33301 44.667 -13 80.667 -35 108s-51.667 42 -89 44c-16 0.666992 -36 1 -60 1z
M349.999 -66.9971c5.33301 11.333 14.999 17 28.999 17c16 0 27 -7.5 33 -22.5s9 -29.333 9 -43s-4.33301 -27.167 -13 -40.5c-15.333 -24 -36.666 -36.667 -63.999 -38l-2 7c14.667 4.66699 25 12 31 22c10.667 18 9.33398 35 -3.99902 51
c-1.33301 1.33301 -3.33301 3.5 -6 6.5s-4.66699 5.33301 -6 7s-2.83301 4 -4.5 7s-2.83398 5.83301 -3.50098 8.5c-2 6 -1.66699 12 1 18z" />
    <glyph glyph-name="rcommaaccent" unicode="&#x157;" horiz-adv-x="627" 
d="M242 569l-53 0.000976562v-505c0.666992 -20.667 10 -36.334 28 -47.001c8.66699 -4.66699 18.334 -7 29.001 -7h13l1 -10h-205v10h14c15.333 0 28.5 5.16699 39.5 15.5s16.5 22.833 16.5 37.5v475c0 14.667 -5.5 27 -16.5 37s-24.167 15 -39.5 15h-14v10h251
c62.667 0 112.167 -14.333 148.5 -43s54.5 -66.334 54.5 -113.001s-14.667 -85.667 -44 -117s-66.666 -49.333 -111.999 -54c21.333 -9.33301 47 -35.333 77 -78c-0.666992 0 10.833 -14.667 34.5 -44s42.667 -52.166 57 -68.499s26.166 -28.833 35.499 -37.5
c24.667 -23.333 53 -35 85 -35v-10h-31c-52.667 -0 -94 10.333 -124 31c-22.667 15.333 -43.334 34.333 -62.001 57l-50.5 70.5l-47.5 66.5c-36 44.667 -69.667 67 -101 67v10c78 0 125 4 141 12c22 11.333 37 23.333 45 36c16.667 26.667 25 56 25 88
c0 40.667 -12 72 -36 94s-56.333 34 -97 36c-18 0.666992 -38.667 1 -62 1zM340 -80.999c5.33301 11.333 15 17.002 29 17.002c15.333 0 26 -7.5 32 -22.5s9 -27.167 9 -36.5c0 -28.667 -8.33301 -49.834 -25 -63.501s-34 -20.834 -52 -21.501l-2 7
c15.333 4.66699 26 12 32 22c10.667 18 9 35 -5 51c-0.666992 1.33301 -2.33398 3.5 -5.00098 6.5s-4.66699 5.33301 -6 7s-3 4 -5 7s-3.33301 5.83301 -4 8.5c-1.33301 6 -0.666016 12 2.00098 18z" />
    <glyph glyph-name="Rcaron" unicode="&#x158;" horiz-adv-x="677" 
d="M329 764h-10l-115 119l6 8l114 -66l105 66l6 -8zM266 669l-63.999 0.00390625v-596c0 -17.333 6.16699 -32.166 18.5 -44.499s27.5 -18.5 45.5 -18.5h12v-10h-218v10h13c17.333 0 32.166 6 44.499 18s18.833 26.667 19.5 44v555
c-0.666992 17.333 -7.16699 32.166 -19.5 44.499s-27.166 18.5 -44.499 18.5h-13v10h270c60.667 0 108.334 -16.833 143.001 -50.5s52 -77.334 52 -131.001s-16.5 -100 -49.5 -139s-73.167 -58.5 -120.5 -58.5c10 -4.66699 21.833 -13.834 35.5 -27.501
s25.834 -27.834 36.501 -42.501c57.333 -82 98.166 -136.333 122.499 -163s46.666 -46.334 66.999 -59.001s44.166 -19 71.499 -19v-10h-55c-28.667 0 -55.334 5.16699 -80.001 15.5s-43.167 21 -55.5 32s-23 21.667 -32 32s-33.833 44.833 -74.5 103.5
s-64.334 92.167 -71.001 100.5s-13.667 16.5 -21 24.5c-21.333 22.667 -42.666 34 -63.999 34v10c5.33301 -0.666992 12.333 -1 21 -1s19.334 0.333008 32.001 1c82.667 2 134.667 36.667 156 104c4 13.333 6 25.833 6 37.5v22.5c-1.33301 44.667 -13 80.667 -35 108
s-51.667 42 -89 44c-16 0.666992 -36 1 -60 1z" />
    <glyph glyph-name="rcaron" unicode="&#x159;" horiz-adv-x="627" 
d="M307 664h-10l-114 119l6 8l114 -66l104 66l6 -8zM242 569h-53.0059v-505c0.666992 -20.667 10 -36.334 28 -47.001c8.66699 -4.66699 18.334 -7 29.001 -7h13l1 -10h-205v10h14c15.333 0 28.333 5.16699 39 15.5s16.334 22.833 17.001 37.5v475
c0 14.667 -5.5 27 -16.5 37s-24.167 15 -39.5 15h-14v10h251c62.667 0 112.167 -14.333 148.5 -43s54.5 -66.334 54.5 -113.001s-14.667 -85.667 -44 -117s-66.666 -49.333 -111.999 -54c10.667 -4.66699 23.334 -14.667 38.001 -30s24.834 -27.166 30.501 -35.499
s12.834 -18.166 21.501 -29.499c40 -53.333 69.167 -89 87.5 -107s32.833 -31 43.5 -39c18.667 -14.667 41.334 -22 68.001 -22v-10h-31c-52.667 -0 -94 10.333 -124 31c-22.667 15.333 -43.334 34.333 -62.001 57l-50.5 70.5l-47.5 66.5c-36 44.667 -69.667 67 -101 67v10
c78 0 125 4 141 12c22 11.333 37 23 45 35c16.667 27.333 25 57 25 89c0 40.667 -12 72 -36 94s-56.333 34 -97 36c-18 0.666992 -38.667 1 -62 1z" />
    <glyph glyph-name="Sacute" unicode="&#x15a;" horiz-adv-x="475" 
d="M239 764l-6.99902 7l127 131c18 -18 31.667 -35.667 41 -53c-42.667 -24.667 -96.334 -53 -161.001 -85zM61.001 41c-2 9.33301 -3.00098 27.333 -3.00098 54s5 55 15 85h9c-0.666992 -7.33301 -1 -14.666 -1 -21.999c0 -40.667 12.333 -74.5 37 -101.5
s57.334 -40.5 98.001 -40.5c42 0 76.5 12.667 103.5 38s40.5 57.166 40.5 95.499s-13 69.5 -39 93.5l-192 178c-36 33.333 -54 73.666 -54 120.999s15.833 87.833 47.5 121.5s74.5 50.5 128.5 50.5c25.333 0 54 -3.33301 86 -10h39v-123h-9
c0 31.333 -10.833 56.333 -32.5 75s-49.5 28 -83.5 28s-62.5 -11.333 -85.5 -34s-34.5 -51 -34.5 -85s13.333 -63.333 40 -88l197 -182c33.333 -30.667 50 -72.667 50 -126s-17 -97.166 -51 -131.499s-79.333 -51.5 -136 -51.5c-29.333 0 -60.5 4.5 -93.5 13.5
s-58.5 22.833 -76.5 41.5z" />
    <glyph glyph-name="sacute" unicode="&#x15b;" horiz-adv-x="462" 
d="M232 664l-6.99902 6.99902c50.667 54.667 93 98.334 127 131.001c18 -18 31.667 -35.667 41 -53c-42.667 -24.667 -96.334 -53 -161.001 -85zM58.001 32.999c-2 8 -3.00195 24.5 -3.00195 49.5s4.33301 49.833 13 74.5h12c-0.666992 -6 -1 -12 -1 -18
c0 -36 11.833 -65.5 35.5 -88.5s56.5 -34.5 98.5 -34.5c44 0 78.333 10.167 103 30.5s37 46.666 37 78.999s-12 59.166 -36 80.499l-200 154c-32 27.333 -48 64 -48 110c0 26 7.16699 50 21.5 72s34.333 39.5 60 52.5s55.834 19.5 90.501 19.5s65.334 -3 92.001 -9h33
l2 -109h-11c0 28 -9.66699 49.667 -29 65s-47 23 -83 23s-65.667 -9.16699 -89 -27.5s-35 -42 -35 -71s13 -54.167 39 -75.5l202 -156c30.667 -25.333 46 -60.666 46 -105.999s-17.167 -83.666 -51.5 -114.999s-76.166 -47 -125.499 -47c-32.667 0 -65.334 4 -98.001 12
s-57.667 19.667 -75 35z" />
    <glyph glyph-name="Scedilla" unicode="&#x15e;" horiz-adv-x="475" 
d="M61 41c-2 9.33301 -3.00293 27.335 -3.00293 54.002s5 55 15 85h9c-0.666992 -7.33301 -1 -14.666 -1 -21.999c0 -40.667 12.333 -74.5 37 -101.5s57.334 -40.5 98.001 -40.5c42 0 76.5 12.667 103.5 38s40.5 57.166 40.5 95.499s-13 69.5 -39 93.5l-192 178
c-36 33.333 -54 73.666 -54 120.999s15.833 87.833 47.5 121.5s74.5 50.5 128.5 50.5c25.333 0 54 -3.33301 86 -10h39v-123h-9c0 31.333 -10.833 56.333 -32.5 75s-49.5 28 -83.5 28s-62.5 -11.333 -85.5 -34s-34.5 -51 -34.5 -85s13.333 -63.333 40 -88l197 -182
c33.333 -30.667 50 -71.667 50 -123s-14.833 -93.833 -44.5 -127.5s-69.834 -52.834 -120.501 -57.501l-41 -47c10.667 4 21.667 6 33 6c28 0 47 -6.83301 57 -20.5s15 -29.167 15 -46.5c0 -29.333 -14.667 -51 -44 -65c-17.333 -8 -34.166 -12 -50.499 -12
s-31.833 2.33301 -46.5 7l1 10c24 0 45 5 63 15s27 25.333 27 46c0 29.333 -17 44 -51 44c-11.333 0 -22.333 -2.66699 -33 -8l-5 10l47 60c-29.333 0.666992 -59.666 5.5 -90.999 14.5s-55.666 22.5 -72.999 40.5z" />
    <glyph glyph-name="scedilla" unicode="&#x15f;" horiz-adv-x="412" 
d="M48 33c-2.66699 8 -4.00684 24.3369 -4.00684 49.0039s4.33301 49.667 13 75h12c-0.666992 -6 -1 -12 -1 -18c0 -36 12 -65.5 36 -88.5s57 -34.5 99 -34.5c44 0 78.167 10.167 102.5 30.5s36.5 46.666 36.5 78.999s-12 59.166 -36 80.499l-200 154
c-32 27.333 -48 64 -48 110c0 26 7.16699 50 21.5 72s34.333 39.5 60 52.5s55.834 19.5 90.501 19.5s65.334 -3 92.001 -9h34l1 -109h-11c0 28 -9.66699 49.667 -29 65s-47 23 -83 23s-65.667 -9.16699 -89 -27.5s-35 -42 -35 -71s13 -54.167 39 -75.5l203 -156
c30 -25.333 45 -60.333 45 -105s-16.167 -82.334 -48.5 -113.001s-72.166 -47.334 -119.499 -50.001l-41 -47c11.333 4 22.333 6 33 6c28 0 47 -6.83301 57 -20.5s15 -29.167 15 -46.5c0 -29.333 -14.333 -51 -43 -65c-17.333 -8 -34.166 -12 -50.499 -12
s-32.166 2.33301 -47.499 7l1 10c24.667 0 45.834 5 63.501 15s26.5 25.333 26.5 46c0 29.333 -16.667 44 -50 44c-11.333 0 -22.666 -2.66699 -33.999 -8l-5 10l48 61c-72 4 -123.333 19.667 -154 47z" />
    <glyph glyph-name="Scaron" unicode="&#x160;" horiz-adv-x="475" 
d="M244 764h-10l-114 119l6 8l114 -66l104 66l6 -8zM61 41c-2 9.33301 -3.00098 27.333 -3.00098 54s5 55 15 85h9c-0.666992 -7.33301 -1 -14.666 -1 -21.999c0 -40.667 12.333 -74.5 37 -101.5s57.334 -40.5 98.001 -40.5c42 0 76.5 12.667 103.5 38
s40.5 57.166 40.5 95.499s-13 69.5 -39 93.5l-192 178c-36 33.333 -54 73.666 -54 120.999s15.833 87.833 47.5 121.5s74.5 50.5 128.5 50.5c25.333 0 54 -3.33301 86 -10h39v-123h-10c0.666992 31.333 -9.83301 56.333 -31.5 75s-49.5 28 -83.5 28s-62.5 -11.333 -85.5 -34
s-34.5 -51 -34.5 -85s13.333 -63.333 40 -88l197 -182c33.333 -30.667 50 -72.667 50 -126s-17 -97.166 -51 -131.499s-79.333 -51.5 -136 -51.5c-29.333 0 -60.5 4.5 -93.5 13.5s-58.5 22.833 -76.5 41.5z" />
    <glyph glyph-name="scaron" unicode="&#x161;" horiz-adv-x="462" 
d="M237 664h-10l-114 119l6 8l114 -66l104 66l6 -8zM58 33c-2 8 -3.00195 24.333 -3.00195 49s4.33301 49.667 13 75h12c-0.666992 -6 -1 -12 -1 -18c0 -36 11.833 -65.5 35.5 -88.5s56.5 -34.5 98.5 -34.5c44 0 78.333 10.167 103 30.5s37 46.666 37 78.999
s-12 59.166 -36 80.499l-200 154c-32 27.333 -48 64 -48 110c0 26 7.16699 50 21.5 72s34.333 39.5 60 52.5s55.834 19.5 90.501 19.5s65.334 -3 92.001 -9h33l2 -109h-12c0 28 -9.5 49.667 -28.5 65s-46.5 23 -82.5 23s-65.667 -9.16699 -89 -27.5s-35 -42 -35 -71
s13 -54.167 39 -75.5l202 -156c30.667 -25.333 46 -60.666 46 -105.999s-17.167 -83.666 -51.5 -114.999s-76.166 -47 -125.499 -47c-32.667 0 -65.334 4 -98.001 12s-57.667 19.667 -75 35z" />
    <glyph glyph-name="Tcedilla" unicode="&#x162;" horiz-adv-x="618" 
d="M340 -108c0 29.333 -16.999 44 -50.999 44c-10.667 0 -21.667 -2.66699 -33 -8l-5 10l48 62h-99v10h13c17.333 0 32.166 6 44.499 18s18.833 26.333 19.5 43v600h-190c-16 -0.666992 -29.5 -6.83398 -40.5 -18.501s-16.5 -25.5 -16.5 -41.5v-17l-10 -1v126
c10 -4 27.333 -8 52 -12s47.334 -6 68.001 -6h338c29.333 0 55.166 2.33301 77.499 7s36.833 8.33398 43.5 11.001v-126l-10 1v17c0 22.667 -9.66699 39.667 -29 51c-8.66699 5.33301 -18 8.33301 -28 9h-190v-599c0.666992 -17.333 7.16699 -32 19.5 -44
s27.166 -18 44.499 -18h13v-10h-93l-41 -48c10.667 4 21.667 6 33 6c28 0 47 -6.83301 57 -20.5s15 -29.167 15 -46.5c0 -29.333 -14.667 -51 -44 -65c-16.667 -8 -33.167 -12 -49.5 -12s-32.166 2.33301 -47.499 7l1 10c24 0 45 5 63 15s27 25.333 27 46z" />
    <glyph glyph-name="tcedilla" unicode="&#x163;" horiz-adv-x="578" 
d="M318 -108c0 29.333 -17.002 44 -51.002 44c-11.333 0 -22.333 -2.66699 -33 -8l-5 10l47 62h-90v10h12c16 0 29.667 5.33301 41 16s17.333 23.334 18 38.001v507h-181c-15.333 0 -27.5 -5 -36.5 -15s-13.5 -22 -13.5 -36v-16h-11v113
c13.333 -5.33301 32.166 -9.33301 56.499 -12s42.5 -4 54.5 -4h326c26.667 0 50.5 2 71.5 6s34.5 7.33301 40.5 10v-113h-11v16c0 14 -4.66699 26 -14 36s-21.333 15 -36 15h-181v-508c0.666992 -20.667 10.667 -36 30 -46c8.66699 -4.66699 18.334 -7 29.001 -7h11v-10h-88
l-41 -48c20.667 7.33301 39.334 8.66602 56.001 3.99902c32.667 -8.66699 49 -29 49 -61s-14.667 -55 -44 -69c-17.333 -8 -34.166 -12 -50.499 -12s-31.833 2.33301 -46.5 7l1 10c24 0 45 5 63 15s27 25.333 27 46z" />
    <glyph glyph-name="Tcaron" unicode="&#x164;" horiz-adv-x="618" 
d="M314 764h-10l-114 119l6 8l113 -66l105 66l6 -8zM589 611c0 22.667 -9.66797 39.668 -29.001 51.001c-8.66699 5.33301 -18 8.33301 -28 9h-190v-599c0.666992 -24 11.334 -42 32.001 -54c10 -5.33301 20.667 -8 32 -8h13v-10h-219v10h13c17.333 0 32.166 6 44.499 18
s18.833 26.333 19.5 43v600h-190c-16 -0.666992 -29.5 -6.83398 -40.5 -18.501s-16.5 -25.5 -16.5 -41.5v-17l-10 -1v126c10 -4 27.333 -8 52 -12s47.334 -6 68.001 -6h338c20.667 0 43.5 2 68.5 6s42.5 8 52.5 12v-126l-10 1v17z" />
    <glyph glyph-name="tcaron" unicode="&#x165;" horiz-adv-x="578" 
d="M295 665h-10l-115 119l6 8l114 -66l105 66l6 -8zM322 571l0.00195312 -508.001c0.666992 -14.667 6.66699 -27.167 18 -37.5s25 -15.5 41 -15.5h11v-10h-206v10h12c16 0 29.667 5.33301 41 16s17.333 23.334 18 38.001v507h-181
c-20.667 -0.666992 -35.334 -9.33398 -44.001 -26.001c-4 -7.33301 -6 -15.666 -6 -24.999v-16h-11v113c9.33301 -4 25.5 -7.66699 48.5 -11s43.833 -5 62.5 -5h326c18.667 0 39.667 1.66699 63 5s39.666 7 48.999 11v-113h-11v16c0 19.333 -8 34 -24 44
c-7.33301 4.66699 -16 7 -26 7h-181z" />
    <glyph glyph-name="Tbar" unicode="&#x166;" horiz-adv-x="618" 
d="M589 611c0 22.667 -9.66602 39.668 -28.999 51.001c-8.66699 5.33301 -18 8.33301 -28 9h-190v-270h162v-30h-162v-299c0.666992 -17.333 7.16699 -32 19.5 -44s27.166 -18 44.499 -18h13v-10h-219v10h13c17.333 0 32.166 6 44.499 18s18.833 26.333 19.5 43v300h-161v30
h161v270h-190c-16 -0.666992 -29.5 -6.83398 -40.5 -18.501s-16.5 -25.5 -16.5 -41.5v-17l-10 -1v126c10 -4 27.333 -8 52 -12s47.334 -6 68.001 -6h338c20.667 0 43.5 2 68.5 6s42.5 8 52.5 12v-126l-10 1v17z" />
    <glyph glyph-name="tbar" unicode="&#x167;" horiz-adv-x="578" 
d="M322 571l0.00195312 -233.001h148v-30h-148v-245c0.666992 -14.667 6.66699 -27.167 18 -37.5s25 -15.5 41 -15.5h11v-10h-206v10h12c16 0 29.833 5.33301 41.5 16s17.5 23.334 17.5 38.001v244h-145v30h145v233h-181c-15.333 0 -27.5 -5 -36.5 -15s-13.5 -22 -13.5 -36
v-16h-11v113c13.333 -5.33301 32.166 -9.33301 56.499 -12s42.5 -4 54.5 -4h326c18.667 0 39.667 1.66699 63 5s39.666 7 48.999 11v-113h-11v16c0 19.333 -8 34 -24 44c-7.33301 4.66699 -16 7 -26 7h-181z" />
    <glyph glyph-name="Umacron" unicode="&#x16a;" horiz-adv-x="785" 
d="M279 795v35h250v-35h-250zM735 690l-16 0.000976562c-14 0 -26.167 -4.5 -36.5 -13.5s-15.833 -20.167 -16.5 -33.5v-396c0 -78 -24.667 -141 -74 -189s-115 -72 -197 -72s-148.5 23.833 -199.5 71.5s-76.5 110.5 -76.5 188.5v394c0 20 -8.66699 34.667 -26 44
c-8 4 -17 6 -27 6h-16v10h203v-10h-16c-14.667 0 -27 -4.5 -37 -13.5s-15.333 -20.5 -16 -34.5v-382c0 -72.667 19.5 -131.334 58.5 -176.001s91.167 -67 156.5 -67s118.333 21.167 159 63.5s61 97.833 61 166.5v395c-0.666992 14 -6 25.5 -16 34.5s-22.333 13.5 -37 13.5
h-16v10h185v-10z" />
    <glyph glyph-name="umacron" unicode="&#x16b;" horiz-adv-x="700" 
d="M228 695v35h250v-35h-250zM665 590h-15.002c-18 0 -31.667 -7 -41 -21c-4 -6 -6.33301 -13 -7 -21v-337c0 -69.333 -22.167 -124.166 -66.5 -164.499s-105.166 -60.5 -182.499 -60.5s-138.333 20 -183 60s-67 94.667 -67 164v337c0 12 -4.66699 22.167 -14 30.5
s-20.666 12.5 -33.999 12.5h-15v10h190v-10h-15c-13.333 0 -24.666 -4.16699 -33.999 -12.5s-14 -18.5 -14 -30.5v-325c0 -64.667 16.5 -115.667 49.5 -153s79.667 -56 140 -56s108.666 17.667 144.999 53s54.5 83.666 54.5 144.999v336c-0.666992 12.667 -5.5 23 -14.5 31
s-20.167 12 -33.5 12h-15v10h172v-10z" />
    <glyph glyph-name="Uring" unicode="&#x16e;" horiz-adv-x="785" 
d="M354 904.5c14 6.33301 32.332 9.5 54.999 9.5s42.834 -6.66699 60.501 -20s26.5 -31.666 26.5 -54.999c0 -29.333 -15.333 -51 -46 -65c-14.667 -6.66699 -33 -10 -55 -10s-42 7.16699 -60 21.5s-27 30.5 -27 48.5s4.16699 32.667 12.5 44s19.5 20.166 33.5 26.499z
M401.499 897c-14.333 0 -26 -5.16699 -35 -15.5s-13.5 -24.5 -13.5 -42.5s4.5 -32 13.5 -42s20.667 -15 35 -15s26.166 5 35.499 15s14 24 14 42s-4.66699 32.167 -14 42.5s-21.166 15.5 -35.499 15.5zM734.999 690l-16 0.000976562c-14 0 -26.167 -4.5 -36.5 -13.5
s-15.833 -20.167 -16.5 -33.5v-396c0 -78 -24.667 -141 -74 -189s-115 -72 -197 -72s-148.5 23.833 -199.5 71.5s-76.5 110.5 -76.5 188.5v394c0 14.667 -5.16699 26.667 -15.5 36s-22.833 14 -37.5 14h-16v10h203v-10h-16c-14.667 0 -27 -4.5 -37 -13.5
s-15.333 -20.5 -16 -34.5v-382c0 -72.667 19.5 -131.334 58.5 -176.001s91.167 -67 156.5 -67s118.333 21.167 159 63.5s61 97.833 61 166.5v395c-0.666992 14 -6 25.5 -16 34.5s-22.333 13.5 -37 13.5h-16v10h185v-10z" />
    <glyph glyph-name="uring" unicode="&#x16f;" horiz-adv-x="700" 
d="M418.5 794c17.667 -13.333 26.5 -29.333 26.5 -48s-4.33301 -33.667 -13 -45c-17.333 -24.667 -42 -37 -74 -37s-56.833 7.16699 -74.5 21.5s-26.5 32.333 -26.5 54s8.83301 39.5 26.5 53.5s40.167 21 67.5 21s49.833 -6.66699 67.5 -20zM350.5 797
c-14.333 0 -26 -5.16699 -35 -15.5s-13.5 -24.5 -13.5 -42.5s4.5 -32 13.5 -42s20.667 -15 35 -15s26.166 5 35.499 15s14 24 14 42s-4.66699 32.167 -14 42.5s-21.166 15.5 -35.499 15.5zM665 590h-15.002c-18 0 -31.667 -7 -41 -21c-4 -6 -6.33301 -13 -7 -21v-337
c0 -69.333 -22.167 -124.166 -66.5 -164.499s-105.166 -60.5 -182.499 -60.5s-138.333 20 -183 60s-67 94.667 -67 164v337c0 12 -4.66699 22.167 -14 30.5s-20.666 12.5 -33.999 12.5h-15v10h190v-10h-15c-13.333 0 -24.666 -4.16699 -33.999 -12.5s-14 -18.5 -14 -30.5
v-325c0 -64.667 16.5 -115.667 49.5 -153s79.667 -56 140 -56s108.666 17.667 144.999 53s54.5 83.666 54.5 144.999v336c-0.666992 12.667 -5.5 23 -14.5 31s-20.167 12 -33.5 12h-15v10h172v-10z" />
    <glyph glyph-name="Uhungarumlaut" unicode="&#x170;" horiz-adv-x="785" 
d="M345 768l-11 2c20 44 42.333 87.667 67 131c24 -1.33301 44 -5.33301 60 -12c-36 -40 -74.667 -80.333 -116 -121zM467 768l-10.999 1.99902c20 48.667 42.333 92.334 67 131.001c19.333 0 39.666 -4 60.999 -12c-45.333 -50.667 -84.333 -91 -117 -121zM735.001 689.999
h-15.999c-14 0 -26.167 -4.5 -36.5 -13.5s-15.833 -20.167 -16.5 -33.5v-396c0 -78 -24.667 -141 -74 -189s-115 -72 -197 -72s-148.5 23.833 -199.5 71.5s-76.5 110.5 -76.5 188.5v395c0 14 -5.16699 25.667 -15.5 35s-22.833 14 -37.5 14h-16v10h203v-10h-16
c-20 0 -35 -7.66699 -45 -23c-4.66699 -7.33301 -7.33398 -15.666 -8.00098 -24.999v-382c0 -72.667 19.5 -131.334 58.5 -176.001s91.167 -67 156.5 -67s118.333 21.167 159 63.5s61 97.833 61 166.5v395c-0.666992 14 -6 25.5 -16 34.5s-22 13.5 -36 13.5h-17v10h185v-10z
" />
    <glyph glyph-name="uhungarumlaut" unicode="&#x171;" horiz-adv-x="700" 
d="M293 668l-11 2c20.667 44 43 87.667 67 131c24.667 -1.33301 45 -5.33301 61 -12c-36 -40 -75 -80.333 -117 -121zM416 668l-10.999 1.99902c20 48.667 42.333 92.334 67 131.001c19.333 0 39.666 -4 60.999 -12c-45.333 -50.667 -84.333 -91 -117 -121zM665.001 589.999
l-15.002 0.000976562c-18 0 -31.667 -7 -41 -21c-4 -6 -6.33301 -13 -7 -21v-337c0 -69.333 -22.167 -124.166 -66.5 -164.499s-105.166 -60.5 -182.499 -60.5s-138.333 20 -183 60s-67 94.667 -67 164v337c0 12 -4.66699 22.167 -14 30.5s-20.666 12.5 -33.999 12.5h-15v10
h190v-10h-15c-13.333 0 -24.666 -4.16699 -33.999 -12.5s-14 -18.5 -14 -30.5v-325c0 -64.667 16.5 -115.667 49.5 -153s79.667 -56 140 -56s108.666 17.667 144.999 53s54.5 83.666 54.5 144.999v336c-0.666992 19.333 -10.667 32.666 -30 39.999
c-5.33301 2 -11.333 3 -18 3h-15v10h172v-10z" />
    <glyph glyph-name="Uogonek" unicode="&#x172;" horiz-adv-x="785" 
d="M372 -85c0 -20 6.66797 -36.6641 20.001 -49.9971s29.666 -20 48.999 -20s37 8.33301 53 25l6 -6c-6 -16 -16 -29 -30 -39c-26 -18.667 -56.333 -22.334 -91 -11.001c-14.667 5.33301 -27.167 15.666 -37.5 30.999s-15.5 33.333 -15.5 54s6.16699 38.667 18.5 54
s28.5 26.333 48.5 33c-82 0.666992 -148.167 24.834 -198.5 72.501s-75.5 110.167 -75.5 187.5v394c0 20 -8.66699 34.667 -26 44c-8 4 -17 6 -27 6h-16v10h203v-10h-16c-14.667 0 -27 -4.5 -37 -13.5s-15.333 -20.5 -16 -34.5v-382c0 -72.667 19.5 -131.334 58.5 -176.001
s91.167 -67 156.5 -67s118.333 21.167 159 63.5s61 97.833 61 166.5v395c-0.666992 14 -6 25.5 -16 34.5s-22.333 13.5 -37 13.5h-16v10h185v-10h-16c-14 0 -26.167 -4.5 -36.5 -13.5s-15.833 -20.167 -16.5 -33.5v-396c0 -70 -20.167 -128.333 -60.5 -175
s-94.833 -74.334 -163.5 -83.001c-46.667 -12 -70 -36.667 -70 -74z" />
    <glyph glyph-name="uogonek" unicode="&#x173;" horiz-adv-x="700" 
d="M313 -89c0 -20 6.66699 -36.666 20 -49.999s29.666 -20 48.999 -20s37 8.33301 53 25l6 -6c-6 -16 -16 -29 -30 -39c-15.333 -11.333 -31.333 -17 -48 -17s-31.834 2.33301 -45.501 7s-25.5 14.667 -35.5 30s-15 33.833 -15 55.5s7.33301 40.5 22 56.5
s33.334 27 56.001 33c-74.667 1.33301 -133.667 22 -177 62s-65 94 -65 162v337c0 12 -4.66699 22.167 -14 30.5s-20.666 12.5 -33.999 12.5h-15v10h190v-10h-15c-13.333 0 -24.666 -4.16699 -33.999 -12.5s-14 -18.5 -14 -30.5v-325c0 -64.667 16.5 -115.667 49.5 -153
s79.667 -56 140 -56s108.666 17.667 144.999 53s54.5 83.666 54.5 144.999v336c-0.666992 12.667 -5.5 23 -14.5 31s-20.167 12 -33.5 12h-15v10h172v-10h-15c-18 0 -31.667 -7 -41 -21c-4 -6 -6.33301 -13 -7 -21v-337c0 -87.333 -33.333 -150.333 -100 -189
c-32 -19.333 -70.333 -31 -115 -35c-49.333 -12.667 -74 -38 -74 -76z" />
    <glyph glyph-name="Wcircumflex" unicode="&#x174;" horiz-adv-x="982" 
d="M502 890h10l114 -119l-6 -8l-114 66l-104 -66l-6 8zM992 690l-8.00098 -0.000976562c-17.333 0 -34.5 -5.16699 -51.5 -15.5s-29.167 -25.833 -36.5 -46.5l-166 -529c-13.333 -42 -20.666 -79 -21.999 -111h-9l-204 572l-152 -461
c-12.667 -41.333 -19.667 -78.333 -21 -111h-9l-227 641c-8 20 -20.333 35.167 -37 45.5s-33.667 15.5 -51 15.5h-8v10h222v-10h-9c-14 0 -24.5 -4.5 -31.5 -13.5s-10.5 -17.5 -10.5 -25.5s1 -15.333 3 -22l152 -487l186 574l9 -1l197 -553l134 468
c2 7.33301 3 14.833 3 22.5s-3.33301 15.834 -10 24.501s-17 13 -31 13h-9v10h197v-10z" />
    <glyph glyph-name="wcircumflex" unicode="&#x175;" horiz-adv-x="899" 
d="M458 791h10l114 -118l-6 -8l-114 66l-104 -66l-6 8zM904 590l-7.00195 -0.000976562c-40 0 -67.333 -19.667 -82 -59l-145 -432c-14 -42 -21.667 -79 -23 -111h-10l-186 476l-130 -365c-13.333 -41.333 -20.666 -78.333 -21.999 -111h-9l-210 547
c-15.333 36.667 -42 55 -80 55h-8v10h206v-10h-8c-12 0 -21.167 -3.66699 -27.5 -11s-9.5 -14.666 -9.5 -21.999s1 -14.333 3 -21l133 -407l169 487l10 -1l179 -456l112 371c8.66699 29.333 4 48.333 -14 57c-5.33301 2 -10.666 3 -15.999 3h-8v10h183v-10z" />
    <glyph glyph-name="Ycircumflex" unicode="&#x176;" horiz-adv-x="661" 
d="M335 890h10l114 -119l-6 -8l-114 66l-104 -66l-6 8zM672 690l-13.999 -0.00195312c-20 0 -38.833 -5.5 -56.5 -16.5s-32.5 -24.833 -44.5 -41.5l-197 -320v-239c0 -17.333 6.16699 -32.166 18.5 -44.499s27.5 -18.5 45.5 -18.5h12v-10h-218v10h13
c17.333 0 32.166 6 44.499 18s18.833 26.667 19.5 44v241l-191 319c-10 16 -24.167 29.667 -42.5 41s-37.5 17 -57.5 17h-14v10h246v-10h-13c-14.667 0 -26 -6.66699 -34 -20c-4 -7.33301 -6 -14.5 -6 -21.5s1.66699 -13.833 5 -20.5l150 -280l160 281
c3.33301 6.66699 5 13.334 5 20.001s-2.33301 13.667 -7 21c-8 13.333 -19.333 20 -34 20h-12v10h222v-10z" />
    <glyph glyph-name="ycircumflex" unicode="&#x177;" horiz-adv-x="640" 
d="M328 790h10l114 -119l-6 -8l-113 66l-105 -66l-6 8zM645 590l-11.998 0.00195312c-18 0 -35.167 -4.83301 -51.5 -14.5s-29.833 -21.834 -40.5 -36.501l-192 -291v-184c0 -14.667 5.66699 -27.334 17 -38.001s25 -16 41 -16h12v-10h-205v10h12c16 0 29.667 5.33301 41 16
s17 23.334 17 38.001v185l-185 291c-22.667 33.333 -53.334 50 -92.001 50h-12v10h232v-10h-12c-12.667 0 -21.834 -4 -27.501 -12s-8.5 -14.833 -8.5 -20.5s0.666992 -10.834 2 -15.501l146 -259l155 258c2 5.33301 3 10.833 3 16.5s-2.83301 12.5 -8.5 20.5
s-15.167 12 -28.5 12h-12v10h209v-10z" />
    <glyph glyph-name="Ydieresis" unicode="&#x178;" horiz-adv-x="661" 
d="M246 764c-10.667 0 -19.834 3.83301 -27.501 11.5s-11.5 16.834 -11.5 27.501s3.83301 19.834 11.5 27.501s16.834 11.5 27.501 11.5s19.834 -3.83301 27.501 -11.5s11.5 -16.834 11.5 -27.501s-3.83301 -19.834 -11.5 -27.501s-16.834 -11.5 -27.501 -11.5zM434 764
c-10.667 0 -19.834 3.83301 -27.501 11.5s-11.5 16.834 -11.5 27.501s3.83301 19.834 11.5 27.501s16.834 11.5 27.501 11.5s19.834 -3.83301 27.501 -11.5s11.5 -16.834 11.5 -27.501s-3.83301 -19.834 -11.5 -27.501s-16.834 -11.5 -27.501 -11.5zM672 690
l-13.999 -0.00195312c-20 0 -38.833 -5.5 -56.5 -16.5s-32.5 -24.833 -44.5 -41.5l-197 -320v-239c0 -17.333 6.16699 -32.166 18.5 -44.499s27.5 -18.5 45.5 -18.5h12v-10h-218v10h13c17.333 0 32.166 6 44.499 18s18.833 26.667 19.5 44v241l-191 319
c-10 16 -24.167 29.667 -42.5 41s-37.5 17 -57.5 17h-14v10h246v-10h-13c-14.667 0 -26 -6.66699 -34 -20c-4 -7.33301 -6 -14.5 -6 -21.5s1.66699 -13.833 5 -20.5l150 -280l160 281c3.33301 6.66699 5 13.334 5 20.001s-2.33301 13.667 -7 21
c-8.66699 13.333 -20 20 -34 20h-12v10h222v-10z" />
    <glyph glyph-name="Zacute" unicode="&#x179;" horiz-adv-x="651" 
d="M324 764l-7 6.99902c50.667 54.667 93 98.334 127 131.001c18 -18 31.667 -35.667 41 -53c-43.333 -24.667 -97 -53 -161 -85zM584 -0.000976562h-524v9l420 662h-337c-16.667 -0.666992 -30.667 -6.66699 -42 -18s-17 -25.333 -17 -42v-18h-10v126
c10 -4 27.667 -8 53 -12s43.166 -6 53.499 -6h15.5h278c28 0 51.667 1.66699 71 5s31 6 35 8v-9l-428 -675h318c35.333 0 64.333 11.333 87 34s39.334 52.667 50.001 90h10z" />
    <glyph glyph-name="zacute" unicode="&#x17a;" horiz-adv-x="608" 
d="M300 664l-7 6.99902c50.667 54.667 93 98.334 127 131.001c17.333 -18 31 -35.667 41 -53c-43.333 -24.667 -97 -53 -161 -85zM76 519.999v-16h-11v113c8.66699 -4 24.5 -7.5 47.5 -10.5s44.5 -4.83301 64.5 -5.5h230c20.667 0 43 1.33301 67 4s39.333 5.66699 46 9v-9
l-380 -575h274c30.667 0.666992 56.667 6.16699 78 16.5s37.5 22.833 48.5 37.5s21.833 34.334 32.5 59.001h10l-54 -143h-479v9l373 562h-298c-14.667 -0.666992 -26.5 -5.83398 -35.5 -15.501s-13.5 -21.5 -13.5 -35.5z" />
    <glyph glyph-name="Zdotaccent" unicode="&#x17b;" horiz-adv-x="651" 
d="M322.5 765c-11.667 0 -21.667 4.16699 -30 12.5s-12.5 18.5 -12.5 30.5s4.16699 22.167 12.5 30.5s18.333 12.5 30 12.5s21.834 -4.16699 30.501 -12.5s13 -18.5 13 -30.5s-4.33301 -22.167 -13 -30.5s-18.834 -12.5 -30.501 -12.5zM584 0h-523.998v9l420 662h-337
c-16.667 -0.666992 -30.667 -6.66699 -42 -18s-17 -25.333 -17 -42v-18h-10v126c10 -4 27.667 -8 53 -12s43.166 -6 53.499 -6h15.5h278c32.667 0 57.667 1.83301 75 5.5s27.666 6.16699 30.999 7.5v-9l-428 -675h318c35.333 0 64.5 11.333 87.5 34s39.5 52.667 49.5 90h10z
" />
    <glyph glyph-name="zdotaccent" unicode="&#x17c;" horiz-adv-x="608" 
d="M298.5 665c-11.667 0 -21.834 4.16699 -30.501 12.5s-13 18.5 -13 30.5s4.33301 22.167 13 30.5s18.834 12.5 30.501 12.5s21.667 -4.16699 30 -12.5s12.5 -18.5 12.5 -30.5s-4.16699 -22.167 -12.5 -30.5s-18.333 -12.5 -30 -12.5zM76 520v-16h-11v113
c8.66699 -4 24.5 -7.5 47.5 -10.5s44.5 -4.83301 64.5 -5.5h230c20.667 0 43 1.33301 67 4s39.333 5.66699 46 9v-9l-380 -575h274c30.667 0.666992 56.667 6.16699 78 16.5s37.5 22.833 48.5 37.5s21.833 34.334 32.5 59.001h10l-54 -143h-479v9l373 562h-298
c-20 -0.666992 -34.333 -9.33398 -43 -26.001c-4 -8 -6 -16.333 -6 -25z" />
    <glyph glyph-name="Zcaron" unicode="&#x17d;" horiz-adv-x="651" 
d="M329 764h-10l-114 119l6 8l113 -66l105 66l6 -8zM584 0h-524v9l420 662h-337c-16.667 -0.666992 -30.667 -6.66699 -42 -18s-17 -25.333 -17 -42v-18h-10v126c10 -4 27.667 -8 53 -12s43.166 -6 53.499 -6h15.5h278c28 0 51.667 1.66699 71 5s31 6 35 8v-9l-428 -675h318
c35.333 0 64.333 11.333 87 34s39.334 52.667 50.001 90h10z" />
    <glyph glyph-name="zcaron" unicode="&#x17e;" horiz-adv-x="608" 
d="M305 664h-10l-114 119l6 8l113 -66l105 66l6 -8zM76 519l0.000976562 -15h-11v113c23.333 -9.33301 60.666 -14.666 111.999 -15.999h229c21.333 0 44 1.33301 68 4s39.333 5.66699 46 9v-9l-380 -575h274c30.667 0.666992 56.667 6.16699 78 16.5s37.5 22.833 48.5 37.5
s21.833 34.334 32.5 59.001h10l-54 -143h-479v9l373 562h-298c-14.667 -0.666992 -26.5 -5.83398 -35.5 -15.501s-13.5 -21.834 -13.5 -36.501z" />
    <glyph glyph-name="florin" unicode="&#x192;" horiz-adv-x="493" 
d="M423 518c0 14.667 -4.49902 26.834 -13.499 36.501s-20.833 14.5 -35.5 14.5h-189v-254h156c12.667 0 22.334 4 29.001 12s10 18 10 30v13h10v-140h-10v13c0 11.333 -3.16699 21 -9.5 29s-15.5 12.333 -27.5 13h-158v-285c0 -48 -16.333 -89.667 -49 -125
s-71.334 -53 -116.001 -53v10c28.667 10 52.667 31.167 72 63.5s29 67.166 29 104.499v538c-0.666992 23.333 -11.334 39.333 -32.001 48c-6.66699 2.66699 -13.667 4 -21 4h-13v10h275c18 0 37.5 1.66699 58.5 5s35.833 7 44.5 11v-114l-10 1v15z" />
    <glyph glyph-name="Scommaaccent" unicode="&#x218;" horiz-adv-x="472" 
d="M365 294c34 -34 50.998 -76.5 50.998 -127.5s-16.667 -93.667 -50 -128s-77.333 -51.833 -132 -52.5c-34.667 0 -68 4.66699 -100 14s-56.667 23 -74 41c-1.33301 12 -2 28 -2 48s3.66699 43.667 11 71h9c0 -28.667 6.33301 -53.667 19 -75c27.333 -46 73 -69 137 -69
c50.667 2.66699 87 24.667 109 66c10 19.333 15 41.666 15 66.999c0 38 -12.667 69.667 -38 95l-191 178c-36.667 36.667 -55 77.834 -55 123.501s16.167 85.167 48.5 118.5s69.833 50 112.5 50s77.334 -3.33301 104.001 -10h35v-108h-9c0 16 -9.33301 33.667 -28 53
c-5.33301 6 -11.666 11.333 -18.999 16c-16.667 12.667 -38.5 19 -65.5 19s-49.333 -5.33301 -67 -16s-31.5 -24.667 -41.5 -42s-15 -36 -15 -56c0 -36.667 13.333 -68 40 -94zM267.998 -85.5c6 -15 9 -27.499 9 -37.499c0 -28 -8.5 -49 -25.5 -63s-34.167 -21 -51.5 -21
l-2 6c15.333 4.66699 26 12 32 22c10.667 19.333 7.33398 38.666 -9.99902 57.999c-8.66699 9.33301 -13.334 16 -14.001 20c-2 8 -1.66699 15 1 21c4.66699 11.333 14.5 17 29.5 17s25.5 -7.5 31.5 -22.5z" />
    <glyph glyph-name="scommaaccent" unicode="&#x219;" horiz-adv-x="462" 
d="M58 33c-2 8 -3.00195 24.333 -3.00195 49s4.33301 49.667 13 75h12c-0.666992 -6 -1 -12 -1 -18c0 -36 11.833 -65.5 35.5 -88.5s56.5 -34.5 98.5 -34.5c44 0 78.333 10.167 103 30.5s37 46.666 37 78.999s-12 59.166 -36 80.499l-200 154c-32 27.333 -48 64 -48 110
c0 26 7.16699 50 21.5 72s34.333 39.5 60 52.5s55.834 19.5 90.501 19.5s65.334 -3 92.001 -9h33l2 -109h-11c0 28 -9.66699 49.667 -29 65s-47 23 -83 23s-65.667 -9.16699 -89 -27.5s-35 -42 -35 -71s13 -54.167 39 -75.5l202 -156c30.667 -25.333 46 -60.666 46 -105.999
s-17.167 -83.666 -51.5 -114.999s-76.166 -47 -125.499 -47c-32.667 0 -65.334 4 -98.001 12s-57.667 19.667 -75 35zM201.998 -81c5.33301 11.333 15.001 17 29.001 17c15.333 0 26.166 -7.5 32.499 -22.5s9.5 -29.333 9.5 -43s-4.33301 -27.167 -13 -40.5
c-16 -24 -37.667 -36.667 -65 -38l-2 7c15.333 4.66699 25.666 12 30.999 22c10.667 18 9.33398 35 -3.99902 51c-0.666992 1.33301 -2.33398 3.5 -5.00098 6.5s-4.66699 5.33301 -6 7s-3 4 -5 7s-3.33301 5.83301 -4 8.5c-1.33301 6 -0.666016 12 2.00098 18z" />
    <glyph glyph-name="uni021A" unicode="&#x21a;" horiz-adv-x="618" 
d="M589 611c0 16 -5.66895 29.833 -17.002 41.5s-24.666 17.834 -39.999 18.501h-190v-599c0.666992 -17.333 7.16699 -32 19.5 -44s27.166 -18 44.499 -18h13v-10h-219v10h13c17.333 0 32.166 6 44.499 18s18.833 26.333 19.5 43v600h-190
c-16 -0.666992 -29.5 -6.83398 -40.5 -18.501s-16.5 -25.5 -16.5 -41.5v-17l-10 -1v126c10 -4 27.333 -8 52 -12s47.334 -6 68.001 -6h338c32.667 0 59.834 2.5 81.501 7.5s34.834 8.5 39.501 10.5v-126l-10 1v17zM281.998 -81c5.33301 11.333 15.001 17 29.001 17
c15.333 0 26.166 -7.5 32.499 -22.5s9.5 -29.333 9.5 -43s-4.33301 -27.167 -13 -40.5c-16 -24 -37.667 -36.667 -65 -38l-2 7c15.333 4.66699 25.666 12 30.999 22c10.667 18 9.33398 35 -3.99902 51c-0.666992 1.33301 -2.33398 3.5 -5.00098 6.5s-4.66699 5.33301 -6 7
s-3 4 -5 7s-3.33301 5.83301 -4 8.5c-1.33301 6 -0.666016 12 2.00098 18z" />
    <glyph glyph-name="uni021B" unicode="&#x21b;" horiz-adv-x="548" 
d="M322 571v-508.001c0.666992 -20.667 10.667 -36 30 -46c8.66699 -4.66699 18.334 -7 29.001 -7h11v-10h-206v10h12c16 0 29.667 5.33301 41 16s17.333 23.334 18 38.001v507h-181c-15.333 0 -27.5 -5 -36.5 -15s-13.5 -22 -13.5 -36v-16h-11v113
c13.333 -5.33301 32.166 -9.33301 56.499 -12s42.5 -4 54.5 -4h326c48 0 85.333 5.33301 112 16v-113h-11v16c0 14 -4.66699 26 -14 36s-21.333 15 -36 15h-181zM261 -81.001c5.33301 11.333 15.001 17 29.001 17c15.333 0 26.166 -7.5 32.499 -22.5s9.5 -29.333 9.5 -43
s-4.33301 -27.167 -13 -40.5c-16 -24 -37.667 -36.667 -65 -38l-2 7c15.333 4.66699 25.666 12 30.999 22c10.667 18 9.33398 35 -3.99902 51c-0.666992 1.33301 -2.33398 3.5 -5.00098 6.5s-4.66699 5.33301 -6 7s-3 4 -5 7s-3.33301 5.83301 -4 8.5
c-1.33301 6 -0.666016 12 2.00098 18z" />
    <glyph glyph-name="circumflex" unicode="&#x2c6;" horiz-adv-x="600" 
d="M272 856h10l114 -119l-6 -8l-114 66l-104 -66l-6 8z" />
    <glyph glyph-name="caron" unicode="&#x2c7;" horiz-adv-x="600" 
d="M290 729h-10l-114 119l6 8l113 -66l105 66l6 -8z" />
    <glyph glyph-name="breve" unicode="&#x2d8;" horiz-adv-x="440" 
d="M323 854c0 -18.667 -4.66602 -36 -13.999 -52s-21.833 -28.667 -37.5 -38s-35.167 -14 -58.5 -14s-45.166 10.333 -65.499 31s-30.5 45 -30.5 73h10c5.33301 -14.667 16.666 -27.334 33.999 -38.001s37 -16 59 -16s41.667 5.33301 59 16s28.666 23.334 33.999 38.001h10z
" />
    <glyph glyph-name="dotaccent" unicode="&#x2d9;" horiz-adv-x="600" 
d="M301 701c-12 0 -22.167 4.16699 -30.5 12.5s-12.5 18.5 -12.5 30.5s4.16699 22.167 12.5 30.5s18.5 12.5 30.5 12.5s22.167 -4.16699 30.5 -12.5s12.5 -18.5 12.5 -30.5s-4.16699 -22.167 -12.5 -30.5s-18.5 -12.5 -30.5 -12.5z" />
    <glyph glyph-name="ring" unicode="&#x2da;" horiz-adv-x="600" 
d="M253.5 839.5c14.333 6.33301 32.667 9.5 55 9.5s42.333 -6.66699 60 -20s26.5 -31.666 26.5 -54.999c0 -22 -8.83301 -40 -26.5 -54s-40 -21 -67 -21s-49.333 7.16699 -67 21.5s-26.5 30.5 -26.5 48.5s4 32.667 12 44s19.167 20.166 33.5 26.499zM301.501 832
c-14.333 0 -26.166 -5.16699 -35.499 -15.5s-14 -24.5 -14 -42.5s4.66699 -32.167 14 -42.5s21.166 -15.5 35.499 -15.5s26 5.16699 35 15.5s13.5 24.5 13.5 42.5s-4.5 32.167 -13.5 42.5s-20.667 15.5 -35 15.5z" />
    <glyph glyph-name="ogonek" unicode="&#x2db;" horiz-adv-x="600" 
d="M303 -62c0 -20 6.83203 -36.665 20.499 -49.998s30 -20 49 -20s36.5 8.33301 52.5 25l6 -6c-6 -16 -15.667 -29 -29 -39c-16 -11.333 -32.167 -17 -48.5 -17s-31.333 2.33301 -45 7s-25.667 14.667 -36 30s-15.5 35.166 -15.5 59.499s10.833 45.166 32.5 62.499
s47.834 26 78.501 26l10 -3c-50 -12 -75 -37 -75 -75z" />
    <glyph glyph-name="tilde" unicode="&#x2dc;" horiz-adv-x="600" 
d="M347 745c27.333 0 45.666 11.332 54.999 33.999h10c-4 -33.333 -15.333 -56.666 -34 -69.999c-9.33301 -6 -20.666 -9 -33.999 -9s-33.833 7.33301 -61.5 22s-46.5 22 -56.5 22c-24.667 0 -42.667 -13.667 -54 -41h-10c4 26 11.667 46.667 23 62s25 23 41 23
s37.5 -7.16699 64.5 -21.5s45.833 -21.5 56.5 -21.5z" />
    <glyph glyph-name="hungarumlaut" unicode="&#x2dd;" horiz-adv-x="600" 
d="M212 751l-11 1.99902c20 43.333 42.333 87 67 131c24 -1.33301 44.333 -5.66602 61 -12.999c-36 -40 -75 -80 -117 -120zM334 750.999l-11 1.99902c20 48.667 42.333 92.334 67 131.001c20 0 40.333 -4.33301 61 -13c-45.333 -50 -84.333 -90 -117 -120z" />
    <glyph glyph-name="commaaccentcomb" unicode="&#x326;" horiz-adv-x="0" 
d="M100.5 -22.5c6.33301 -15 9.5 -29.333 9.5 -43s-4.33301 -27.167 -13 -40.5c-16 -24 -37.667 -36.667 -65 -38l-2 7c14.667 4.66699 25 12 31 22c10.667 18 9.33398 35 -3.99902 51c-1.33301 1.33301 -3.16602 3.5 -5.49902 6.5s-4.33301 5.33301 -6 7
s-3.33398 4 -5.00098 7s-2.83398 5.83301 -3.50098 8.5c-1.33301 6 -0.666016 12 2.00098 18c4 11.333 13.667 17 29 17s26.166 -7.5 32.499 -22.5z" />
    <glyph glyph-name="Delta" unicode="&#x394;" horiz-adv-x="652" 
d="M647 0h-642v10l316 704h10l316 -704v-10zM558 30l-251 582l-258 -582h509z" />
    <glyph glyph-name="Omega" unicode="&#x3a9;" horiz-adv-x="808" 
d="M465 0l-0.00195312 65.002c52 30 98.667 71 140 123c49.333 61.333 74 130.333 74 207c0 51.333 -11.5 99.166 -34.5 143.499s-55.667 79.666 -98 105.999s-89.166 39.5 -140.499 39.5c-77.333 0 -142.666 -28.833 -195.999 -86.5s-80 -128.167 -80 -211.5
c0 -100.667 44.333 -189.667 133 -267c23.333 -20.667 48.333 -38.667 75 -54v-65h-237l-48 140h10c18.667 -33.333 35.667 -55.833 51 -67.5s37.333 -17.5 66 -17.5h128c-62.667 21.333 -112.667 52.333 -150 93c-65.333 72.667 -98 155.667 -98 249
c0 56 14.5 108.333 43.5 157s70.5 87.5 124.5 116.5s113 43.5 177 43.5s122.167 -14.5 174.5 -43.5s93.5 -68.5 123.5 -118.5s45 -105.333 45 -166c0 -53.333 -21.667 -114 -65 -182c-20 -32 -46.667 -61.667 -80 -89s-69 -47.333 -107 -60h130
c28.667 0 50.667 5.83301 66 17.5s32.333 34.167 51 67.5h10l-48 -140h-240z" />
    <glyph glyph-name="mu" unicode="&#x3bc;" horiz-adv-x="878" 
d="M856 10l14.9971 -0.000976562v-10h-208v9h15c10 0 18.833 3.83301 26.5 11.5s10.834 16.834 9.50098 27.501l-52 412l-189 -372c-18.667 -40.667 -30.334 -74.667 -35.001 -102h-10l-241 465l-45 -403c-1.33301 -10 1.83398 -19 9.50098 -27s16.834 -12 27.501 -12h14v-9
h-185v10h15c24 0 42.667 8.66699 56 26c6.66699 8.66699 10.667 19 12 31l78 547h10l264 -508l255 508h9l81 -549c2.66699 -16.667 10.334 -30 23.001 -40s27.667 -15 45 -15z" />
    <glyph glyph-name="pi" unicode="&#x3c0;" horiz-adv-x="703" 
d="M463 10c15.333 0 28.333 5.3291 39 15.9961s16.334 23.334 17.001 38.001v452c-0.666992 14.667 -6.16699 27.334 -16.5 38.001s-22.833 16 -37.5 16h-226c-14.667 0 -27.167 -5.16699 -37.5 -15.5s-15.833 -22.833 -16.5 -37.5v-454
c0.666992 -14.667 6.33398 -27.167 17.001 -37.5s23.667 -15.5 39 -15.5h10l1 -10h-197v10h11c15.333 0 28.333 5.33301 39 16s16 23.334 16 38.001v472c0 20.667 -9.33301 36.334 -28 47.001c-8 4.66699 -17 7 -27 7h-11v10h594v-10h-11
c-14.667 0 -27.334 -5.16699 -38.001 -15.5s-16.334 -22.833 -17.001 -37.5v-474c0.666992 -20.667 10 -36 28 -46c8 -4.66699 17 -7 27 -7h11v-10h-197l1 10h10z" />
    <glyph glyph-name="Wgrave" unicode="&#x1e80;" horiz-adv-x="982" 
d="M514 771l-7 -6.99902c-54 25.333 -107.667 53.666 -161 84.999c10 18.667 23.667 36.334 41 53.001c42 -40.667 84.333 -84.334 127 -131.001zM992 690.001l-8.00098 -0.000976562c-17.333 0 -34.5 -5.16699 -51.5 -15.5s-29.167 -25.833 -36.5 -46.5l-166 -529
c-13.333 -42.667 -20.666 -79.667 -21.999 -111h-9l-204 572l-152 -461c-12.667 -41.333 -19.667 -78.333 -21 -111h-9l-227 641c-8 20 -20.333 35.167 -37 45.5s-33.667 15.5 -51 15.5h-8v10h222v-10h-9c-14 0 -24.5 -4.5 -31.5 -13.5s-10.5 -17.5 -10.5 -25.5
s1 -15.333 3 -22l152 -487l186 574l9 -1l197 -553l134 468c2 7.33301 3 14.833 3 22.5s-3.33301 15.834 -10 24.501s-17 13 -31 13h-9v10h197v-10z" />
    <glyph glyph-name="wgrave" unicode="&#x1e81;" horiz-adv-x="899" 
d="M470 673l-7 -6.99902c-53.333 25.333 -107 53.666 -161 84.999c10 18.667 23.667 36.334 41 53.001c42.667 -40.667 85 -84.334 127 -131.001zM904 590.001h-7c-40 0 -67.333 -20 -82 -60l-145 -431c-14.667 -42.667 -22.334 -79.667 -23.001 -111h-10l-186 476
l-130 -365c-13.333 -41.333 -20.666 -78.333 -21.999 -111h-9l-210 547c-15.333 36.667 -42 55 -80 55h-8v10h206v-10h-8c-11.333 0 -20 -3 -26 -9c-10 -11.333 -12.667 -26.333 -8 -45l133 -407l169 487l10 -1l179 -456l112 370c3.33301 10 5 18.667 5 26
s-2.66699 15 -8 23s-14.333 12 -27 12h-8v10h183v-10z" />
    <glyph glyph-name="Wacute" unicode="&#x1e82;" horiz-adv-x="982" 
d="M507 764l-7 6.99902c50.667 54.667 93 98.334 127 131.001c17.333 -18 31 -35.667 41 -53c-43.333 -24.667 -97 -53 -161 -85zM992 689.999l-8.00098 -0.000976562c-17.333 0 -34.5 -5.16699 -51.5 -15.5s-29.167 -25.833 -36.5 -46.5l-166 -529
c-13.333 -42 -20.666 -79 -21.999 -111h-9l-204 572l-152 -461c-12.667 -41.333 -19.667 -78.333 -21 -111h-9l-227 641c-8 20 -20.333 35.167 -37 45.5s-33.667 15.5 -51 15.5h-8v10h222v-10h-9c-14 0 -24.5 -4.5 -31.5 -13.5s-10.5 -17.5 -10.5 -25.5s1 -15.333 3 -22
l152 -487l186 574l9 -1l197 -553l134 468c2 7.33301 3 14.833 3 22.5s-3.33301 15.834 -10 24.501s-17 13 -31 13h-9v10h197v-10z" />
    <glyph glyph-name="wacute" unicode="&#x1e83;" horiz-adv-x="899" 
d="M463 666l-6.99902 6.99805c50.667 54.667 93 98.334 127 131.001c18 -18 31.667 -35.667 41 -53c-42.667 -25.333 -96.334 -53.666 -161.001 -84.999zM904.001 589.998h-7.00098c-40 0 -67.333 -19.667 -82 -59l-145 -432c-14.667 -42 -22.334 -79 -23.001 -111h-10
l-186 476l-130 -365c-13.333 -41.333 -20.666 -78.333 -21.999 -111h-9l-210 547c-15.333 36.667 -42 55 -80 55h-8v10h206v-10h-8c-11.333 0 -20 -3 -26 -9c-10 -11.333 -12.667 -26.333 -8 -45l133 -407l169 487l10 -1l179 -456l112 371c8.66699 29.333 4 48.333 -14 57
c-5.33301 2 -10.666 3 -15.999 3h-8v10h183v-10z" />
    <glyph glyph-name="Wdieresis" unicode="&#x1e84;" horiz-adv-x="982" 
d="M412.5 764c-11 0 -20.167 3.83301 -27.5 11.5s-11 16.834 -11 27.501s3.66699 19.834 11 27.501s16.5 11.5 27.5 11.5s20.333 -3.83301 28 -11.5s11.5 -16.834 11.5 -27.501s-3.83301 -19.834 -11.5 -27.501s-17 -11.5 -28 -11.5zM601 764
c-10.667 0 -19.834 3.83301 -27.501 11.5s-11.5 16.834 -11.5 27.501s3.83301 19.834 11.5 27.501s16.834 11.5 27.501 11.5s19.834 -3.83301 27.501 -11.5s11.5 -16.834 11.5 -27.501s-3.83301 -19.834 -11.5 -27.501s-16.834 -11.5 -27.501 -11.5zM992 690
l-7.99902 -0.000976562c-24.667 0 -46.334 -9 -65.001 -27c-10.667 -9.33301 -18.334 -21 -23.001 -35l-166 -529c-13.333 -42 -20.666 -79 -21.999 -111h-9l-204 572l-152 -461c-12.667 -41.333 -19.667 -78.333 -21 -111h-9l-227 641c-8 20 -20.333 35.167 -37 45.5
s-33.667 15.5 -51 15.5h-8v10h222v-10h-9c-14 0 -24.5 -4.5 -31.5 -13.5s-10.5 -17.5 -10.5 -25.5s1 -15.333 3 -22l152 -487l186 574l9 -1l197 -553l134 468c2 7.33301 3 14.833 3 22.5s-3.33301 15.834 -10 24.501s-17 13 -31 13h-9v10h197v-10z" />
    <glyph glyph-name="wdieresis" unicode="&#x1e85;" horiz-adv-x="899" 
d="M369 666c-10.667 0 -19.834 3.83301 -27.501 11.5s-11.5 16.834 -11.5 27.501s3.83301 19.834 11.5 27.501s16.834 11.5 27.501 11.5s19.834 -3.83301 27.501 -11.5s11.5 -16.834 11.5 -27.501s-3.83301 -19.834 -11.5 -27.501s-16.834 -11.5 -27.501 -11.5zM557.5 666
c-11 0 -20.333 3.83301 -28 11.5s-11.5 16.834 -11.5 27.501s3.83301 19.834 11.5 27.501s17 11.5 28 11.5s20.167 -3.83301 27.5 -11.5s11 -16.834 11 -27.501s-3.66699 -19.834 -11 -27.501s-16.5 -11.5 -27.5 -11.5zM904 590h-7c-40 0 -67.333 -19.667 -82 -59l-145 -432
c-14.667 -42 -22.334 -79 -23.001 -111h-10l-186 476l-130 -365c-13.333 -41.333 -20.666 -78.333 -21.999 -111h-9l-210 547c-15.333 36.667 -42 55 -80 55h-8v10h206v-10h-8c-12 0 -21.167 -3.66699 -27.5 -11s-9.5 -14.666 -9.5 -21.999s1 -14.333 3 -21l133 -407
l169 487l10 -1l179 -456l112 371c3.33301 9.33301 5 17.666 5 24.999s-2.66699 15 -8 23s-14.333 12 -27 12h-8v10h183v-10z" />
    <glyph glyph-name="Ygrave" unicode="&#x1ef2;" horiz-adv-x="661" 
d="M347 771l-7 -6.99902c-53.333 25.333 -107 53.666 -161 84.999c10 18.667 23.667 36.334 41 53.001c42.667 -40.667 85 -84.334 127 -131.001zM672 690.001l-13.999 -0.000976562c-20 0 -38.833 -5.5 -56.5 -16.5s-32.5 -24.833 -44.5 -41.5l-197 -320v-239
c0 -17.333 6.16699 -32.166 18.5 -44.499s27.5 -18.5 45.5 -18.5h12v-10h-218v10h13c17.333 0 32.166 6 44.499 18s18.833 26.667 19.5 44v241l-191 319c-10 16 -24.167 29.667 -42.5 41s-37.5 17 -57.5 17h-14v10h246v-10h-13c-14.667 0 -26 -6.66699 -34 -20
c-4 -7.33301 -6 -14.5 -6 -21.5s1.66699 -13.833 5 -20.5l150 -280l160 281c3.33301 6 5 12.5 5 19.5s-2.33301 14.167 -7 21.5c-8 13.333 -19.333 20 -34 20h-12v10h222v-10z" />
    </font>
</defs>
</svg>
